<svg width="600" height="200" viewBox="0 0 600 200" fill="none" xmlns="http://www.w3.org/2000/svg">
<path d="M403.491 103.665L380.521 91.3954V58.7908C380.521 45.1402 369.366 34 355.765 34H284.756C271.125 34 260 45.1715 260 58.7908V84.2092C260 97.8598 271.156 109 284.756 109H369.428H373.972H402.175C405.121 109 406.092 105.046 403.491 103.665Z" fill="#E2D6BE"/>
<path d="M139.556 121.923L163.238 109.255V75.594C163.238 61.5011 174.739 50 188.761 50H261.971C276.025 50 287.494 61.5335 287.494 75.594V101.836C287.494 115.929 275.992 127.43 261.971 127.43H174.675H169.99H140.913C137.876 127.43 136.874 123.348 139.556 121.923Z" fill="#AC7F97"/>
<circle cx="3.9671" cy="3.9671" r="3.9671" transform="matrix(-1 0 0 1 267.562 72.2324)" fill="white" fill-opacity="0.9"/>
<rect width="22.921" height="7.9342" rx="3.9671" transform="matrix(-1 0 0 1 256.807 72.2324)" fill="white" fill-opacity="0.9"/>
<rect width="59.5947" height="4.76052" rx="2.38026" transform="matrix(-1 0 0 1 267.562 84.3984)" fill="white" fill-opacity="0.9"/>
<rect width="43.5499" height="4.76052" rx="2.38026" transform="matrix(-1 0 0 1 267.562 91.2725)" fill="white" fill-opacity="0.9"/>
<path d="M400.491 163.665L377.521 151.395V118.791C377.521 105.14 366.366 94 352.765 94H281.756C268.125 94 257 105.172 257 118.791V144.209C257 157.86 268.156 169 281.756 169H366.428H370.972H399.175C402.121 169 403.092 165.046 400.491 163.665Z" fill="#DDBA62"/>
<circle cx="280.271" cy="123.994" r="3.99408" fill="white" fill-opacity="0.9"/>
<rect x="287.104" y="120" width="23.0769" height="7.98816" rx="3.99408" fill="white" fill-opacity="0.9"/>
<rect x="276.277" y="132.25" width="60" height="4.7929" rx="2.39645" fill="white" fill-opacity="0.9"/>
<rect x="276.277" y="139.17" width="43.8461" height="4.7929" rx="2.39645" fill="white" fill-opacity="0.9"/>
</svg>
