<svg width="600" height="200" viewBox="0 0 600 200" fill="none" xmlns="http://www.w3.org/2000/svg">
<g clip-path="url(#clip0_16005_3031)">
<path d="M182.519 243.462C177.384 224.298 185.23 202.329 201.35 190.821C217.471 179.266 240.819 178.933 257.272 189.965C273.725 200.997 282.285 222.681 277.72 241.988L182.519 243.462Z" fill="#9C5F5E"/>
<path d="M213.762 192.242V179.26H204.49C199.069 179.26 194.694 174.885 194.694 169.464V159.906C193.267 159.098 191.793 158.242 190.699 157.006C189.606 155.769 188.988 154.01 189.463 152.441C189.939 150.871 191.365 149.873 192.601 148.827C197.309 145.022 200.876 139.839 202.73 134.085C205.678 127.143 213.572 123.766 220.657 126.334L226.078 128.331C232.546 130.709 236.397 137.366 235.161 144.166C235.161 144.166 236.492 152.06 238.157 152.631C239.821 153.201 241.057 154.818 241.153 156.578C241.248 158.147 240.439 159.668 239.25 160.715C238.062 161.761 236.588 162.379 235.066 162.712L240.297 192.242C230.929 199.565 221.133 201.277 216.52 197.33C215.617 196.522 214.381 195.048 213.762 192.242Z" fill="#E7B9B4"/>
<path d="M203.061 134.137C201.635 138.512 199.352 142.601 196.214 145.978C194.644 147.689 192.647 148.973 191.078 150.685C187.654 154.442 191.839 157.675 194.93 159.435C195.358 159.673 195.167 160.338 194.692 160.338C195.738 160.338 194.835 159.53 195.167 160.529C195.31 160.957 195.167 161.765 195.167 162.193C195.167 163.667 195.167 165.189 195.167 166.663C195.167 169.992 195.263 173.13 197.688 175.793C201.539 179.978 208.577 178.694 213.76 178.646C214.093 178.646 214.331 178.931 214.331 179.217C214.331 183.544 214.331 187.871 214.331 192.199C214.331 192.959 213.142 192.959 213.142 192.199C213.142 187.871 213.142 183.544 213.142 179.217C213.332 179.407 213.523 179.597 213.713 179.787C208.197 179.74 201.159 180.976 196.927 176.459C192.885 172.179 194.121 165.189 194.169 159.815C194.169 159.578 194.407 159.34 194.644 159.34C194.549 159.625 194.502 159.91 194.407 160.243C190.602 158.056 186.465 153.871 190.65 149.829C192.837 147.737 195.167 146.025 197.07 143.647C199.4 140.747 201.159 137.466 202.395 133.899C202.586 133.566 203.204 133.757 203.061 134.137Z" fill="#26282E"/>
<path d="M207.012 144.119C206.87 146.401 206.775 148.684 206.537 150.919C206.489 151.394 205.728 151.442 205.776 150.919C205.919 148.636 206.156 146.401 206.347 144.119C206.347 143.691 207.06 143.691 207.012 144.119Z" fill="#26282E"/>
<path d="M235.631 162.911C235.821 163.624 236.059 164.433 236.154 165.336C236.249 166.097 236.297 166.81 236.344 167.429C236.534 167.381 239.388 167.048 239.53 167.001C241.195 166.335 242.764 165.336 244.19 164.243C252.084 158.108 256.078 147.504 254.557 137.613C252.988 127.722 246.14 118.973 237.105 114.693C228.07 110.461 217.133 110.699 208.098 114.978C205.483 116.215 202.962 117.831 201.155 120.114C199.348 122.396 198.302 125.392 198.873 128.245C199.824 132.906 204.864 135.854 209.62 135.901C214.375 135.949 218.892 133.857 223.077 131.622C223.648 133.857 224.408 136.044 225.36 138.136C226.786 141.322 228.593 144.366 230.733 147.124C230.733 147.124 231.969 149.168 234.204 151.071C234.442 151.261 234.87 151.641 235.536 151.879C236.392 152.212 237.105 152.117 237.438 152.117C239.15 152.117 241.527 154.114 241.765 156.396C242.003 158.727 240.006 160.486 239.292 161.104C237.913 162.341 236.439 162.768 235.631 162.911Z" fill="#26282E"/>
<path d="M233.113 153.638C235.633 151.023 240.008 151.498 241.387 155.065C243.004 159.297 238.772 162.293 235.253 163.196C235.396 162.959 235.491 162.768 235.633 162.531C237.393 172.326 239.01 182.408 240.722 192.108C240.817 192.631 240.008 192.869 239.913 192.346C238.154 182.503 236.299 172.659 234.587 162.816C234.54 162.531 234.682 162.245 234.968 162.15C237.536 161.484 240.341 160.058 240.579 157.11C240.912 153.163 236.299 151.689 233.779 154.256C233.351 154.732 232.685 154.066 233.113 153.638Z" fill="#26282E"/>
<path d="M257.034 114.405C257.129 114.976 257.224 115.594 257.319 116.165C257.414 116.688 257.557 117.163 257.462 117.686C257.414 118.019 256.891 118.067 256.701 117.782C256.463 117.354 256.463 116.783 256.368 116.307C256.273 115.737 256.225 115.214 256.13 114.643C256.035 114.072 256.939 113.835 257.034 114.405Z" fill="#26282E"/>
<path d="M252.188 116.689C253.234 117.355 254.28 117.973 255.326 118.686C255.754 118.972 255.374 119.685 254.898 119.4C253.852 118.734 252.901 117.973 251.855 117.26C251.522 117.022 251.855 116.499 252.188 116.689Z" fill="#26282E"/>
<path d="M252.986 122.24C253.366 121.955 253.794 121.67 254.175 121.384C254.508 121.099 254.84 120.766 255.316 120.719C255.601 120.719 255.744 121.004 255.601 121.242C255.411 121.622 254.936 121.812 254.555 122.003C254.127 122.24 253.747 122.478 253.319 122.764C252.938 123.049 252.605 122.478 252.986 122.24Z" fill="#26282E"/>
<path d="M257.6 121.546C257.742 122.069 257.885 122.592 258.027 123.115C258.17 123.591 258.36 124.114 258.36 124.589C258.36 125.017 257.742 125.208 257.552 124.827C257.314 124.399 257.267 123.828 257.172 123.353C257.076 122.83 256.934 122.259 256.791 121.736C256.648 121.261 257.457 121.023 257.6 121.546Z" fill="#26282E"/>
<path d="M259.125 117.782C259.458 117.401 259.791 117.069 260.171 116.688C260.504 116.355 260.789 115.927 261.217 115.642C261.598 115.404 262.073 115.88 261.836 116.26C261.598 116.641 261.17 116.973 260.789 117.259C260.409 117.592 260.029 117.924 259.696 118.257C259.315 118.638 258.792 118.115 259.125 117.782Z" fill="#26282E"/>
<path d="M259.887 119.775C260.981 120.06 262.122 120.25 263.216 120.583C263.882 120.773 263.596 121.772 262.93 121.582C261.837 121.296 260.743 120.868 259.697 120.535C259.174 120.44 259.364 119.632 259.887 119.775Z" fill="#26282E"/>
<path d="M193.167 185.067C194.166 185.97 194.404 187.539 193.548 188.633C192.692 189.727 190.98 189.917 189.886 189.061C188.84 188.205 188.602 186.588 189.411 185.495C190.172 184.496 191.741 184.116 192.835 184.781C193.215 185.019 192.977 185.732 192.502 185.542C191.741 185.209 190.837 185.209 190.219 185.875C189.601 186.541 189.696 187.682 190.362 188.3C191.028 188.918 192.216 188.871 192.835 188.158C193.548 187.397 193.31 186.208 192.597 185.59C192.264 185.257 192.787 184.734 193.167 185.067Z" fill="#26282E"/>
<path d="M265.492 181.544C270.675 182.02 276.049 185.016 278.284 189.914C278.521 190.389 277.856 190.769 277.57 190.341C274.717 185.919 270.865 182.828 265.492 182.305C265.016 182.21 265.016 181.497 265.492 181.544Z" fill="#26282E"/>
<path d="M260.456 184.216C267.446 187.64 273.437 193.204 276.956 200.147C277.242 200.717 276.386 201.24 276.053 200.67C272.344 193.822 267.065 188.353 260.028 184.882C259.647 184.692 260.028 184.026 260.456 184.216Z" fill="#26282E"/>
<path d="M351.294 212.486C352.377 194.26 342.903 175.853 327.474 166.108C312.045 156.363 291.337 155.777 275.366 164.574C259.396 173.372 248.839 191.237 248.839 209.464" fill="#9C5F5E"/>
<path d="M338 119.5C338 131.226 332 143 325.5 154C323.84 155.951 323.745 164.912 322 166C318.085 168.44 311.293 163.5 306.5 163.5C302.14 163.5 293.84 165.647 290.5 163.5C287.482 161.56 289.34 155.607 287 150.5C282.088 139.78 278 129.561 278 119.5C278 99.3416 291.431 87.5 308 87.5C324.569 87.5 338 99.3416 338 119.5Z" fill="#9C5F5E"/>
<path d="M329.962 120.373C330.775 110.899 323.782 102.508 314.262 101.696L306.819 101.064C297.344 100.252 288.953 107.245 288.141 116.764L287.512 120.292L286.878 126.832L286.066 136.352C285.569 142.081 287.916 145.981 291.976 149.5L291.976 164.954C292.653 165.766 297.705 171.631 306.232 171.586C314.533 171.496 319.496 165.812 320.173 164.954C320.173 160.939 320.173 156.969 320.173 152.954C324.413 150.157 327.436 145.51 327.887 140.051L328.835 129.269L329.962 120.373Z" fill="#E7B9B4"/>
<path d="M297.022 114.542C296.977 116.752 296.887 119.008 296.932 121.264C296.932 121.76 297.654 121.715 297.654 121.264C297.744 119.053 297.699 116.798 297.699 114.542C297.654 114.136 297.022 114.136 297.022 114.542Z" fill="#26282E"/>
<path d="M318.586 116.167C318.541 118.377 318.451 120.633 318.496 122.889C318.496 123.385 319.218 123.34 319.218 122.889C319.308 120.678 319.263 118.423 319.263 116.167C319.263 115.761 318.586 115.761 318.586 116.167Z" fill="#26282E"/>
<path d="M308.436 115.352C307.895 118.149 306.902 120.811 305.368 123.247C303.924 125.503 301.578 127.217 300.315 129.563C298.06 133.669 303.022 135.789 306.225 136.421C306.676 136.511 306.857 135.834 306.406 135.744C303.834 135.067 300.045 134.21 300.541 130.736C300.812 128.841 303.473 126.902 304.601 125.413C306.812 122.525 308.21 119.142 308.887 115.533C308.887 115.217 308.481 115.081 308.436 115.352Z" fill="#26282E"/>
<path d="M314.48 143.371C311.412 145.176 307.713 145.762 304.239 144.905C300.946 144.093 298.961 142.063 296.66 139.762C296.389 139.491 295.938 139.852 296.119 140.168C299.683 146.8 308.931 147.296 314.751 143.822C315.022 143.642 314.796 143.236 314.48 143.371Z" fill="#26282E"/>
<path d="M291.923 150.949C291.833 155.37 291.653 159.927 291.923 164.348C291.968 164.98 292.916 164.98 292.916 164.348C293.141 159.927 292.826 155.37 292.645 150.949C292.69 150.498 291.968 150.453 291.923 150.949Z" fill="#26282E"/>
<path d="M320.166 152.483C319.579 156.543 319.218 160.784 319.85 164.844C319.94 165.386 320.797 165.25 320.797 164.709C320.797 160.649 320.572 156.634 321.023 152.573C321.023 152.167 320.211 152.032 320.166 152.483Z" fill="#26282E"/>
<path d="M320.5 157C316.289 160.445 304.5 159.833 299 158.5C297.333 157.5 293.4 155 291 153C288 150.5 286.5 142.5 286.5 137C286.5 131.5 287 122.5 288.5 116C289.543 111.48 290.5 108 293 104.5C295.5 101 303.011 98.6184 309.5 99.0001C318 99.5001 320.831 101.166 325.5 103.5C327.5 104.5 330.357 110 330 115C329.5 122 329.5 131.5 328.5 139C327.5 146.5 326 152.5 320.5 157Z" fill="#26282E" stroke="black"/>
<path d="M328.014 242.162C332.046 228.304 336.125 214.215 343.772 201.932C351.42 189.697 363.238 179.315 376.957 177.183C395.728 174.217 413.479 187.426 422.332 204.343C431.184 221.259 433.131 241.282 434.846 260.701L328.014 242.162Z" fill="#9C5F5E"/>
<path d="M392.941 184.836V172.183H401.978C407.262 172.183 411.526 167.919 411.526 162.635V153.319C412.916 152.531 414.353 151.697 415.419 150.492C416.485 149.287 417.088 147.572 416.624 146.043C416.161 144.513 414.77 143.54 413.565 142.52C408.977 138.812 405.501 133.76 403.693 128.152C400.82 121.386 393.126 118.095 386.22 120.598L380.936 122.544C374.633 124.862 370.879 131.35 372.084 137.978C372.084 137.978 370.786 145.672 369.164 146.228C367.542 146.784 366.337 148.36 366.244 150.075C366.152 151.604 366.939 153.087 368.098 154.107C369.257 155.127 370.694 155.729 372.177 156.054L367.078 184.836C376.209 191.973 385.757 193.642 390.252 189.795C391.133 189.007 392.338 187.57 392.941 184.836Z" fill="#E7B9B4"/>
<path d="M403.969 128.008C405.082 131.252 406.658 134.265 408.743 136.953C410.69 139.502 413.146 141.31 415.417 143.488C419.496 147.474 415.51 151.506 411.756 153.638C411.663 153.36 411.617 153.082 411.524 152.804C411.756 152.804 411.988 153.036 411.988 153.268C411.988 158.505 413.193 165.318 409.299 169.489C405.221 173.846 398.361 172.687 392.939 172.734C393.124 172.548 393.31 172.363 393.495 172.177C393.495 176.395 393.495 180.613 393.495 184.83C393.495 185.572 392.336 185.572 392.336 184.83C392.336 180.613 392.336 176.395 392.336 172.177C392.336 171.853 392.614 171.621 392.892 171.621C397.898 171.668 404.757 172.919 408.558 168.84C410.875 166.338 411.014 163.371 411.014 160.173C411.014 158.737 411.014 157.254 411.014 155.817C411.014 155.261 410.922 154.658 411.014 154.102C411.153 153.082 410.69 153.777 411.478 153.777C411.014 153.777 410.829 153.129 411.246 152.943C414.12 151.321 418.245 148.308 415.232 144.647C413.749 142.839 411.571 141.542 409.995 139.78C406.936 136.443 404.711 132.504 403.321 128.24C403.228 127.776 403.83 127.637 403.969 128.008Z" fill="#26282E"/>
<path d="M373.757 147.486C372.644 146.188 370.744 145.632 369.122 146.142C367.5 146.651 366.295 148.274 366.202 149.989C366.109 151.518 366.897 153.001 368.056 154.021C369.168 155.04 370.652 155.643 372.135 155.967L367.036 184.749" fill="#E7B9B4"/>
<path d="M373.437 147.804C370.934 145.255 366.438 146.738 366.763 150.585C366.994 153.459 369.775 154.849 372.232 155.498C372.51 155.591 372.649 155.869 372.602 156.147C370.934 165.741 369.08 175.335 367.411 184.929C367.319 185.439 366.531 185.207 366.623 184.697C368.292 175.242 369.914 165.463 371.583 155.869C371.722 156.1 371.814 156.286 371.953 156.518C368.477 155.637 364.399 152.671 365.975 148.592C367.272 145.116 371.629 144.653 374.039 147.202C374.503 147.619 373.854 148.268 373.437 147.804Z" fill="#26282E"/>
<path d="M403.839 142.191C403.468 140.337 401.058 139.735 399.482 139.874C397.814 140.059 396.701 140.986 395.728 142.33C395.404 142.794 394.708 142.376 394.986 141.867C396.006 139.874 398.231 138.715 400.455 138.993C402.078 139.178 404.349 140.244 404.349 142.098C404.349 142.376 403.932 142.423 403.839 142.191Z" fill="#26282E"/>
<path d="M407.65 121.675C403.365 118.023 398.334 119.012 396.354 119.962C394.34 121.112 390.277 138.349 389.004 145.67C387.413 154.823 385.771 169.522 389.026 172.475C392.281 175.428 403.327 173.747 407.846 170.489C412.364 167.23 416.576 159.038 417.949 148.384C419.701 134.781 413.006 126.24 407.65 121.675Z" fill="#26282E" stroke="black"/>
<path d="M406.078 112.153C409.316 115.144 413.82 124.953 412.997 126.429C412.01 126.922 406.674 117.086 395.704 129.383C391.751 133.814 390.269 143.168 389.281 150.552C387.96 160.421 389.281 163.352 389.281 163.352L390.763 192.951C390.763 192.951 374.458 197.382 366.058 188.028C364.576 182.613 366.058 177.136 366.058 174.182C367.046 171.721 364.378 167.979 363.588 164.829C361.117 159.906 359.897 156.796 357.659 152.521C350.698 139.229 350.5 133.5 352.5 125C354.469 116.634 358.647 112.645 364.576 108.215C370.505 103.784 380.387 102.307 387.798 103.292C395.21 104.276 400.5 107 406.078 112.153Z" fill="#9C5F5E"/>
<path d="M300.303 122.754C300.135 123.207 300.693 123.613 300.568 124.169C300.442 124.726 300.125 124.785 300.146 125.435C300.164 125.981 299.982 126.514 299.987 126.843C299.988 126.907 299.996 126.962 300.013 127.009C300.119 127.302 299.731 127.304 299.786 127.72C299.842 128.133 299.773 128.377 299.622 128.723C299.47 129.069 299.284 130.155 299.411 130.565C299.537 130.972 299.237 131.408 299.152 131.677C299.125 131.76 299.092 131.826 299.06 131.875C299.046 131.895 299.02 131.903 298.996 131.901C298.995 131.901 298.995 131.901 298.995 131.901C298.965 131.898 298.936 131.88 298.935 131.852C298.928 131.715 298.894 131.51 298.8 131.263C298.624 130.803 298.857 130.771 298.793 130.159C298.729 129.551 298.542 129.171 298.732 128.472C298.911 127.812 298.418 127.595 298.7 126.747C298.716 126.698 298.736 126.646 298.758 126.591C299.161 125.612 298.565 125.466 298.561 124.459C298.556 123.457 298.985 122.221 299.003 121.619C299.022 121.016 299.013 120.204 299.158 119.357C299.303 118.51 299.183 117.444 299.398 116.514C299.612 115.585 299.894 114.268 300.062 113.663C300.229 113.058 300.268 112.91 300.24 112.314C300.224 111.97 300.3 111.505 300.486 111.122C300.579 110.929 300.684 110.982 300.721 111.187C300.775 111.485 300.705 111.722 300.83 111.883C301.078 112.206 301.172 112.342 300.985 112.711C300.797 113.08 301.143 113.286 301.084 113.505C301.026 113.724 300.814 113.704 300.891 114.845C300.967 115.986 300.961 116.608 300.967 117.039C300.974 117.469 300.721 118.348 300.734 119.049C300.747 119.751 300.577 121.163 300.643 121.742C300.708 122.321 300.47 122.304 300.303 122.754Z" fill="#FFFFFE"/>
<path d="M310.462 132.261C310.889 132.437 311.301 131.888 311.831 132.024C312.36 132.161 312.413 132.479 313.037 132.471C313.663 132.463 314.261 132.736 314.548 132.636C314.805 132.546 314.828 132.847 315.111 132.877C315.146 132.881 315.184 132.881 315.227 132.876C315.626 132.828 315.855 132.901 316.186 133.059C316.518 133.218 317.557 133.422 317.949 133.294C318.099 133.245 318.252 133.259 318.393 133.295C318.522 133.335 318.715 133.372 318.679 133.428C318.675 133.472 318.72 133.474 318.727 133.422C318.739 133.361 318.743 133.288 318.755 133.234C318.76 133.211 318.781 133.194 318.804 133.186C318.804 133.186 318.804 133.186 318.804 133.186C318.834 133.176 318.867 133.181 318.879 133.206C318.901 133.251 318.931 133.303 318.96 133.378C318.986 133.442 319.03 133.597 318.902 133.732C318.808 133.823 318.72 133.845 318.652 133.88C318.166 134.093 318.147 133.846 317.553 133.91C316.964 133.967 316.59 134.146 315.923 133.944C315.539 133.828 315.309 133.963 314.999 134.019C314.778 134.062 314.506 134.06 314.113 133.881C313.183 133.46 313.024 134.052 312.056 134.036C311.091 134.021 309.915 133.567 309.335 133.536C308.755 133.506 307.972 133.498 307.161 133.336C306.35 133.173 305.322 133.272 304.432 133.038C303.542 132.805 302.284 132.497 301.706 132.317C301.128 132.137 300.987 132.095 300.412 132.111C300.081 132.12 299.636 132.035 299.272 131.841C299.088 131.744 299.143 131.64 299.34 131.607C299.629 131.56 299.855 131.634 300.014 131.513C300.331 131.271 300.465 131.18 300.814 131.375C301.164 131.57 301.373 131.228 301.582 131.291C301.791 131.354 301.766 131.565 302.866 131.512C303.967 131.459 304.565 131.478 304.979 131.48C305.394 131.483 306.232 131.753 306.908 131.754C307.584 131.756 308.937 131.954 309.496 131.9C310.053 131.847 310.032 132.084 310.462 132.261Z" fill="#FFFFFE"/>
<path d="M311.836 111.076C312.27 111.22 312.628 110.641 313.16 110.74C313.69 110.838 313.763 111.152 314.375 111.103C314.634 111.083 314.898 111.114 315.128 111.148C315.446 111.195 315.708 111.246 315.871 111.18C316.15 111.066 316.16 111.454 316.551 111.391C316.945 111.328 317.175 111.395 317.507 111.548C317.842 111.699 318.851 111.908 319.285 111.888C319.349 111.882 319.413 111.888 319.472 111.9C319.743 111.953 319.992 112.201 320.125 112.348C320.16 112.383 320.197 112.413 320.234 112.436C320.301 112.478 320.356 112.521 320.397 112.566C320.415 112.586 320.414 112.614 320.403 112.635C320.403 112.635 320.403 112.636 320.403 112.636C320.388 112.663 320.367 112.686 320.343 112.682C320.266 112.668 320.15 112.667 319.999 112.657C319.918 112.651 319.837 112.646 319.754 112.651C319.498 112.669 319.409 112.614 319.264 112.541C319.16 112.49 319.036 112.436 318.806 112.437C318.255 112.445 317.903 112.629 317.261 112.437C316.608 112.251 316.426 112.819 315.506 112.446C315.339 112.381 315.207 112.346 315.079 112.333C314.51 112.275 314.29 112.689 313.517 112.731C312.577 112.782 311.397 112.419 310.83 112.434C310.262 112.449 309.496 112.503 308.694 112.407C307.891 112.312 306.894 112.495 306.007 112.338C305.121 112.18 303.866 111.98 303.288 111.85C302.709 111.72 302.568 111.691 302.008 111.756C301.686 111.793 301.244 111.746 300.872 111.585C300.685 111.504 300.729 111.395 300.92 111.346C301.198 111.274 301.424 111.328 301.569 111.194C301.859 110.926 301.982 110.823 302.339 110.988C302.697 111.152 302.872 110.794 303.081 110.839C303.29 110.884 303.284 111.096 304.353 110.95C305.424 110.803 306.01 110.771 306.414 110.739C306.82 110.707 307.661 110.906 308.321 110.852C308.982 110.798 310.321 110.887 310.864 110.79C311.407 110.694 311.403 110.932 311.836 111.076Z" fill="#FFFFFE"/>
<path d="M320.41 124.449C320.233 124.897 320.782 125.318 320.641 125.872C320.5 126.425 320.181 126.476 320.181 127.125C320.181 127.774 319.896 128.39 319.99 128.69C320.085 128.99 319.697 128.975 319.736 129.391C319.774 129.805 319.695 130.044 319.529 130.383C319.362 130.723 319.127 131.793 319.235 132.209C319.342 132.622 319.024 133.039 318.931 133.303C318.902 133.385 318.867 133.45 318.834 133.496C318.819 133.516 318.794 133.523 318.769 133.52C318.769 133.52 318.769 133.52 318.769 133.52C318.738 133.517 318.71 133.499 318.709 133.471C318.705 133.336 318.678 133.125 318.594 132.877C318.438 132.408 318.672 132.389 318.636 131.777C318.6 131.165 318.43 130.783 318.65 130.094C318.87 129.408 318.314 129.18 318.753 128.225C319.191 127.27 318.601 127.098 318.627 126.103C318.652 125.108 319.105 123.897 319.128 123.299C319.135 123.131 319.139 122.945 319.145 122.75C319.16 122.245 319.186 121.659 319.288 121.056C319.431 120.215 319.301 119.156 319.503 118.23C319.705 117.304 319.961 115.989 320.115 115.383C320.269 114.777 320.305 114.629 320.263 114.035C320.239 113.694 320.304 113.229 320.48 112.842C320.569 112.648 320.676 112.699 320.717 112.901C320.778 113.198 320.714 113.435 320.842 113.593C321.098 113.909 321.196 114.042 321.017 114.414C320.838 114.785 321.188 114.984 321.134 115.204C321.08 115.423 320.869 115.407 320.968 116.544C321.066 117.682 321.067 118.303 321.079 118.733C321.091 119.163 320.847 120.044 320.863 120.744C320.875 121.274 320.781 122.206 320.759 122.881C320.751 123.101 320.751 123.296 320.766 123.438C320.824 124.021 320.586 124.001 320.41 124.449Z" fill="#FFFFFE"/>
<path d="M201.228 128.616C205.88 125.361 210.87 126.688 212.784 127.758C214.714 129.025 217.275 146.138 217.906 153.375C218.694 162.42 219.037 176.883 215.488 179.53C211.938 182.177 200.938 179.741 196.667 176.236C192.397 172.73 188.878 164.433 188.444 153.937C187.891 140.537 195.413 132.685 201.228 128.616Z" fill="#26282E" stroke="black"/>
<path d="M200.5 120.5C197.458 123.777 192.666 133.5 193.499 135C194.498 135.5 199.898 125.511 210.999 138C214.999 142.5 216.499 152 217.499 159.5C218.835 169.523 217.499 172.5 217.499 172.5L215.999 198.5C215.999 198.5 232.499 203 240.999 193.5C242.499 188 240.999 186.5 240.999 183.5C239.999 181 242.699 177.2 243.499 174C245.999 169 247.234 165.842 249.499 161.5C256.542 148 256.499 145.5 254.999 135C253.766 126.368 248.499 121 242.499 116.5C236.499 112 226.499 110.5 218.999 111.5C211.499 112.5 206.999 113.5 200.5 120.5Z" fill="#9C5F5E"/>
<path d="M190.374 147.583C190.199 147.759 190.363 148.068 190.183 148.302C190.004 148.537 189.847 148.499 189.713 148.808C189.58 149.117 189.323 149.357 189.306 149.518C189.289 149.679 189.112 149.598 189.046 149.804C188.98 150.009 188.895 150.109 188.749 150.239C188.604 150.37 188.279 150.839 188.245 151.058C188.211 151.276 187.978 151.416 187.881 151.524C187.851 151.557 187.822 151.581 187.797 151.597C187.786 151.604 187.772 151.603 187.762 151.597C187.762 151.597 187.762 151.597 187.762 151.597C187.748 151.589 187.739 151.575 187.744 151.561C187.771 151.495 187.801 151.391 187.813 151.255C187.836 151.002 187.948 151.036 188.055 150.737C188.162 150.438 188.161 150.221 188.401 149.934C188.642 149.647 188.431 149.431 188.829 149.058C189.227 148.685 188.99 148.489 189.208 148.017C189.427 147.546 189.893 147.057 190.034 146.778C190.175 146.499 190.35 146.115 190.601 145.749C190.853 145.382 191.033 144.856 191.335 144.465C191.636 144.073 192.053 143.515 192.262 143.266C192.471 143.017 192.521 142.955 192.639 142.669C192.707 142.505 192.844 142.303 193.013 142.161C193.097 142.09 193.133 142.138 193.105 142.241C193.064 142.393 192.981 142.489 193.002 142.591C193.044 142.794 193.057 142.878 192.89 143.012C192.724 143.146 192.836 143.315 192.761 143.406C192.687 143.496 192.595 143.442 192.379 143.994C192.163 144.546 192.024 144.836 191.932 145.04C191.841 145.243 191.533 145.602 191.385 145.934C191.236 146.266 190.849 146.893 190.751 147.179C190.654 147.464 190.55 147.406 190.374 147.583Z" fill="#FFFFFE"/>
<path d="M195.881 152.058C195.894 152.478 196.244 152.748 196.293 153.256C196.339 153.765 196.199 153.866 196.324 154.437C196.337 154.497 196.348 154.56 196.358 154.62C196.358 154.623 196.359 154.631 196.36 154.634C196.42 155.146 196.389 155.638 196.47 155.861C196.559 156.11 196.369 156.157 196.45 156.516C196.531 156.875 196.53 157.097 196.504 157.421C196.475 157.745 196.547 158.727 196.68 159.067C196.708 159.142 196.727 159.221 196.74 159.302C196.788 159.579 196.763 159.877 196.773 160.073C196.776 160.151 196.774 160.215 196.754 160.269C196.745 160.293 196.723 160.3 196.715 160.29C196.715 160.29 196.715 160.29 196.715 160.29C196.704 160.278 196.693 160.273 196.692 160.253C196.683 160.145 196.614 159.967 196.519 159.768C196.433 159.59 196.413 159.481 196.4 159.359C196.387 159.221 196.382 159.073 196.314 158.794C196.186 158.264 196.039 157.951 196.035 157.308C196.033 156.666 195.73 156.549 195.803 155.637C195.839 155.184 195.78 154.941 195.696 154.702L195.698 154.716C195.602 154.482 195.48 154.252 195.385 153.815C195.198 152.947 195.144 151.81 195.022 151.286C194.908 150.792 194.739 150.145 194.613 149.442C194.605 149.397 194.597 149.353 194.589 149.308C194.463 148.553 194.152 147.656 194.026 146.819C193.901 145.981 193.707 144.799 193.635 144.249C193.562 143.698 193.543 143.564 193.381 143.057C193.288 142.765 193.207 142.352 193.197 141.988C193.193 141.805 193.255 141.831 193.324 142C193.424 142.246 193.45 142.462 193.549 142.578C193.746 142.809 193.824 142.908 193.829 143.26C193.833 143.611 194.047 143.725 194.074 143.924C194.101 144.123 193.998 144.144 194.316 145.111C194.635 146.079 194.783 146.616 194.89 146.986C194.998 147.356 195.091 148.16 195.261 148.765C195.3 148.904 195.344 149.079 195.389 149.27C195.54 149.908 195.707 150.738 195.827 151.118C195.983 151.612 195.866 151.637 195.881 152.058Z" fill="#FFFFFE"/>
<path d="M191.41 159.263C191.228 159.142 190.989 159.379 190.756 159.269C190.526 159.16 190.529 159.002 190.25 158.953C190.247 158.953 190.243 158.952 190.24 158.952C189.949 158.905 189.699 158.721 189.557 158.747C189.414 158.772 189.456 158.583 189.267 158.573C189.077 158.563 188.978 158.508 188.841 158.404C188.72 158.312 188.344 158.153 188.13 158.152C188.102 158.152 188.077 158.154 188.055 158.159C187.877 158.202 187.667 158.037 187.564 157.941C187.531 157.913 187.511 157.883 187.499 157.858C187.494 157.847 187.498 157.834 187.505 157.824C187.505 157.824 187.505 157.824 187.505 157.824C187.514 157.812 187.529 157.804 187.54 157.809C187.593 157.835 187.681 157.852 187.789 157.821C187.966 157.769 187.993 157.845 188.191 157.871C188.217 157.874 188.248 157.877 188.282 157.879C188.567 157.893 188.755 157.837 189.045 157.991C189.335 158.146 189.486 157.889 189.875 158.172C190.122 158.351 190.262 158.305 190.447 158.27C190.552 158.249 190.675 158.231 190.838 158.263C191.283 158.349 191.783 158.666 192.049 158.728C192.314 158.789 192.674 158.856 193.034 159C193.393 159.144 193.879 159.178 194.268 159.364C194.657 159.549 195.211 159.801 195.462 159.935C195.713 160.07 195.774 160.101 196.041 160.139C196.195 160.161 196.393 160.239 196.544 160.363C196.62 160.425 196.585 160.472 196.491 160.472C196.353 160.473 196.255 160.418 196.171 160.465C196.002 160.559 195.932 160.593 195.788 160.469C195.644 160.346 195.517 160.497 195.426 160.449C195.335 160.402 195.366 160.3 194.852 160.238C194.339 160.177 194.064 160.12 193.873 160.086C193.681 160.051 193.319 159.852 193.007 159.797C192.694 159.742 192.087 159.537 191.824 159.518C191.56 159.499 191.593 159.385 191.41 159.263Z" fill="#FFFFFE"/>
<path d="M205.144 165.579C205.764 165.602 206.222 165.272 206.968 165.242C207.01 165.24 207.051 165.239 207.089 165.238C207.732 165.224 207.892 165.345 208.693 165.215C209.54 165.077 210.406 165.061 210.776 164.942C211.145 164.823 211.214 165.009 211.745 164.884C212.277 164.759 212.606 164.731 213.086 164.717C213.566 164.704 215.019 164.512 215.53 164.344C216.042 164.178 216.663 164.205 217.028 164.174C217.142 164.164 217.233 164.162 217.303 164.164C217.333 164.165 217.348 164.175 217.35 164.187C217.35 164.187 217.35 164.187 217.35 164.187C217.353 164.202 217.335 164.22 217.298 164.229C217.121 164.269 216.858 164.341 216.552 164.451C215.982 164.656 215.898 164.554 215.112 164.744C214.325 164.933 213.865 165.12 212.915 165.204C211.966 165.285 211.794 165.608 210.44 165.638C209.087 165.659 208.988 165.979 207.654 166.167C207.503 166.188 207.346 166.206 207.186 166.221C205.942 166.345 204.523 166.304 203.807 166.349C203 166.402 201.913 166.474 200.765 166.438C200.158 166.419 199.472 166.431 198.775 166.42C198.154 166.41 197.523 166.382 196.928 166.3C196.062 166.186 194.964 165.974 194.109 165.785C193.711 165.7 193.362 165.622 193.108 165.562C192.305 165.373 192.109 165.328 191.321 165.238C190.869 165.186 190.253 165.066 189.743 164.905C189.486 164.823 189.554 164.779 189.823 164.796C190.217 164.822 190.53 164.898 190.741 164.863C191.161 164.793 191.339 164.769 191.829 164.928C192.32 165.088 192.586 164.948 192.876 165.015C193.132 165.074 193.145 165.164 194.186 165.289C194.322 165.306 194.475 165.322 194.648 165.339C196.146 165.488 196.956 165.519 197.522 165.538C197.819 165.547 198.288 165.593 198.801 165.626C199.26 165.656 199.758 165.677 200.195 165.663C201.122 165.643 203.008 165.626 203.763 165.528C204.519 165.435 204.527 165.553 205.144 165.579Z" fill="#FFFFFE" fill-opacity="0.6"/>
<path d="M310.032 140.319C310.915 140.43 311.623 140.166 312.698 140.233C313.774 140.296 313.936 140.456 315.172 140.415C315.643 140.398 316.115 140.397 316.549 140.395C317.251 140.393 317.854 140.39 318.192 140.332C318.737 140.239 318.807 140.43 319.585 140.334C320.362 140.236 320.836 140.222 321.524 140.224C322.213 140.23 324.315 140.065 325.067 139.899C325.82 139.737 326.704 139.768 327.23 139.738C327.394 139.729 327.523 139.727 327.623 139.73C327.665 139.731 327.686 139.741 327.688 139.753C327.688 139.753 327.688 139.753 327.688 139.753C327.689 139.769 327.661 139.787 327.608 139.795C327.35 139.835 326.965 139.906 326.513 140.015C325.671 140.217 325.564 140.115 324.416 140.296C323.266 140.474 322.581 140.655 321.21 140.706C319.841 140.749 319.546 141.072 317.601 141.002C317.188 140.985 316.854 140.982 316.565 140.991C315.5 141.017 315.052 141.221 313.529 141.238C311.593 141.259 309.165 140.96 308.007 140.885C307.525 140.856 306.974 140.822 306.379 140.775C305.537 140.709 304.604 140.617 303.646 140.461C302.276 140.242 300.64 139.986 299.112 139.636C298.815 139.568 298.522 139.496 298.234 139.421C296.476 138.963 293.997 138.298 292.858 137.971C291.718 137.644 291.44 137.565 290.322 137.341C289.679 137.212 288.805 136.987 288.081 136.737C287.716 136.611 287.813 136.578 288.195 136.64C288.754 136.732 289.199 136.863 289.498 136.863C290.095 136.863 290.348 136.868 291.044 137.113C291.741 137.357 292.118 137.26 292.53 137.377C292.942 137.494 292.911 137.598 295.049 138.006C297.186 138.412 298.354 138.647 299.162 138.802C299.202 138.81 299.243 138.818 299.286 138.827C300.132 139 301.692 139.412 302.947 139.575C303.805 139.694 305.241 139.872 306.451 139.967C307.098 140.021 307.677 140.056 308.06 140.065C309.156 140.087 309.151 140.204 310.032 140.319Z" fill="#FFFFFE" fill-opacity="0.6"/>
<path d="M407.214 154.69C408.432 155.265 409.607 155.365 411.16 155.502C411.43 155.517 411.653 155.511 411.844 155.492C412.957 155.361 413.464 155.577 414.969 155.28C415.511 155.149 416.013 154.929 416.45 154.632C417.452 153.953 418.079 153.002 418.287 152.476C418.469 152.001 418.594 151.81 418.69 151.467C418.745 151.224 418.808 150.924 418.863 150.462C418.978 149.484 419.078 148.82 419.215 148.05C419.249 147.854 419.286 147.651 419.326 147.435C419.559 146.384 419.828 143.046 419.392 141.903C419.358 141.785 419.323 141.665 419.287 141.546C418.957 140.481 418.813 139.299 418.599 138.593C418.526 138.348 418.461 138.157 418.409 138.01C418.387 137.948 418.385 137.915 418.396 137.91C418.396 137.91 418.396 137.91 418.396 137.91C418.41 137.903 418.444 137.939 418.481 138.017C418.665 138.389 418.874 138.974 419.106 139.667C419.383 140.486 419.451 140.851 419.605 141.458C419.694 141.816 419.789 142.26 419.872 142.933C420.061 144.778 420.037 145.915 419.705 148.047C419.702 148.069 419.698 148.09 419.695 148.111C419.469 149.555 419.466 150.274 419.312 151.545C419.226 152.206 418.921 152.882 418.334 153.642C417.772 154.348 417.261 154.79 416.795 155.131C415.614 155.984 414.604 156.181 412.529 156.366C412.354 156.388 412.179 156.413 412.003 156.443C410.071 156.663 408.336 156.015 406.741 155.274C406.011 154.83 405.338 154.263 404.971 153.645C404.813 153.387 404.698 153.154 404.596 152.949C403.995 151.719 403.417 150.129 402.996 148.343C402.843 147.684 402.686 146.989 402.635 146.249C402.582 145.531 402.641 144.746 402.831 143.983C403.141 142.741 403.606 141.5 404.14 140.298C404.508 139.478 404.898 138.671 405.327 137.914C405.55 137.522 405.796 137.108 406.087 136.693C407.009 135.347 408.366 133.965 409.856 133.416C410.764 133.053 411.639 132.796 412.3 132.842C412.428 132.849 412.548 132.863 412.662 132.883C414.239 133.304 414.69 133.598 416.049 134.614C416.871 135.266 417.779 136.427 418.258 137.541C418.495 138.101 418.389 137.995 418.085 137.473C417.633 136.715 417.209 136.123 416.864 135.823C416.162 135.241 415.877 135.014 415.005 134.309C414.1 133.633 413.507 133.62 412.919 133.436C412.793 133.401 412.696 133.373 412.595 133.349C412.263 133.299 411.803 133.097 410.053 133.884C409.811 133.99 409.552 134.126 409.28 134.303C407.964 135.178 407.251 136.257 406.692 137.099C406.121 138.01 405.775 138.767 405.49 139.366C405.334 139.699 405.125 140.135 404.892 140.636C404.424 141.644 403.873 142.941 403.567 144.166C403.5 144.439 403.452 144.709 403.425 144.97C403.318 145.778 403.471 146.927 403.785 148.155C404.198 149.921 404.863 151.709 405.332 152.583C405.465 152.836 405.581 153.043 405.679 153.197C406.167 153.878 406.298 154.052 407.122 154.636C407.135 154.646 407.18 154.672 407.214 154.69Z" fill="#FFFFFE"/>
<path d="M400.488 158.916C399.956 158.665 399.425 158.793 398.766 158.519C398.106 158.244 398.059 158.062 397.278 157.821C396.498 157.58 395.767 157.199 395.404 157.134C395.042 157.068 395.074 156.874 394.575 156.733C394.17 156.619 393.907 156.508 393.612 156.353C393.54 156.316 393.468 156.277 393.394 156.235C392.993 156.016 391.732 155.447 391.242 155.297C390.747 155.156 390.286 154.757 390.032 154.511C389.952 154.436 389.896 154.37 389.856 154.317C389.839 154.295 389.837 154.277 389.845 154.268C389.845 154.268 389.845 154.268 389.845 154.268C389.855 154.256 389.88 154.257 389.908 154.279C390.043 154.384 390.257 154.522 390.541 154.623C391.072 154.802 391.074 154.928 391.789 155.189C392.505 155.441 392.967 155.51 393.776 155.897C393.779 155.899 393.782 155.9 393.785 155.902C394.587 156.279 394.883 156.086 396.008 156.673C397.14 157.259 397.368 157.019 398.568 157.4C399.768 157.781 401.218 158.452 401.943 158.678C402.668 158.905 403.644 159.189 404.659 159.546C404.933 159.642 405.233 159.734 405.539 159.821L405.515 159.814C406.356 159.995 407.275 160.141 408.112 160.335C409.26 160.612 410.912 160.883 411.681 160.995C412.448 161.111 412.638 161.134 413.385 161.133C413.815 161.132 414.406 161.175 414.902 161.273C415.152 161.322 415.093 161.374 414.839 161.39C414.467 161.414 414.164 161.376 413.97 161.437C413.583 161.557 413.418 161.603 412.939 161.499C412.461 161.394 412.222 161.559 411.942 161.519C411.661 161.474 411.674 161.388 410.236 161.321C408.797 161.24 408.012 161.113 407.473 161.038C407.009 160.972 406.136 160.733 405.347 160.554C405.342 160.553 405.328 160.549 405.323 160.548C405.199 160.512 405.068 160.475 404.948 160.443C404.09 160.222 402.39 159.638 401.687 159.459C400.983 159.281 401.02 159.167 400.488 158.916Z" fill="#FFFFFE" fill-opacity="0.6"/>
</g>
<defs>
<clipPath id="clip0_16005_3031">
<rect width="600" height="200" fill="white"/>
</clipPath>
</defs>
</svg>
