<svg width="960" height="540" viewBox="0 0 960 540" fill="none" xmlns="http://www.w3.org/2000/svg">
<rect width="960" height="540" fill="#F1EBDD"/>
<rect x="640" y="50" width="13" height="13" transform="rotate(-45 640 50)" fill="#BC5A37" fill-opacity="0.9"/>
<rect x="905" y="200" width="11" height="11" fill="#6BAE93" fill-opacity="0.9"/>
<rect x="500" y="120" width="10" height="10" transform="rotate(-45 500 120)" fill="#7C99B4" fill-opacity="0.9"/>
<rect x="60" y="470" width="11" height="11" transform="rotate(-45 60 470)" fill="#DDBA62" fill-opacity="0.9"/>
<rect x="30" y="60" width="11" height="11" fill="#DDBA62" fill-opacity="0.9"/>
<rect x="350" y="40" width="9" height="9" transform="rotate(-45 350 40)" fill="#6BAE93" fill-opacity="0.9"/>
<rect x="930" y="430" width="10" height="10" transform="rotate(-45 930 430)" fill="#7C99B4" fill-opacity="0.9"/>
<rect x="770" y="30" width="9" height="9" fill="#7C99B4" fill-opacity="0.9"/>
<rect x="210" y="30" width="8" height="8" fill="#BC5A37" fill-opacity="0.9"/>
<path d="M131.595 131.725L131.45 134.486C131.086 141.446 129.508 147.371 126.717 152.263C123.927 157.124 120.214 160.794 115.578 163.273C110.973 165.755 105.769 166.843 99.964 166.539C94.1283 166.233 89.0346 164.605 84.6831 161.654C80.3316 158.704 77.0071 154.665 74.7098 149.538C72.4454 144.381 71.4955 138.323 71.8602 131.364L72.0049 128.602C72.3697 121.642 73.9476 115.717 76.7387 110.825C79.5298 105.933 83.2278 102.247 87.8327 99.7655C92.4688 97.286 97.7047 96.1992 103.54 96.505C109.345 96.8092 114.423 98.4366 118.775 101.387C123.126 104.338 126.434 108.391 128.699 113.548C130.994 118.707 131.96 124.765 131.595 131.725ZM114.786 133.613L114.935 130.758C115.171 126.264 114.854 122.461 113.984 119.349C113.116 116.205 111.74 113.802 109.856 112.138C108.005 110.445 105.674 109.525 102.866 109.378C99.9636 109.226 97.5033 109.895 95.485 111.385C93.4684 112.844 91.8954 115.093 90.7661 118.132C89.6384 121.139 88.9568 124.89 88.7213 129.384L88.5716 132.239C88.3394 136.671 88.6252 140.472 89.4291 143.644C90.2658 146.785 91.6091 149.218 93.4589 150.943C95.3415 152.637 97.734 153.561 100.636 153.713C103.445 153.86 105.858 153.188 107.877 151.698C109.896 150.177 111.487 147.898 112.647 144.86C113.841 141.794 114.553 138.045 114.786 133.613ZM166.666 145.908L149.721 145.02L150.386 132.334L167.331 133.222C169.641 133.343 171.533 133.051 173.01 132.346C174.486 131.641 175.588 130.619 176.315 129.281C177.076 127.912 177.502 126.354 177.593 124.607C177.691 122.734 177.439 120.984 176.836 119.357C176.264 117.731 175.285 116.396 173.9 115.354C172.517 114.28 170.671 113.683 168.362 113.561L157.595 112.997L154.688 168.468L138.257 167.607L141.829 99.4504L169.026 100.876C174.488 101.162 179.132 102.407 182.959 104.61C186.818 106.815 189.717 109.721 191.656 113.327C193.596 116.902 194.45 120.921 194.216 125.384C193.985 129.784 192.723 133.567 190.429 136.733C188.135 139.898 184.959 142.298 180.899 143.931C176.872 145.535 172.128 146.194 166.666 145.908ZM248.27 160.699L247.607 173.338L211.282 171.434L211.945 158.795L248.27 160.699ZM220.706 103.584L217.134 171.741L200.703 170.88L204.275 102.723L220.706 103.584ZM245.08 131.993L244.44 144.21L212.796 142.552L213.436 130.334L245.08 131.993ZM251.32 105.189L250.655 117.874L214.189 115.963L214.854 103.277L251.32 105.189ZM314.842 108.518L311.27 176.674L294.886 175.815L273.001 132.141L270.779 174.552L254.348 173.691L257.92 105.534L274.351 106.396L296.236 150.07L298.458 107.659L314.842 108.518Z" fill="#26282E"/>
<path d="M75.639 191.982L102.462 193.387C107.704 193.662 112.22 194.681 116.008 196.444C119.796 198.207 122.655 200.673 124.585 203.841C126.547 207.01 127.41 210.842 127.175 215.336C126.97 219.237 126.191 222.466 124.837 225.023C123.482 227.581 121.668 229.661 119.393 231.263C117.152 232.835 114.567 234.092 111.638 235.034L106.096 237.795L83.5796 236.615L84.1508 223.924L100.815 224.797C102.906 224.907 104.658 224.623 106.07 223.946C107.483 223.269 108.568 222.262 109.327 220.925C110.118 219.558 110.564 217.907 110.666 215.973C110.82 213.039 110.144 210.704 108.639 208.966C107.136 207.198 104.855 206.233 101.797 206.073L91.4047 205.528L88.4976 260.999L72.0671 260.138L75.639 191.982ZM109.375 262.093L95.8821 231.157L113.301 231.976L127.013 262.314L126.976 263.016L109.375 262.093ZM182.173 253.235L181.511 265.874L145.185 263.97L145.848 251.331L182.173 253.235ZM154.609 196.12L151.037 264.277L134.606 263.416L138.178 195.259L154.609 196.12ZM178.983 224.529L178.343 236.746L146.699 235.088L147.339 222.87L178.983 224.529ZM185.223 197.725L184.558 210.41L148.093 208.499L148.757 195.814L185.223 197.725ZM224.309 249.951C224.384 248.516 224.153 247.252 223.616 246.16C223.078 245.068 221.977 243.993 220.311 242.935C218.647 241.847 216.144 240.652 212.801 239.35C208.877 237.799 205.183 236.025 201.721 234.028C198.291 232.002 195.54 229.558 193.468 226.696C191.427 223.835 190.514 220.361 190.729 216.273C190.933 212.372 192.25 209.045 194.678 206.294C197.107 203.542 200.328 201.489 204.342 200.135C208.387 198.782 212.922 198.237 217.946 198.501C222.939 198.762 227.294 199.867 231.009 201.814C234.758 203.732 237.625 206.338 239.612 209.634C241.631 212.901 242.528 216.687 242.302 220.994L225.965 220.138C226.055 218.421 225.776 216.889 225.127 215.541C224.509 214.194 223.517 213.109 222.152 212.287C220.787 211.464 219.043 210.997 216.921 210.886C214.862 210.778 213.113 210.999 211.676 211.55C210.239 212.1 209.134 212.887 208.361 213.911C207.589 214.903 207.17 216.023 207.105 217.272C207.035 218.614 207.471 219.841 208.414 220.955C209.357 222.068 210.742 223.111 212.568 224.082C214.395 225.054 216.581 226.03 219.128 227.008C223.884 228.791 227.895 230.784 231.159 232.99C234.454 235.196 236.918 237.751 238.549 240.652C240.214 243.525 240.945 246.88 240.744 250.719C240.53 254.807 239.302 258.232 237.061 260.993C234.821 263.723 231.774 265.738 227.92 267.039C224.098 268.309 219.644 268.811 214.557 268.544C211.062 268.361 207.636 267.744 204.28 266.691C200.957 265.61 197.971 264.076 195.321 262.091C192.673 260.075 190.598 257.572 189.096 254.583C187.627 251.565 186.998 248.043 187.209 244.017L203.687 244.881C203.582 246.878 203.759 248.577 204.217 249.978C204.676 251.379 205.398 252.527 206.384 253.424C207.371 254.289 208.604 254.949 210.082 255.402C211.562 255.823 213.27 256.085 215.204 256.186C217.295 256.296 218.996 256.088 220.307 255.562C221.619 255.005 222.598 254.242 223.243 253.275C223.89 252.276 224.245 251.168 224.309 249.951ZM276.672 247.673L259.726 246.785L260.391 234.099L277.337 234.987C279.646 235.108 281.539 234.816 283.015 234.111C284.492 233.406 285.593 232.384 286.321 231.046C287.081 229.677 287.507 228.119 287.598 226.372C287.697 224.499 287.444 222.749 286.841 221.122C286.269 219.496 285.291 218.162 283.906 217.119C282.523 216.045 280.676 215.448 278.367 215.327L267.6 214.762L264.693 270.233L248.263 269.372L251.835 201.216L279.032 202.641C284.493 202.927 289.137 204.172 292.965 206.375C296.823 208.58 299.722 211.486 301.661 215.092C303.602 218.668 304.455 222.686 304.221 227.149C303.991 231.549 302.728 235.332 300.434 238.498C298.141 241.663 294.964 244.063 290.904 245.696C286.877 247.3 282.133 247.959 276.672 247.673ZM370.236 240.231L370.092 242.993C369.727 249.952 368.149 255.878 365.358 260.77C362.568 265.63 358.856 269.301 354.219 271.78C349.615 274.261 344.41 275.35 338.605 275.045C332.77 274.74 327.676 273.111 323.324 270.161C318.973 267.21 315.648 263.171 313.351 258.044C311.087 252.887 310.137 246.829 310.501 239.87L310.646 237.108C311.011 230.149 312.589 224.224 315.38 219.332C318.171 214.44 321.869 210.753 326.474 208.272C331.11 205.793 336.346 204.706 342.182 205.012C347.986 205.316 353.064 206.943 357.416 209.894C361.767 212.844 365.075 216.898 367.34 222.055C369.636 227.213 370.601 233.272 370.236 240.231ZM353.427 242.12L353.577 239.264C353.812 234.771 353.495 230.967 352.625 227.855C351.758 224.712 350.381 222.308 348.497 220.645C346.646 218.952 344.316 218.032 341.507 217.885C338.605 217.733 336.145 218.402 334.126 219.892C332.11 221.351 330.537 223.6 329.407 226.638C328.28 229.646 327.598 233.397 327.363 237.891L327.213 240.746C326.981 245.177 327.266 248.979 328.07 252.15C328.907 255.292 330.25 257.725 332.1 259.449C333.983 261.144 336.375 262.067 339.277 262.219C342.086 262.367 344.5 261.695 346.518 260.205C348.538 258.683 350.128 256.404 351.288 253.367C352.482 250.3 353.195 246.551 353.427 242.12ZM437.393 210.94L433.821 279.097L417.437 278.238L395.552 234.564L393.329 276.975L376.899 276.114L380.471 207.957L396.901 208.818L418.786 252.492L421.009 210.082L437.393 210.94ZM480.27 263.365C480.345 261.93 480.114 260.666 479.577 259.574C479.04 258.482 477.938 257.407 476.272 256.35C474.608 255.261 472.105 254.066 468.762 252.764C464.838 251.213 461.145 249.439 457.682 247.443C454.252 245.417 451.501 242.973 449.429 240.11C447.389 237.249 446.476 233.775 446.69 229.687C446.894 225.786 448.211 222.46 450.639 219.708C453.068 216.956 456.289 214.903 460.303 213.549C464.348 212.196 468.883 211.652 473.907 211.915C478.9 212.177 483.255 213.281 486.97 215.228C490.719 217.146 493.586 219.753 495.573 223.049C497.592 226.315 498.489 230.102 498.263 234.408L481.926 233.552C482.016 231.836 481.737 230.303 481.088 228.955C480.47 227.608 479.478 226.524 478.113 225.701C476.748 224.878 475.005 224.412 472.883 224.3C470.823 224.192 469.075 224.414 467.638 224.964C466.2 225.515 465.095 226.302 464.322 227.325C463.55 228.317 463.132 229.438 463.066 230.686C462.996 232.028 463.432 233.256 464.375 234.369C465.318 235.482 466.703 236.525 468.53 237.497C470.356 238.469 472.543 239.444 475.089 240.422C479.846 242.205 483.856 244.199 487.12 246.404C490.416 248.611 492.879 251.165 494.511 254.067C496.175 256.939 496.907 260.294 496.706 264.133C496.491 268.221 495.264 271.646 493.022 274.407C490.782 277.138 487.735 279.153 483.881 280.453C480.059 281.723 475.605 282.225 470.518 281.959C467.023 281.776 463.597 281.158 460.242 280.106C456.919 279.024 453.932 277.491 451.282 275.506C448.634 273.489 446.559 270.987 445.058 267.998C443.588 264.979 442.959 261.457 443.17 257.431L459.648 258.295C459.543 260.292 459.72 261.991 460.179 263.392C460.637 264.793 461.359 265.942 462.345 266.838C463.332 267.704 464.565 268.363 466.043 268.816C467.523 269.238 469.231 269.499 471.166 269.601C473.257 269.71 474.957 269.502 476.268 268.976C477.58 268.419 478.559 267.657 479.204 266.689C479.851 265.69 480.206 264.583 480.27 263.365ZM551.791 272.606L551.128 285.245L514.803 283.341L515.466 270.702L551.791 272.606ZM524.226 215.491L520.655 283.647L504.224 282.786L507.796 214.63L524.226 215.491ZM548.601 243.899L547.961 256.117L516.317 254.459L516.957 242.241L548.601 243.899ZM554.841 217.095L554.176 229.781L517.71 227.87L518.375 215.184L554.841 217.095ZM558.51 276.948C558.641 274.451 559.638 272.438 561.502 270.908C563.366 269.379 565.546 268.68 568.043 268.81C570.539 268.941 572.619 269.864 574.282 271.578C575.975 273.294 576.757 275.4 576.626 277.897C576.497 280.362 575.499 282.375 573.634 283.936C571.801 285.467 569.637 286.168 567.14 286.037C564.581 285.903 562.47 284.978 560.808 283.264C559.147 281.518 558.381 279.413 558.51 276.948ZM563.25 219.648L578.136 220.429L575.103 263.078L561.855 262.384L563.25 219.648Z" fill="#BC5A37"/>
<path d="M81.5234 314.625V326H80.0391V314.625H81.5234ZM85.1797 314.625V315.859H76.3906V314.625H85.1797ZM88.0938 314V326H86.6484V314H88.0938ZM87.75 321.453L87.1484 321.43C87.1589 320.654 87.3073 319.964 87.5938 319.359C87.8802 318.75 88.2786 318.271 88.7891 317.922C89.3047 317.568 89.9036 317.391 90.5859 317.391C91.1432 317.391 91.6224 317.492 92.0234 317.695C92.4297 317.898 92.7422 318.227 92.9609 318.68C93.1849 319.128 93.2969 319.721 93.2969 320.461V326H91.8438V320.445C91.8438 320.003 91.7786 319.648 91.6484 319.383C91.5182 319.112 91.3281 318.917 91.0781 318.797C90.8281 318.672 90.5208 318.609 90.1562 318.609C89.7969 318.609 89.4688 318.685 89.1719 318.836C88.8802 318.987 88.6276 319.195 88.4141 319.461C88.2057 319.727 88.0417 320.031 87.9219 320.375C87.8073 320.714 87.75 321.073 87.75 321.453ZM98.9688 326.156C98.1823 326.156 97.4974 325.982 96.9141 325.633C96.3359 325.284 95.8854 324.802 95.5625 324.188C95.2448 323.568 95.0859 322.862 95.0859 322.07V321.742C95.0859 320.82 95.2604 320.036 95.6094 319.391C95.9635 318.74 96.4219 318.245 96.9844 317.906C97.5521 317.562 98.151 317.391 98.7812 317.391C99.5885 317.391 100.247 317.573 100.758 317.938C101.273 318.297 101.651 318.789 101.891 319.414C102.135 320.034 102.258 320.74 102.258 321.531V322.18H95.9453V321H100.812V320.891C100.792 320.516 100.714 320.151 100.578 319.797C100.448 319.443 100.24 319.151 99.9531 318.922C99.6667 318.693 99.276 318.578 98.7812 318.578C98.3438 318.578 97.9557 318.701 97.6172 318.945C97.2786 319.19 97.013 319.549 96.8203 320.023C96.6328 320.492 96.5391 321.065 96.5391 321.742V322.07C96.5391 322.602 96.638 323.089 96.8359 323.531C97.0339 323.969 97.3203 324.32 97.6953 324.586C98.0703 324.846 98.5208 324.977 99.0469 324.977C99.5573 324.977 99.9896 324.872 100.344 324.664C100.698 324.456 101.008 324.177 101.273 323.828L102.148 324.523C101.878 324.94 101.49 325.318 100.984 325.656C100.479 325.99 99.8073 326.156 98.9688 326.156ZM105.391 318.875V326H103.945V317.547H105.352L105.391 318.875ZM108.031 317.5L108.023 318.844C107.904 318.818 107.789 318.802 107.68 318.797C107.576 318.786 107.456 318.781 107.32 318.781C106.872 318.781 106.497 318.872 106.195 319.055C105.893 319.237 105.656 319.487 105.484 319.805C105.318 320.117 105.214 320.479 105.172 320.891L104.766 321.125C104.766 320.448 104.857 319.828 105.039 319.266C105.221 318.698 105.505 318.245 105.891 317.906C106.281 317.562 106.781 317.391 107.391 317.391C107.495 317.391 107.615 317.404 107.75 317.43C107.885 317.451 107.979 317.474 108.031 317.5ZM112.719 326.156C111.932 326.156 111.247 325.982 110.664 325.633C110.086 325.284 109.635 324.802 109.312 324.188C108.995 323.568 108.836 322.862 108.836 322.07V321.742C108.836 320.82 109.01 320.036 109.359 319.391C109.714 318.74 110.172 318.245 110.734 317.906C111.302 317.562 111.901 317.391 112.531 317.391C113.339 317.391 113.997 317.573 114.508 317.938C115.023 318.297 115.401 318.789 115.641 319.414C115.885 320.034 116.008 320.74 116.008 321.531V322.18H109.695V321H114.562V320.891C114.542 320.516 114.464 320.151 114.328 319.797C114.198 319.443 113.99 319.151 113.703 318.922C113.417 318.693 113.026 318.578 112.531 318.578C112.094 318.578 111.706 318.701 111.367 318.945C111.029 319.19 110.763 319.549 110.57 320.023C110.383 320.492 110.289 321.065 110.289 321.742V322.07C110.289 322.602 110.388 323.089 110.586 323.531C110.784 323.969 111.07 324.32 111.445 324.586C111.82 324.846 112.271 324.977 112.797 324.977C113.307 324.977 113.74 324.872 114.094 324.664C114.448 324.456 114.758 324.177 115.023 323.828L115.898 324.523C115.628 324.94 115.24 325.318 114.734 325.656C114.229 325.99 113.557 326.156 112.719 326.156ZM123.562 317.547V326H122.109V317.547H123.562ZM122 315.305C122 315.07 122.07 314.872 122.211 314.711C122.357 314.549 122.57 314.469 122.852 314.469C123.128 314.469 123.339 314.549 123.484 314.711C123.635 314.872 123.711 315.07 123.711 315.305C123.711 315.529 123.635 315.721 123.484 315.883C123.339 316.039 123.128 316.117 122.852 316.117C122.57 316.117 122.357 316.039 122.211 315.883C122.07 315.721 122 315.529 122 315.305ZM130.805 323.758C130.805 323.549 130.758 323.357 130.664 323.18C130.576 322.997 130.391 322.833 130.109 322.688C129.833 322.536 129.417 322.406 128.859 322.297C128.234 322.167 127.693 322 127.234 321.797C126.781 321.594 126.43 321.336 126.18 321.023C125.935 320.711 125.812 320.323 125.812 319.859C125.812 319.411 125.94 319.003 126.195 318.633C126.456 318.258 126.82 317.958 127.289 317.734C127.763 317.505 128.315 317.391 128.945 317.391C129.622 317.391 130.201 317.51 130.68 317.75C131.159 317.99 131.526 318.31 131.781 318.711C132.036 319.107 132.164 319.547 132.164 320.031H130.719C130.719 319.682 130.565 319.354 130.258 319.047C129.956 318.734 129.518 318.578 128.945 318.578C128.544 318.578 128.219 318.641 127.969 318.766C127.724 318.885 127.544 319.039 127.43 319.227C127.32 319.414 127.266 319.612 127.266 319.82C127.266 320.029 127.318 320.208 127.422 320.359C127.526 320.51 127.716 320.646 127.992 320.766C128.273 320.885 128.68 321.005 129.211 321.125C129.904 321.281 130.474 321.469 130.922 321.688C131.37 321.906 131.703 322.174 131.922 322.492C132.141 322.81 132.25 323.195 132.25 323.648C132.25 324.143 132.115 324.581 131.844 324.961C131.573 325.336 131.193 325.63 130.703 325.844C130.214 326.052 129.641 326.156 128.984 326.156C128.24 326.156 127.609 326.023 127.094 325.758C126.578 325.492 126.188 325.148 125.922 324.727C125.656 324.305 125.523 323.859 125.523 323.391H126.977C126.997 323.786 127.112 324.102 127.32 324.336C127.529 324.565 127.784 324.729 128.086 324.828C128.388 324.922 128.688 324.969 128.984 324.969C129.38 324.969 129.711 324.917 129.977 324.812C130.247 324.708 130.453 324.565 130.594 324.383C130.734 324.201 130.805 323.992 130.805 323.758ZM139.891 319.352V326H138.445V317.547H139.812L139.891 319.352ZM139.547 321.453L138.945 321.43C138.956 320.654 139.104 319.964 139.391 319.359C139.677 318.75 140.076 318.271 140.586 317.922C141.102 317.568 141.701 317.391 142.383 317.391C142.94 317.391 143.419 317.492 143.82 317.695C144.227 317.898 144.539 318.227 144.758 318.68C144.982 319.128 145.094 319.721 145.094 320.461V326H143.641V320.445C143.641 320.003 143.576 319.648 143.445 319.383C143.315 319.112 143.125 318.917 142.875 318.797C142.625 318.672 142.318 318.609 141.953 318.609C141.594 318.609 141.266 318.685 140.969 318.836C140.677 318.987 140.424 319.195 140.211 319.461C140.003 319.727 139.839 320.031 139.719 320.375C139.604 320.714 139.547 321.073 139.547 321.453ZM146.906 321.867V321.688C146.906 320.87 147.062 320.138 147.375 319.492C147.688 318.846 148.13 318.336 148.703 317.961C149.276 317.581 149.956 317.391 150.742 317.391C151.539 317.391 152.224 317.581 152.797 317.961C153.375 318.336 153.82 318.846 154.133 319.492C154.445 320.138 154.602 320.87 154.602 321.688V321.867C154.602 322.68 154.445 323.411 154.133 324.062C153.82 324.708 153.378 325.219 152.805 325.594C152.232 325.969 151.549 326.156 150.758 326.156C149.966 326.156 149.281 325.969 148.703 325.594C148.13 325.219 147.688 324.708 147.375 324.062C147.062 323.411 146.906 322.68 146.906 321.867ZM148.352 321.688V321.867C148.352 322.424 148.44 322.94 148.617 323.414C148.794 323.883 149.06 324.26 149.414 324.547C149.773 324.828 150.221 324.969 150.758 324.969C151.289 324.969 151.732 324.828 152.086 324.547C152.44 324.26 152.706 323.883 152.883 323.414C153.06 322.94 153.148 322.424 153.148 321.867V321.688C153.148 321.135 153.057 320.625 152.875 320.156C152.698 319.682 152.432 319.302 152.078 319.016C151.724 318.724 151.279 318.578 150.742 318.578C150.211 318.578 149.768 318.724 149.414 319.016C149.06 319.302 148.794 319.682 148.617 320.156C148.44 320.625 148.352 321.135 148.352 321.688ZM165.633 323.758C165.633 323.549 165.586 323.357 165.492 323.18C165.404 322.997 165.219 322.833 164.938 322.688C164.661 322.536 164.245 322.406 163.688 322.297C163.062 322.167 162.521 322 162.062 321.797C161.609 321.594 161.258 321.336 161.008 321.023C160.763 320.711 160.641 320.323 160.641 319.859C160.641 319.411 160.768 319.003 161.023 318.633C161.284 318.258 161.648 317.958 162.117 317.734C162.591 317.505 163.143 317.391 163.773 317.391C164.451 317.391 165.029 317.51 165.508 317.75C165.987 317.99 166.354 318.31 166.609 318.711C166.865 319.107 166.992 319.547 166.992 320.031H165.547C165.547 319.682 165.393 319.354 165.086 319.047C164.784 318.734 164.346 318.578 163.773 318.578C163.372 318.578 163.047 318.641 162.797 318.766C162.552 318.885 162.372 319.039 162.258 319.227C162.148 319.414 162.094 319.612 162.094 319.82C162.094 320.029 162.146 320.208 162.25 320.359C162.354 320.51 162.544 320.646 162.82 320.766C163.102 320.885 163.508 321.005 164.039 321.125C164.732 321.281 165.302 321.469 165.75 321.688C166.198 321.906 166.531 322.174 166.75 322.492C166.969 322.81 167.078 323.195 167.078 323.648C167.078 324.143 166.943 324.581 166.672 324.961C166.401 325.336 166.021 325.63 165.531 325.844C165.042 326.052 164.469 326.156 163.812 326.156C163.068 326.156 162.438 326.023 161.922 325.758C161.406 325.492 161.016 325.148 160.75 324.727C160.484 324.305 160.352 323.859 160.352 323.391H161.805C161.826 323.786 161.94 324.102 162.148 324.336C162.357 324.565 162.612 324.729 162.914 324.828C163.216 324.922 163.516 324.969 163.812 324.969C164.208 324.969 164.539 324.917 164.805 324.812C165.076 324.708 165.281 324.565 165.422 324.383C165.562 324.201 165.633 323.992 165.633 323.758ZM170.547 317.547V326H169.094V317.547H170.547ZM168.984 315.305C168.984 315.07 169.055 314.872 169.195 314.711C169.341 314.549 169.555 314.469 169.836 314.469C170.112 314.469 170.323 314.549 170.469 314.711C170.62 314.872 170.695 315.07 170.695 315.305C170.695 315.529 170.62 315.721 170.469 315.883C170.323 316.039 170.112 316.117 169.836 316.117C169.555 316.117 169.341 316.039 169.195 315.883C169.055 315.721 168.984 315.529 168.984 315.305ZM174.312 319.352V326H172.867V317.547H174.234L174.312 319.352ZM173.969 321.453L173.367 321.43C173.378 320.654 173.526 319.964 173.812 319.359C174.099 318.75 174.497 318.271 175.008 317.922C175.523 317.568 176.122 317.391 176.805 317.391C177.362 317.391 177.841 317.492 178.242 317.695C178.648 317.898 178.961 318.227 179.18 318.68C179.404 319.128 179.516 319.721 179.516 320.461V326H178.062V320.445C178.062 320.003 177.997 319.648 177.867 319.383C177.737 319.112 177.547 318.917 177.297 318.797C177.047 318.672 176.74 318.609 176.375 318.609C176.016 318.609 175.688 318.685 175.391 318.836C175.099 318.987 174.846 319.195 174.633 319.461C174.424 319.727 174.26 320.031 174.141 320.375C174.026 320.714 173.969 321.073 173.969 321.453ZM187.188 317.547H188.5V325.82C188.5 326.565 188.349 327.201 188.047 327.727C187.745 328.253 187.323 328.651 186.781 328.922C186.245 329.198 185.625 329.336 184.922 329.336C184.63 329.336 184.286 329.289 183.891 329.195C183.5 329.107 183.115 328.953 182.734 328.734C182.359 328.521 182.044 328.232 181.789 327.867L182.547 327.008C182.901 327.435 183.271 327.732 183.656 327.898C184.047 328.065 184.432 328.148 184.812 328.148C185.495 328.148 186.039 327.956 186.445 327.57C186.852 327.19 187.055 326.63 187.055 325.891V319.406L187.188 317.547ZM181.367 321.867V321.703C181.367 320.844 181.503 320.091 181.773 319.445C182.044 318.794 182.427 318.289 182.922 317.93C183.422 317.57 184.016 317.391 184.703 317.391C185.234 317.391 185.698 317.484 186.094 317.672C186.495 317.854 186.833 318.122 187.109 318.477C187.391 318.826 187.612 319.247 187.773 319.742C187.935 320.237 188.047 320.797 188.109 321.422V322.141C188.031 322.964 187.859 323.677 187.594 324.281C187.328 324.88 186.956 325.344 186.477 325.672C185.997 325.995 185.401 326.156 184.688 326.156C184.01 326.156 183.422 325.971 182.922 325.602C182.427 325.227 182.044 324.716 181.773 324.07C181.503 323.424 181.367 322.69 181.367 321.867ZM182.812 321.703V321.867C182.812 322.424 182.888 322.938 183.039 323.406C183.195 323.87 183.438 324.24 183.766 324.516C184.094 324.792 184.518 324.93 185.039 324.93C185.518 324.93 185.914 324.828 186.227 324.625C186.539 324.422 186.786 324.154 186.969 323.82C187.156 323.487 187.302 323.125 187.406 322.734V320.852C187.349 320.565 187.26 320.289 187.141 320.023C187.026 319.753 186.875 319.513 186.688 319.305C186.505 319.091 186.279 318.922 186.008 318.797C185.737 318.672 185.419 318.609 185.055 318.609C184.529 318.609 184.099 318.75 183.766 319.031C183.438 319.312 183.195 319.688 183.039 320.156C182.888 320.625 182.812 321.141 182.812 321.703ZM192.266 314V326H190.812V314H192.266ZM198.094 326.156C197.307 326.156 196.622 325.982 196.039 325.633C195.461 325.284 195.01 324.802 194.688 324.188C194.37 323.568 194.211 322.862 194.211 322.07V321.742C194.211 320.82 194.385 320.036 194.734 319.391C195.089 318.74 195.547 318.245 196.109 317.906C196.677 317.562 197.276 317.391 197.906 317.391C198.714 317.391 199.372 317.573 199.883 317.938C200.398 318.297 200.776 318.789 201.016 319.414C201.26 320.034 201.383 320.74 201.383 321.531V322.18H195.07V321H199.938V320.891C199.917 320.516 199.839 320.151 199.703 319.797C199.573 319.443 199.365 319.151 199.078 318.922C198.792 318.693 198.401 318.578 197.906 318.578C197.469 318.578 197.081 318.701 196.742 318.945C196.404 319.19 196.138 319.549 195.945 320.023C195.758 320.492 195.664 321.065 195.664 321.742V322.07C195.664 322.602 195.763 323.089 195.961 323.531C196.159 323.969 196.445 324.32 196.82 324.586C197.195 324.846 197.646 324.977 198.172 324.977C198.682 324.977 199.115 324.872 199.469 324.664C199.823 324.456 200.133 324.177 200.398 323.828L201.273 324.523C201.003 324.94 200.615 325.318 200.109 325.656C199.604 325.99 198.932 326.156 198.094 326.156ZM208.812 318.875V326H207.367V317.547H208.773L208.812 318.875ZM211.453 317.5L211.445 318.844C211.326 318.818 211.211 318.802 211.102 318.797C210.997 318.786 210.878 318.781 210.742 318.781C210.294 318.781 209.919 318.872 209.617 319.055C209.315 319.237 209.078 319.487 208.906 319.805C208.74 320.117 208.635 320.479 208.594 320.891L208.188 321.125C208.188 320.448 208.279 319.828 208.461 319.266C208.643 318.698 208.927 318.245 209.312 317.906C209.703 317.562 210.203 317.391 210.812 317.391C210.917 317.391 211.036 317.404 211.172 317.43C211.307 317.451 211.401 317.474 211.453 317.5ZM214.359 317.547V326H212.906V317.547H214.359ZM212.797 315.305C212.797 315.07 212.867 314.872 213.008 314.711C213.154 314.549 213.367 314.469 213.648 314.469C213.924 314.469 214.135 314.549 214.281 314.711C214.432 314.872 214.508 315.07 214.508 315.305C214.508 315.529 214.432 315.721 214.281 315.883C214.135 316.039 213.924 316.117 213.648 316.117C213.367 316.117 213.154 316.039 213.008 315.883C212.867 315.721 212.797 315.529 212.797 315.305ZM222.156 317.547H223.469V325.82C223.469 326.565 223.318 327.201 223.016 327.727C222.714 328.253 222.292 328.651 221.75 328.922C221.214 329.198 220.594 329.336 219.891 329.336C219.599 329.336 219.255 329.289 218.859 329.195C218.469 329.107 218.083 328.953 217.703 328.734C217.328 328.521 217.013 328.232 216.758 327.867L217.516 327.008C217.87 327.435 218.24 327.732 218.625 327.898C219.016 328.065 219.401 328.148 219.781 328.148C220.464 328.148 221.008 327.956 221.414 327.57C221.82 327.19 222.023 326.63 222.023 325.891V319.406L222.156 317.547ZM216.336 321.867V321.703C216.336 320.844 216.471 320.091 216.742 319.445C217.013 318.794 217.396 318.289 217.891 317.93C218.391 317.57 218.984 317.391 219.672 317.391C220.203 317.391 220.667 317.484 221.062 317.672C221.464 317.854 221.802 318.122 222.078 318.477C222.359 318.826 222.581 319.247 222.742 319.742C222.904 320.237 223.016 320.797 223.078 321.422V322.141C223 322.964 222.828 323.677 222.562 324.281C222.297 324.88 221.924 325.344 221.445 325.672C220.966 325.995 220.37 326.156 219.656 326.156C218.979 326.156 218.391 325.971 217.891 325.602C217.396 325.227 217.013 324.716 216.742 324.07C216.471 323.424 216.336 322.69 216.336 321.867ZM217.781 321.703V321.867C217.781 322.424 217.857 322.938 218.008 323.406C218.164 323.87 218.406 324.24 218.734 324.516C219.062 324.792 219.487 324.93 220.008 324.93C220.487 324.93 220.883 324.828 221.195 324.625C221.508 324.422 221.755 324.154 221.938 323.82C222.125 323.487 222.271 323.125 222.375 322.734V320.852C222.318 320.565 222.229 320.289 222.109 320.023C221.995 319.753 221.844 319.513 221.656 319.305C221.474 319.091 221.247 318.922 220.977 318.797C220.706 318.672 220.388 318.609 220.023 318.609C219.497 318.609 219.068 318.75 218.734 319.031C218.406 319.312 218.164 319.688 218.008 320.156C217.857 320.625 217.781 321.141 217.781 321.703ZM227.109 314V326H225.664V314H227.109ZM226.766 321.453L226.164 321.43C226.174 320.654 226.323 319.964 226.609 319.359C226.896 318.75 227.294 318.271 227.805 317.922C228.32 317.568 228.919 317.391 229.602 317.391C230.159 317.391 230.638 317.492 231.039 317.695C231.445 317.898 231.758 318.227 231.977 318.68C232.201 319.128 232.312 319.721 232.312 320.461V326H230.859V320.445C230.859 320.003 230.794 319.648 230.664 319.383C230.534 319.112 230.344 318.917 230.094 318.797C229.844 318.672 229.536 318.609 229.172 318.609C228.812 318.609 228.484 318.685 228.188 318.836C227.896 318.987 227.643 319.195 227.43 319.461C227.221 319.727 227.057 320.031 226.938 320.375C226.823 320.714 226.766 321.073 226.766 321.453ZM238.016 317.547V318.656H233.445V317.547H238.016ZM234.992 315.492H236.438V323.906C236.438 324.193 236.482 324.409 236.57 324.555C236.659 324.701 236.773 324.797 236.914 324.844C237.055 324.891 237.206 324.914 237.367 324.914C237.487 324.914 237.612 324.904 237.742 324.883C237.878 324.857 237.979 324.836 238.047 324.82L238.055 326C237.94 326.036 237.789 326.07 237.602 326.102C237.419 326.138 237.198 326.156 236.938 326.156C236.583 326.156 236.258 326.086 235.961 325.945C235.664 325.805 235.427 325.57 235.25 325.242C235.078 324.909 234.992 324.461 234.992 323.898V315.492ZM248.992 324.555V320.203C248.992 319.703 248.841 319.305 248.539 319.008C248.242 318.706 247.799 318.555 247.211 318.555C246.846 318.555 246.526 318.617 246.25 318.742C245.979 318.867 245.766 319.031 245.609 319.234C245.458 319.438 245.383 319.656 245.383 319.891H243.938C243.938 319.484 244.076 319.091 244.352 318.711C244.628 318.326 245.016 318.01 245.516 317.766C246.021 317.516 246.615 317.391 247.297 317.391C247.911 317.391 248.453 317.495 248.922 317.703C249.396 317.911 249.766 318.227 250.031 318.648C250.302 319.065 250.438 319.589 250.438 320.219V324.156C250.438 324.438 250.461 324.737 250.508 325.055C250.56 325.372 250.635 325.646 250.734 325.875V326H249.227C249.154 325.833 249.096 325.612 249.055 325.336C249.013 325.055 248.992 324.794 248.992 324.555ZM249.242 320.875L249.258 321.891H247.797C246.969 321.891 246.331 322.021 245.883 322.281C245.435 322.536 245.211 322.927 245.211 323.453C245.211 323.854 245.346 324.195 245.617 324.477C245.888 324.753 246.292 324.891 246.828 324.891C247.271 324.891 247.661 324.797 248 324.609C248.339 324.422 248.607 324.193 248.805 323.922C249.008 323.651 249.117 323.388 249.133 323.133L249.75 323.828C249.714 324.047 249.615 324.289 249.453 324.555C249.292 324.82 249.076 325.076 248.805 325.32C248.539 325.56 248.221 325.76 247.852 325.922C247.487 326.078 247.076 326.156 246.617 326.156C246.044 326.156 245.542 326.044 245.109 325.82C244.682 325.596 244.349 325.297 244.109 324.922C243.875 324.542 243.758 324.117 243.758 323.648C243.758 322.742 244.102 322.055 244.789 321.586C245.477 321.112 246.401 320.875 247.562 320.875H249.242ZM254.156 319.352V326H252.711V317.547H254.078L254.156 319.352ZM253.812 321.453L253.211 321.43C253.221 320.654 253.37 319.964 253.656 319.359C253.943 318.75 254.341 318.271 254.852 317.922C255.367 317.568 255.966 317.391 256.648 317.391C257.206 317.391 257.685 317.492 258.086 317.695C258.492 317.898 258.805 318.227 259.023 318.68C259.247 319.128 259.359 319.721 259.359 320.461V326H257.906V320.445C257.906 320.003 257.841 319.648 257.711 319.383C257.581 319.112 257.391 318.917 257.141 318.797C256.891 318.672 256.583 318.609 256.219 318.609C255.859 318.609 255.531 318.685 255.234 318.836C254.943 318.987 254.69 319.195 254.477 319.461C254.268 319.727 254.104 320.031 253.984 320.375C253.87 320.714 253.812 321.073 253.812 321.453ZM266.477 323.758C266.477 323.549 266.43 323.357 266.336 323.18C266.247 322.997 266.062 322.833 265.781 322.688C265.505 322.536 265.089 322.406 264.531 322.297C263.906 322.167 263.365 322 262.906 321.797C262.453 321.594 262.102 321.336 261.852 321.023C261.607 320.711 261.484 320.323 261.484 319.859C261.484 319.411 261.612 319.003 261.867 318.633C262.128 318.258 262.492 317.958 262.961 317.734C263.435 317.505 263.987 317.391 264.617 317.391C265.294 317.391 265.872 317.51 266.352 317.75C266.831 317.99 267.198 318.31 267.453 318.711C267.708 319.107 267.836 319.547 267.836 320.031H266.391C266.391 319.682 266.237 319.354 265.93 319.047C265.628 318.734 265.19 318.578 264.617 318.578C264.216 318.578 263.891 318.641 263.641 318.766C263.396 318.885 263.216 319.039 263.102 319.227C262.992 319.414 262.938 319.612 262.938 319.82C262.938 320.029 262.99 320.208 263.094 320.359C263.198 320.51 263.388 320.646 263.664 320.766C263.945 320.885 264.352 321.005 264.883 321.125C265.576 321.281 266.146 321.469 266.594 321.688C267.042 321.906 267.375 322.174 267.594 322.492C267.812 322.81 267.922 323.195 267.922 323.648C267.922 324.143 267.786 324.581 267.516 324.961C267.245 325.336 266.865 325.63 266.375 325.844C265.885 326.052 265.312 326.156 264.656 326.156C263.911 326.156 263.281 326.023 262.766 325.758C262.25 325.492 261.859 325.148 261.594 324.727C261.328 324.305 261.195 323.859 261.195 323.391H262.648C262.669 323.786 262.784 324.102 262.992 324.336C263.201 324.565 263.456 324.729 263.758 324.828C264.06 324.922 264.359 324.969 264.656 324.969C265.052 324.969 265.383 324.917 265.648 324.812C265.919 324.708 266.125 324.565 266.266 324.383C266.406 324.201 266.477 323.992 266.477 323.758ZM271.961 324.5L274.133 317.547H275.086L274.898 318.93L272.688 326H271.758L271.961 324.5ZM270.5 317.547L272.352 324.578L272.484 326H271.508L269.055 317.547H270.5ZM277.164 324.523L278.93 317.547H280.367L277.914 326H276.945L277.164 324.523ZM275.297 317.547L277.422 324.383L277.664 326H276.742L274.469 318.914L274.281 317.547H275.297ZM285.359 326.156C284.573 326.156 283.888 325.982 283.305 325.633C282.727 325.284 282.276 324.802 281.953 324.188C281.635 323.568 281.477 322.862 281.477 322.07V321.742C281.477 320.82 281.651 320.036 282 319.391C282.354 318.74 282.812 318.245 283.375 317.906C283.943 317.562 284.542 317.391 285.172 317.391C285.979 317.391 286.638 317.573 287.148 317.938C287.664 318.297 288.042 318.789 288.281 319.414C288.526 320.034 288.648 320.74 288.648 321.531V322.18H282.336V321H287.203V320.891C287.182 320.516 287.104 320.151 286.969 319.797C286.839 319.443 286.63 319.151 286.344 318.922C286.057 318.693 285.667 318.578 285.172 318.578C284.734 318.578 284.346 318.701 284.008 318.945C283.669 319.19 283.404 319.549 283.211 320.023C283.023 320.492 282.93 321.065 282.93 321.742V322.07C282.93 322.602 283.029 323.089 283.227 323.531C283.424 323.969 283.711 324.32 284.086 324.586C284.461 324.846 284.911 324.977 285.438 324.977C285.948 324.977 286.38 324.872 286.734 324.664C287.089 324.456 287.398 324.177 287.664 323.828L288.539 324.523C288.268 324.94 287.88 325.318 287.375 325.656C286.87 325.99 286.198 326.156 285.359 326.156ZM291.781 318.875V326H290.336V317.547H291.742L291.781 318.875ZM294.422 317.5L294.414 318.844C294.294 318.818 294.18 318.802 294.07 318.797C293.966 318.786 293.846 318.781 293.711 318.781C293.263 318.781 292.888 318.872 292.586 319.055C292.284 319.237 292.047 319.487 291.875 319.805C291.708 320.117 291.604 320.479 291.562 320.891L291.156 321.125C291.156 320.448 291.247 319.828 291.43 319.266C291.612 318.698 291.896 318.245 292.281 317.906C292.672 317.562 293.172 317.391 293.781 317.391C293.885 317.391 294.005 317.404 294.141 317.43C294.276 317.451 294.37 317.474 294.422 317.5ZM310.359 322.539H300.047V321.359H310.359V322.539ZM318.992 324.5L321.164 317.547H322.117L321.93 318.93L319.719 326H318.789L318.992 324.5ZM317.531 317.547L319.383 324.578L319.516 326H318.539L316.086 317.547H317.531ZM324.195 324.523L325.961 317.547H327.398L324.945 326H323.977L324.195 324.523ZM322.328 317.547L324.453 324.383L324.695 326H323.773L321.5 318.914L321.312 317.547H322.328ZM330.328 318.875V326H328.883V317.547H330.289L330.328 318.875ZM332.969 317.5L332.961 318.844C332.841 318.818 332.727 318.802 332.617 318.797C332.513 318.786 332.393 318.781 332.258 318.781C331.81 318.781 331.435 318.872 331.133 319.055C330.831 319.237 330.594 319.487 330.422 319.805C330.255 320.117 330.151 320.479 330.109 320.891L329.703 321.125C329.703 320.448 329.794 319.828 329.977 319.266C330.159 318.698 330.443 318.245 330.828 317.906C331.219 317.562 331.719 317.391 332.328 317.391C332.432 317.391 332.552 317.404 332.688 317.43C332.823 317.451 332.917 317.474 332.969 317.5ZM335.875 317.547V326H334.422V317.547H335.875ZM334.312 315.305C334.312 315.07 334.383 314.872 334.523 314.711C334.669 314.549 334.883 314.469 335.164 314.469C335.44 314.469 335.651 314.549 335.797 314.711C335.948 314.872 336.023 315.07 336.023 315.305C336.023 315.529 335.948 315.721 335.797 315.883C335.651 316.039 335.44 316.117 335.164 316.117C334.883 316.117 334.669 316.039 334.523 315.883C334.383 315.721 334.312 315.529 334.312 315.305ZM341.734 317.547V318.656H337.164V317.547H341.734ZM338.711 315.492H340.156V323.906C340.156 324.193 340.201 324.409 340.289 324.555C340.378 324.701 340.492 324.797 340.633 324.844C340.773 324.891 340.924 324.914 341.086 324.914C341.206 324.914 341.331 324.904 341.461 324.883C341.596 324.857 341.698 324.836 341.766 324.82L341.773 326C341.659 326.036 341.508 326.07 341.32 326.102C341.138 326.138 340.917 326.156 340.656 326.156C340.302 326.156 339.977 326.086 339.68 325.945C339.383 325.805 339.146 325.57 338.969 325.242C338.797 324.909 338.711 324.461 338.711 323.898V315.492ZM346.938 326.156C346.151 326.156 345.466 325.982 344.883 325.633C344.305 325.284 343.854 324.802 343.531 324.188C343.214 323.568 343.055 322.862 343.055 322.07V321.742C343.055 320.82 343.229 320.036 343.578 319.391C343.932 318.74 344.391 318.245 344.953 317.906C345.521 317.562 346.12 317.391 346.75 317.391C347.557 317.391 348.216 317.573 348.727 317.938C349.242 318.297 349.62 318.789 349.859 319.414C350.104 320.034 350.227 320.74 350.227 321.531V322.18H343.914V321H348.781V320.891C348.76 320.516 348.682 320.151 348.547 319.797C348.417 319.443 348.208 319.151 347.922 318.922C347.635 318.693 347.245 318.578 346.75 318.578C346.312 318.578 345.924 318.701 345.586 318.945C345.247 319.19 344.982 319.549 344.789 320.023C344.602 320.492 344.508 321.065 344.508 321.742V322.07C344.508 322.602 344.607 323.089 344.805 323.531C345.003 323.969 345.289 324.32 345.664 324.586C346.039 324.846 346.49 324.977 347.016 324.977C347.526 324.977 347.958 324.872 348.312 324.664C348.667 324.456 348.977 324.177 349.242 323.828L350.117 324.523C349.846 324.94 349.458 325.318 348.953 325.656C348.448 325.99 347.776 326.156 346.938 326.156ZM358.352 324.5L360.523 317.547H361.477L361.289 318.93L359.078 326H358.148L358.352 324.5ZM356.891 317.547L358.742 324.578L358.875 326H357.898L355.445 317.547H356.891ZM363.555 324.523L365.32 317.547H366.758L364.305 326H363.336L363.555 324.523ZM361.688 317.547L363.812 324.383L364.055 326H363.133L360.859 318.914L360.672 317.547H361.688ZM369.688 314V326H368.242V314H369.688ZM369.344 321.453L368.742 321.43C368.753 320.654 368.901 319.964 369.188 319.359C369.474 318.75 369.872 318.271 370.383 317.922C370.898 317.568 371.497 317.391 372.18 317.391C372.737 317.391 373.216 317.492 373.617 317.695C374.023 317.898 374.336 318.227 374.555 318.68C374.779 319.128 374.891 319.721 374.891 320.461V326H373.438V320.445C373.438 320.003 373.372 319.648 373.242 319.383C373.112 319.112 372.922 318.917 372.672 318.797C372.422 318.672 372.115 318.609 371.75 318.609C371.391 318.609 371.062 318.685 370.766 318.836C370.474 318.987 370.221 319.195 370.008 319.461C369.799 319.727 369.635 320.031 369.516 320.375C369.401 320.714 369.344 321.073 369.344 321.453ZM382.039 324.555V320.203C382.039 319.703 381.888 319.305 381.586 319.008C381.289 318.706 380.846 318.555 380.258 318.555C379.893 318.555 379.573 318.617 379.297 318.742C379.026 318.867 378.812 319.031 378.656 319.234C378.505 319.438 378.43 319.656 378.43 319.891H376.984C376.984 319.484 377.122 319.091 377.398 318.711C377.674 318.326 378.062 318.01 378.562 317.766C379.068 317.516 379.661 317.391 380.344 317.391C380.958 317.391 381.5 317.495 381.969 317.703C382.443 317.911 382.812 318.227 383.078 318.648C383.349 319.065 383.484 319.589 383.484 320.219V324.156C383.484 324.438 383.508 324.737 383.555 325.055C383.607 325.372 383.682 325.646 383.781 325.875V326H382.273C382.201 325.833 382.143 325.612 382.102 325.336C382.06 325.055 382.039 324.794 382.039 324.555ZM382.289 320.875L382.305 321.891H380.844C380.016 321.891 379.378 322.021 378.93 322.281C378.482 322.536 378.258 322.927 378.258 323.453C378.258 323.854 378.393 324.195 378.664 324.477C378.935 324.753 379.339 324.891 379.875 324.891C380.318 324.891 380.708 324.797 381.047 324.609C381.385 324.422 381.654 324.193 381.852 323.922C382.055 323.651 382.164 323.388 382.18 323.133L382.797 323.828C382.76 324.047 382.661 324.289 382.5 324.555C382.339 324.82 382.122 325.076 381.852 325.32C381.586 325.56 381.268 325.76 380.898 325.922C380.534 326.078 380.122 326.156 379.664 326.156C379.091 326.156 378.589 326.044 378.156 325.82C377.729 325.596 377.396 325.297 377.156 324.922C376.922 324.542 376.805 324.117 376.805 323.648C376.805 322.742 377.148 322.055 377.836 321.586C378.523 321.112 379.448 320.875 380.609 320.875H382.289ZM389.297 317.547V318.656H384.727V317.547H389.297ZM386.273 315.492H387.719V323.906C387.719 324.193 387.763 324.409 387.852 324.555C387.94 324.701 388.055 324.797 388.195 324.844C388.336 324.891 388.487 324.914 388.648 324.914C388.768 324.914 388.893 324.904 389.023 324.883C389.159 324.857 389.26 324.836 389.328 324.82L389.336 326C389.221 326.036 389.07 326.07 388.883 326.102C388.701 326.138 388.479 326.156 388.219 326.156C387.865 326.156 387.539 326.086 387.242 325.945C386.945 325.805 386.708 325.57 386.531 325.242C386.359 324.909 386.273 324.461 386.273 323.898V315.492ZM397.664 325.125L400.016 317.547H401.562L398.172 327.305C398.094 327.513 397.99 327.737 397.859 327.977C397.734 328.221 397.573 328.453 397.375 328.672C397.177 328.891 396.938 329.068 396.656 329.203C396.38 329.344 396.049 329.414 395.664 329.414C395.549 329.414 395.404 329.398 395.227 329.367C395.049 329.336 394.924 329.31 394.852 329.289L394.844 328.117C394.885 328.122 394.951 328.128 395.039 328.133C395.133 328.143 395.198 328.148 395.234 328.148C395.729 328.148 396.112 328.047 396.383 327.844C396.659 327.646 396.885 327.286 397.062 326.766L397.664 325.125ZM395.938 317.547L398.133 324.109L398.508 325.633L397.469 326.164L394.359 317.547H395.938ZM402.359 321.867V321.688C402.359 320.87 402.516 320.138 402.828 319.492C403.141 318.846 403.583 318.336 404.156 317.961C404.729 317.581 405.409 317.391 406.195 317.391C406.992 317.391 407.677 317.581 408.25 317.961C408.828 318.336 409.273 318.846 409.586 319.492C409.898 320.138 410.055 320.87 410.055 321.688V321.867C410.055 322.68 409.898 323.411 409.586 324.062C409.273 324.708 408.831 325.219 408.258 325.594C407.685 325.969 407.003 326.156 406.211 326.156C405.419 326.156 404.734 325.969 404.156 325.594C403.583 325.219 403.141 324.708 402.828 324.062C402.516 323.411 402.359 322.68 402.359 321.867ZM403.805 321.688V321.867C403.805 322.424 403.893 322.94 404.07 323.414C404.247 323.883 404.513 324.26 404.867 324.547C405.227 324.828 405.674 324.969 406.211 324.969C406.742 324.969 407.185 324.828 407.539 324.547C407.893 324.26 408.159 323.883 408.336 323.414C408.513 322.94 408.602 322.424 408.602 321.867V321.688C408.602 321.135 408.51 320.625 408.328 320.156C408.151 319.682 407.885 319.302 407.531 319.016C407.177 318.724 406.732 318.578 406.195 318.578C405.664 318.578 405.221 318.724 404.867 319.016C404.513 319.302 404.247 319.682 404.07 320.156C403.893 320.625 403.805 321.135 403.805 321.688ZM417.039 324.047V317.547H418.492V326H417.109L417.039 324.047ZM417.312 322.266L417.914 322.25C417.914 323 417.807 323.669 417.594 324.258C417.38 324.846 417.031 325.31 416.547 325.648C416.062 325.987 415.417 326.156 414.609 326.156C413.781 326.156 413.112 325.911 412.602 325.422C412.091 324.932 411.836 324.125 411.836 323V317.547H413.281V323.016C413.281 323.521 413.354 323.914 413.5 324.195C413.651 324.471 413.846 324.664 414.086 324.773C414.326 324.878 414.576 324.93 414.836 324.93C415.451 324.93 415.938 324.812 416.297 324.578C416.656 324.339 416.914 324.018 417.07 323.617C417.232 323.211 417.312 322.76 417.312 322.266ZM80.6406 342.547V343.656H76.0703V342.547H80.6406ZM77.6172 340.492H79.0625V348.906C79.0625 349.193 79.1068 349.409 79.1953 349.555C79.2839 349.701 79.3984 349.797 79.5391 349.844C79.6797 349.891 79.8307 349.914 79.9922 349.914C80.112 349.914 80.237 349.904 80.3672 349.883C80.5026 349.857 80.6042 349.836 80.6719 349.82L80.6797 351C80.5651 351.036 80.4141 351.07 80.2266 351.102C80.0443 351.138 79.8229 351.156 79.5625 351.156C79.2083 351.156 78.8828 351.086 78.5859 350.945C78.2891 350.805 78.0521 350.57 77.875 350.242C77.7031 349.909 77.6172 349.461 77.6172 348.898V340.492ZM83.7812 339V351H82.3359V339H83.7812ZM83.4375 346.453L82.8359 346.43C82.8464 345.654 82.9948 344.964 83.2812 344.359C83.5677 343.75 83.9661 343.271 84.4766 342.922C84.9922 342.568 85.5911 342.391 86.2734 342.391C86.8307 342.391 87.3099 342.492 87.7109 342.695C88.1172 342.898 88.4297 343.227 88.6484 343.68C88.8724 344.128 88.9844 344.721 88.9844 345.461V351H87.5312V345.445C87.5312 345.003 87.4661 344.648 87.3359 344.383C87.2057 344.112 87.0156 343.917 86.7656 343.797C86.5156 343.672 86.2083 343.609 85.8438 343.609C85.4844 343.609 85.1562 343.685 84.8594 343.836C84.5677 343.987 84.3151 344.195 84.1016 344.461C83.8932 344.727 83.7292 345.031 83.6094 345.375C83.4948 345.714 83.4375 346.073 83.4375 346.453ZM92.7188 342.547V351H91.2656V342.547H92.7188ZM91.1562 340.305C91.1562 340.07 91.2266 339.872 91.3672 339.711C91.513 339.549 91.7266 339.469 92.0078 339.469C92.2839 339.469 92.4948 339.549 92.6406 339.711C92.7917 339.872 92.8672 340.07 92.8672 340.305C92.8672 340.529 92.7917 340.721 92.6406 340.883C92.4948 341.039 92.2839 341.117 92.0078 341.117C91.7266 341.117 91.513 341.039 91.3672 340.883C91.2266 340.721 91.1562 340.529 91.1562 340.305ZM96.4844 344.352V351H95.0391V342.547H96.4062L96.4844 344.352ZM96.1406 346.453L95.5391 346.43C95.5495 345.654 95.6979 344.964 95.9844 344.359C96.2708 343.75 96.6693 343.271 97.1797 342.922C97.6953 342.568 98.2943 342.391 98.9766 342.391C99.5339 342.391 100.013 342.492 100.414 342.695C100.82 342.898 101.133 343.227 101.352 343.68C101.576 344.128 101.688 344.721 101.688 345.461V351H100.234V345.445C100.234 345.003 100.169 344.648 100.039 344.383C99.9089 344.112 99.7188 343.917 99.4688 343.797C99.2188 343.672 98.9115 343.609 98.5469 343.609C98.1875 343.609 97.8594 343.685 97.5625 343.836C97.2708 343.987 97.0182 344.195 96.8047 344.461C96.5964 344.727 96.4323 345.031 96.3125 345.375C96.1979 345.714 96.1406 346.073 96.1406 346.453ZM105.336 339V351H103.883V339H105.336ZM110.5 342.547L106.812 346.492L104.75 348.633L104.633 347.094L106.109 345.328L108.734 342.547H110.5ZM109.18 351L106.164 346.969L106.914 345.68L110.883 351H109.18ZM116.281 339H117.734V349.359L117.609 351H116.281V339ZM123.445 346.703V346.867C123.445 347.69 123.315 348.424 123.055 349.07C122.799 349.716 122.427 350.227 121.938 350.602C121.448 350.971 120.854 351.156 120.156 351.156C119.443 351.156 118.846 350.995 118.367 350.672C117.888 350.344 117.516 349.88 117.25 349.281C116.984 348.677 116.81 347.964 116.727 347.141V346.422C116.81 345.589 116.984 344.872 117.25 344.273C117.516 343.669 117.885 343.206 118.359 342.883C118.839 342.555 119.432 342.391 120.141 342.391C120.849 342.391 121.448 342.57 121.938 342.93C122.432 343.289 122.807 343.794 123.062 344.445C123.318 345.091 123.445 345.844 123.445 346.703ZM121.992 346.867V346.703C121.992 346.141 121.922 345.625 121.781 345.156C121.641 344.688 121.409 344.312 121.086 344.031C120.763 343.75 120.328 343.609 119.781 343.609C119.417 343.609 119.099 343.672 118.828 343.797C118.562 343.922 118.336 344.091 118.148 344.305C117.961 344.513 117.807 344.753 117.688 345.023C117.573 345.289 117.487 345.565 117.43 345.852V347.734C117.513 348.099 117.648 348.451 117.836 348.789C118.029 349.122 118.284 349.396 118.602 349.609C118.924 349.823 119.323 349.93 119.797 349.93C120.318 349.93 120.74 349.792 121.062 349.516C121.385 349.24 121.62 348.87 121.766 348.406C121.917 347.938 121.992 347.424 121.992 346.867ZM128.781 351.156C127.995 351.156 127.31 350.982 126.727 350.633C126.148 350.284 125.698 349.802 125.375 349.188C125.057 348.568 124.898 347.862 124.898 347.07V346.742C124.898 345.82 125.073 345.036 125.422 344.391C125.776 343.74 126.234 343.245 126.797 342.906C127.365 342.562 127.964 342.391 128.594 342.391C129.401 342.391 130.06 342.573 130.57 342.938C131.086 343.297 131.464 343.789 131.703 344.414C131.948 345.034 132.07 345.74 132.07 346.531V347.18H125.758V346H130.625V345.891C130.604 345.516 130.526 345.151 130.391 344.797C130.26 344.443 130.052 344.151 129.766 343.922C129.479 343.693 129.089 343.578 128.594 343.578C128.156 343.578 127.768 343.701 127.43 343.945C127.091 344.19 126.826 344.549 126.633 345.023C126.445 345.492 126.352 346.065 126.352 346.742V347.07C126.352 347.602 126.451 348.089 126.648 348.531C126.846 348.969 127.133 349.32 127.508 349.586C127.883 349.846 128.333 349.977 128.859 349.977C129.37 349.977 129.802 349.872 130.156 349.664C130.51 349.456 130.82 349.177 131.086 348.828L131.961 349.523C131.69 349.94 131.302 350.318 130.797 350.656C130.292 350.99 129.62 351.156 128.781 351.156ZM135.914 351H134.469V341.656C134.469 340.745 134.714 340.047 135.203 339.562C135.698 339.078 136.378 338.836 137.242 338.836C137.409 338.836 137.576 338.846 137.742 338.867C137.914 338.888 138.081 338.919 138.242 338.961L138.164 340.141C138.055 340.115 137.93 340.096 137.789 340.086C137.654 340.076 137.518 340.07 137.383 340.07C136.919 340.07 136.557 340.208 136.297 340.484C136.042 340.755 135.914 341.146 135.914 341.656V351ZM137.711 342.547V343.656H133.133V342.547H137.711ZM138.938 346.867V346.688C138.938 345.87 139.094 345.138 139.406 344.492C139.719 343.846 140.161 343.336 140.734 342.961C141.307 342.581 141.987 342.391 142.773 342.391C143.57 342.391 144.255 342.581 144.828 342.961C145.406 343.336 145.852 343.846 146.164 344.492C146.477 345.138 146.633 345.87 146.633 346.688V346.867C146.633 347.68 146.477 348.411 146.164 349.062C145.852 349.708 145.409 350.219 144.836 350.594C144.263 350.969 143.581 351.156 142.789 351.156C141.997 351.156 141.312 350.969 140.734 350.594C140.161 350.219 139.719 349.708 139.406 349.062C139.094 348.411 138.938 347.68 138.938 346.867ZM140.383 346.688V346.867C140.383 347.424 140.471 347.94 140.648 348.414C140.826 348.883 141.091 349.26 141.445 349.547C141.805 349.828 142.253 349.969 142.789 349.969C143.32 349.969 143.763 349.828 144.117 349.547C144.471 349.26 144.737 348.883 144.914 348.414C145.091 347.94 145.18 347.424 145.18 346.867V346.688C145.18 346.135 145.089 345.625 144.906 345.156C144.729 344.682 144.464 344.302 144.109 344.016C143.755 343.724 143.31 343.578 142.773 343.578C142.242 343.578 141.799 343.724 141.445 344.016C141.091 344.302 140.826 344.682 140.648 345.156C140.471 345.625 140.383 346.135 140.383 346.688ZM149.891 343.875V351H148.445V342.547H149.852L149.891 343.875ZM152.531 342.5L152.523 343.844C152.404 343.818 152.289 343.802 152.18 343.797C152.076 343.786 151.956 343.781 151.82 343.781C151.372 343.781 150.997 343.872 150.695 344.055C150.393 344.237 150.156 344.487 149.984 344.805C149.818 345.117 149.714 345.479 149.672 345.891L149.266 346.125C149.266 345.448 149.357 344.828 149.539 344.266C149.721 343.698 150.005 343.245 150.391 342.906C150.781 342.562 151.281 342.391 151.891 342.391C151.995 342.391 152.115 342.404 152.25 342.43C152.385 342.451 152.479 342.474 152.531 342.5ZM157.219 351.156C156.432 351.156 155.747 350.982 155.164 350.633C154.586 350.284 154.135 349.802 153.812 349.188C153.495 348.568 153.336 347.862 153.336 347.07V346.742C153.336 345.82 153.51 345.036 153.859 344.391C154.214 343.74 154.672 343.245 155.234 342.906C155.802 342.562 156.401 342.391 157.031 342.391C157.839 342.391 158.497 342.573 159.008 342.938C159.523 343.297 159.901 343.789 160.141 344.414C160.385 345.034 160.508 345.74 160.508 346.531V347.18H154.195V346H159.062V345.891C159.042 345.516 158.964 345.151 158.828 344.797C158.698 344.443 158.49 344.151 158.203 343.922C157.917 343.693 157.526 343.578 157.031 343.578C156.594 343.578 156.206 343.701 155.867 343.945C155.529 344.19 155.263 344.549 155.07 345.023C154.883 345.492 154.789 346.065 154.789 346.742V347.07C154.789 347.602 154.888 348.089 155.086 348.531C155.284 348.969 155.57 349.32 155.945 349.586C156.32 349.846 156.771 349.977 157.297 349.977C157.807 349.977 158.24 349.872 158.594 349.664C158.948 349.456 159.258 349.177 159.523 348.828L160.398 349.523C160.128 349.94 159.74 350.318 159.234 350.656C158.729 350.99 158.057 351.156 157.219 351.156ZM170.031 342.547V343.656H165.461V342.547H170.031ZM167.008 340.492H168.453V348.906C168.453 349.193 168.497 349.409 168.586 349.555C168.674 349.701 168.789 349.797 168.93 349.844C169.07 349.891 169.221 349.914 169.383 349.914C169.503 349.914 169.628 349.904 169.758 349.883C169.893 349.857 169.995 349.836 170.062 349.82L170.07 351C169.956 351.036 169.805 351.07 169.617 351.102C169.435 351.138 169.214 351.156 168.953 351.156C168.599 351.156 168.273 351.086 167.977 350.945C167.68 350.805 167.443 350.57 167.266 350.242C167.094 349.909 167.008 349.461 167.008 348.898V340.492ZM173.172 339V351H171.727V339H173.172ZM172.828 346.453L172.227 346.43C172.237 345.654 172.385 344.964 172.672 344.359C172.958 343.75 173.357 343.271 173.867 342.922C174.383 342.568 174.982 342.391 175.664 342.391C176.221 342.391 176.701 342.492 177.102 342.695C177.508 342.898 177.82 343.227 178.039 343.68C178.263 344.128 178.375 344.721 178.375 345.461V351H176.922V345.445C176.922 345.003 176.857 344.648 176.727 344.383C176.596 344.112 176.406 343.917 176.156 343.797C175.906 343.672 175.599 343.609 175.234 343.609C174.875 343.609 174.547 343.685 174.25 343.836C173.958 343.987 173.706 344.195 173.492 344.461C173.284 344.727 173.12 345.031 173 345.375C172.885 345.714 172.828 346.073 172.828 346.453ZM184.047 351.156C183.26 351.156 182.576 350.982 181.992 350.633C181.414 350.284 180.964 349.802 180.641 349.188C180.323 348.568 180.164 347.862 180.164 347.07V346.742C180.164 345.82 180.339 345.036 180.688 344.391C181.042 343.74 181.5 343.245 182.062 342.906C182.63 342.562 183.229 342.391 183.859 342.391C184.667 342.391 185.326 342.573 185.836 342.938C186.352 343.297 186.729 343.789 186.969 344.414C187.214 345.034 187.336 345.74 187.336 346.531V347.18H181.023V346H185.891V345.891C185.87 345.516 185.792 345.151 185.656 344.797C185.526 344.443 185.318 344.151 185.031 343.922C184.745 343.693 184.354 343.578 183.859 343.578C183.422 343.578 183.034 343.701 182.695 343.945C182.357 344.19 182.091 344.549 181.898 345.023C181.711 345.492 181.617 346.065 181.617 346.742V347.07C181.617 347.602 181.716 348.089 181.914 348.531C182.112 348.969 182.398 349.32 182.773 349.586C183.148 349.846 183.599 349.977 184.125 349.977C184.635 349.977 185.068 349.872 185.422 349.664C185.776 349.456 186.086 349.177 186.352 348.828L187.227 349.523C186.956 349.94 186.568 350.318 186.062 350.656C185.557 350.99 184.885 351.156 184.047 351.156ZM196.859 342.547V343.656H192.289V342.547H196.859ZM193.836 340.492H195.281V348.906C195.281 349.193 195.326 349.409 195.414 349.555C195.503 349.701 195.617 349.797 195.758 349.844C195.898 349.891 196.049 349.914 196.211 349.914C196.331 349.914 196.456 349.904 196.586 349.883C196.721 349.857 196.823 349.836 196.891 349.82L196.898 351C196.784 351.036 196.633 351.07 196.445 351.102C196.263 351.138 196.042 351.156 195.781 351.156C195.427 351.156 195.102 351.086 194.805 350.945C194.508 350.805 194.271 350.57 194.094 350.242C193.922 349.909 193.836 349.461 193.836 348.898V340.492ZM200.125 342.547V351H198.672V342.547H200.125ZM198.562 340.305C198.562 340.07 198.633 339.872 198.773 339.711C198.919 339.549 199.133 339.469 199.414 339.469C199.69 339.469 199.901 339.549 200.047 339.711C200.198 339.872 200.273 340.07 200.273 340.305C200.273 340.529 200.198 340.721 200.047 340.883C199.901 341.039 199.69 341.117 199.414 341.117C199.133 341.117 198.919 341.039 198.773 340.883C198.633 340.721 198.562 340.529 198.562 340.305ZM203.883 344.227V351H202.43V342.547H203.805L203.883 344.227ZM203.586 346.453L202.914 346.43C202.919 345.654 203.049 344.964 203.305 344.359C203.565 343.75 203.948 343.271 204.453 342.922C204.958 342.568 205.589 342.391 206.344 342.391C207.135 342.391 207.789 342.622 208.305 343.086C208.82 343.549 209.078 344.31 209.078 345.367V351H207.633V345.438C207.633 344.995 207.557 344.641 207.406 344.375C207.26 344.109 207.052 343.917 206.781 343.797C206.51 343.672 206.193 343.609 205.828 343.609C205.401 343.609 205.044 343.685 204.758 343.836C204.471 343.987 204.242 344.195 204.07 344.461C203.898 344.727 203.773 345.031 203.695 345.375C203.622 345.714 203.586 346.073 203.586 346.453ZM209.062 345.656L208.094 345.953C208.104 345.333 208.237 344.753 208.492 344.211C208.753 343.669 209.13 343.232 209.625 342.898C210.125 342.56 210.734 342.391 211.453 342.391C212.057 342.391 212.57 342.497 212.992 342.711C213.414 342.924 213.734 343.255 213.953 343.703C214.177 344.151 214.289 344.732 214.289 345.445V351H212.836V345.43C212.836 344.956 212.76 344.589 212.609 344.328C212.464 344.062 212.255 343.878 211.984 343.773C211.719 343.664 211.401 343.609 211.031 343.609C210.714 343.609 210.432 343.664 210.188 343.773C209.943 343.883 209.737 344.034 209.57 344.227C209.404 344.414 209.276 344.63 209.188 344.875C209.104 345.12 209.062 345.38 209.062 345.656ZM219.984 351.156C219.198 351.156 218.513 350.982 217.93 350.633C217.352 350.284 216.901 349.802 216.578 349.188C216.26 348.568 216.102 347.862 216.102 347.07V346.742C216.102 345.82 216.276 345.036 216.625 344.391C216.979 343.74 217.438 343.245 218 342.906C218.568 342.562 219.167 342.391 219.797 342.391C220.604 342.391 221.263 342.573 221.773 342.938C222.289 343.297 222.667 343.789 222.906 344.414C223.151 345.034 223.273 345.74 223.273 346.531V347.18H216.961V346H221.828V345.891C221.807 345.516 221.729 345.151 221.594 344.797C221.464 344.443 221.255 344.151 220.969 343.922C220.682 343.693 220.292 343.578 219.797 343.578C219.359 343.578 218.971 343.701 218.633 343.945C218.294 344.19 218.029 344.549 217.836 345.023C217.648 345.492 217.555 346.065 217.555 346.742V347.07C217.555 347.602 217.654 348.089 217.852 348.531C218.049 348.969 218.336 349.32 218.711 349.586C219.086 349.846 219.536 349.977 220.062 349.977C220.573 349.977 221.005 349.872 221.359 349.664C221.714 349.456 222.023 349.177 222.289 348.828L223.164 349.523C222.893 349.94 222.505 350.318 222 350.656C221.495 350.99 220.823 351.156 219.984 351.156ZM226.406 343.875V351H224.961V342.547H226.367L226.406 343.875ZM229.047 342.5L229.039 343.844C228.919 343.818 228.805 343.802 228.695 343.797C228.591 343.786 228.471 343.781 228.336 343.781C227.888 343.781 227.513 343.872 227.211 344.055C226.909 344.237 226.672 344.487 226.5 344.805C226.333 345.117 226.229 345.479 226.188 345.891L225.781 346.125C225.781 345.448 225.872 344.828 226.055 344.266C226.237 343.698 226.521 343.245 226.906 342.906C227.297 342.562 227.797 342.391 228.406 342.391C228.51 342.391 228.63 342.404 228.766 342.43C228.901 342.451 228.995 342.474 229.047 342.5ZM236.125 343.875V351H234.68V342.547H236.086L236.125 343.875ZM238.766 342.5L238.758 343.844C238.638 343.818 238.523 343.802 238.414 343.797C238.31 343.786 238.19 343.781 238.055 343.781C237.607 343.781 237.232 343.872 236.93 344.055C236.628 344.237 236.391 344.487 236.219 344.805C236.052 345.117 235.948 345.479 235.906 345.891L235.5 346.125C235.5 345.448 235.591 344.828 235.773 344.266C235.956 343.698 236.24 343.245 236.625 342.906C237.016 342.562 237.516 342.391 238.125 342.391C238.229 342.391 238.349 342.404 238.484 342.43C238.62 342.451 238.714 342.474 238.766 342.5ZM245.273 349.047V342.547H246.727V351H245.344L245.273 349.047ZM245.547 347.266L246.148 347.25C246.148 348 246.042 348.669 245.828 349.258C245.615 349.846 245.266 350.31 244.781 350.648C244.297 350.987 243.651 351.156 242.844 351.156C242.016 351.156 241.346 350.911 240.836 350.422C240.326 349.932 240.07 349.125 240.07 348V342.547H241.516V348.016C241.516 348.521 241.589 348.914 241.734 349.195C241.885 349.471 242.081 349.664 242.32 349.773C242.56 349.878 242.81 349.93 243.07 349.93C243.685 349.93 244.172 349.812 244.531 349.578C244.891 349.339 245.148 349.018 245.305 348.617C245.466 348.211 245.547 347.76 245.547 347.266ZM250.375 344.352V351H248.93V342.547H250.297L250.375 344.352ZM250.031 346.453L249.43 346.43C249.44 345.654 249.589 344.964 249.875 344.359C250.161 343.75 250.56 343.271 251.07 342.922C251.586 342.568 252.185 342.391 252.867 342.391C253.424 342.391 253.904 342.492 254.305 342.695C254.711 342.898 255.023 343.227 255.242 343.68C255.466 344.128 255.578 344.721 255.578 345.461V351H254.125V345.445C254.125 345.003 254.06 344.648 253.93 344.383C253.799 344.112 253.609 343.917 253.359 343.797C253.109 343.672 252.802 343.609 252.438 343.609C252.078 343.609 251.75 343.685 251.453 343.836C251.161 343.987 250.909 344.195 250.695 344.461C250.487 344.727 250.323 345.031 250.203 345.375C250.089 345.714 250.031 346.073 250.031 346.453ZM262.695 348.758C262.695 348.549 262.648 348.357 262.555 348.18C262.466 347.997 262.281 347.833 262 347.688C261.724 347.536 261.307 347.406 260.75 347.297C260.125 347.167 259.583 347 259.125 346.797C258.672 346.594 258.32 346.336 258.07 346.023C257.826 345.711 257.703 345.323 257.703 344.859C257.703 344.411 257.831 344.003 258.086 343.633C258.346 343.258 258.711 342.958 259.18 342.734C259.654 342.505 260.206 342.391 260.836 342.391C261.513 342.391 262.091 342.51 262.57 342.75C263.049 342.99 263.417 343.31 263.672 343.711C263.927 344.107 264.055 344.547 264.055 345.031H262.609C262.609 344.682 262.456 344.354 262.148 344.047C261.846 343.734 261.409 343.578 260.836 343.578C260.435 343.578 260.109 343.641 259.859 343.766C259.615 343.885 259.435 344.039 259.32 344.227C259.211 344.414 259.156 344.612 259.156 344.82C259.156 345.029 259.208 345.208 259.312 345.359C259.417 345.51 259.607 345.646 259.883 345.766C260.164 345.885 260.57 346.005 261.102 346.125C261.794 346.281 262.365 346.469 262.812 346.688C263.26 346.906 263.594 347.174 263.812 347.492C264.031 347.81 264.141 348.195 264.141 348.648C264.141 349.143 264.005 349.581 263.734 349.961C263.464 350.336 263.083 350.63 262.594 350.844C262.104 351.052 261.531 351.156 260.875 351.156C260.13 351.156 259.5 351.023 258.984 350.758C258.469 350.492 258.078 350.148 257.812 349.727C257.547 349.305 257.414 348.859 257.414 348.391H258.867C258.888 348.786 259.003 349.102 259.211 349.336C259.419 349.565 259.674 349.729 259.977 349.828C260.279 349.922 260.578 349.969 260.875 349.969C261.271 349.969 261.602 349.917 261.867 349.812C262.138 349.708 262.344 349.565 262.484 349.383C262.625 349.201 262.695 348.992 262.695 348.758ZM269.953 346.867V346.688C269.953 345.87 270.109 345.138 270.422 344.492C270.734 343.846 271.177 343.336 271.75 342.961C272.323 342.581 273.003 342.391 273.789 342.391C274.586 342.391 275.271 342.581 275.844 342.961C276.422 343.336 276.867 343.846 277.18 344.492C277.492 345.138 277.648 345.87 277.648 346.688V346.867C277.648 347.68 277.492 348.411 277.18 349.062C276.867 349.708 276.424 350.219 275.852 350.594C275.279 350.969 274.596 351.156 273.805 351.156C273.013 351.156 272.328 350.969 271.75 350.594C271.177 350.219 270.734 349.708 270.422 349.062C270.109 348.411 269.953 347.68 269.953 346.867ZM271.398 346.688V346.867C271.398 347.424 271.487 347.94 271.664 348.414C271.841 348.883 272.107 349.26 272.461 349.547C272.82 349.828 273.268 349.969 273.805 349.969C274.336 349.969 274.779 349.828 275.133 349.547C275.487 349.26 275.753 348.883 275.93 348.414C276.107 347.94 276.195 347.424 276.195 346.867V346.688C276.195 346.135 276.104 345.625 275.922 345.156C275.745 344.682 275.479 344.302 275.125 344.016C274.771 343.724 274.326 343.578 273.789 343.578C273.258 343.578 272.815 343.724 272.461 344.016C272.107 344.302 271.841 344.682 271.664 345.156C271.487 345.625 271.398 346.135 271.398 346.688ZM284.633 349.047V342.547H286.086V351H284.703L284.633 349.047ZM284.906 347.266L285.508 347.25C285.508 348 285.401 348.669 285.188 349.258C284.974 349.846 284.625 350.31 284.141 350.648C283.656 350.987 283.01 351.156 282.203 351.156C281.375 351.156 280.706 350.911 280.195 350.422C279.685 349.932 279.43 349.125 279.43 348V342.547H280.875V348.016C280.875 348.521 280.948 348.914 281.094 349.195C281.245 349.471 281.44 349.664 281.68 349.773C281.919 349.878 282.169 349.93 282.43 349.93C283.044 349.93 283.531 349.812 283.891 349.578C284.25 349.339 284.508 349.018 284.664 348.617C284.826 348.211 284.906 347.76 284.906 347.266ZM291.828 342.547V343.656H287.258V342.547H291.828ZM288.805 340.492H290.25V348.906C290.25 349.193 290.294 349.409 290.383 349.555C290.471 349.701 290.586 349.797 290.727 349.844C290.867 349.891 291.018 349.914 291.18 349.914C291.299 349.914 291.424 349.904 291.555 349.883C291.69 349.857 291.792 349.836 291.859 349.82L291.867 351C291.753 351.036 291.602 351.07 291.414 351.102C291.232 351.138 291.01 351.156 290.75 351.156C290.396 351.156 290.07 351.086 289.773 350.945C289.477 350.805 289.24 350.57 289.062 350.242C288.891 349.909 288.805 349.461 288.805 348.898V340.492ZM293.555 349.961C293.555 349.674 293.656 349.43 293.859 349.227C294.062 349.018 294.307 348.914 294.594 348.914C294.88 348.914 295.125 349.018 295.328 349.227C295.531 349.43 295.633 349.674 295.633 349.961C295.633 350.247 295.531 350.492 295.328 350.695C295.125 350.898 294.88 351 294.594 351C294.307 351 294.062 350.901 293.859 350.703C293.656 350.505 293.555 350.258 293.555 349.961Z" fill="#26282E" fill-opacity="0.75"/>
<g clip-path="url(#clip0_16026_622)">
<rect x="76" y="384" width="62" height="36" rx="3" fill="white" fill-opacity="0.9"/>
<rect x="76.5" y="384.5" width="61" height="35" rx="2.5" stroke="#26282E" stroke-opacity="0.3"/>
<path d="M96.2393 399.189V400.816C96.2393 401.855 96.1048 402.692 95.8359 403.325C95.5671 403.959 95.1888 404.419 94.7012 404.706C94.2135 404.993 93.6416 405.137 92.9854 405.137C92.3337 405.137 91.7617 404.993 91.2695 404.706C90.7773 404.419 90.3945 403.959 90.1211 403.325C89.8477 402.692 89.7109 401.855 89.7109 400.816V399.189C89.7109 398.15 89.8454 397.319 90.1143 396.694C90.3877 396.065 90.7682 395.612 91.2559 395.334C91.748 395.051 92.32 394.91 92.9717 394.91C93.6279 394.91 94.1999 395.051 94.6875 395.334C95.1797 395.612 95.5602 396.065 95.8291 396.694C96.1025 397.319 96.2393 398.15 96.2393 399.189ZM94.5918 401.049V398.943C94.5918 398.278 94.528 397.745 94.4004 397.344C94.2773 396.943 94.0951 396.656 93.8535 396.482C93.612 396.305 93.318 396.216 92.9717 396.216C92.6299 396.216 92.3382 396.305 92.0967 396.482C91.8597 396.656 91.6774 396.943 91.5498 397.344C91.4268 397.745 91.3652 398.278 91.3652 398.943V401.049C91.3652 401.714 91.4268 402.252 91.5498 402.662C91.6774 403.068 91.862 403.364 92.1035 403.551C92.3496 403.733 92.6436 403.824 92.9854 403.824C93.3363 403.824 93.6302 403.733 93.8672 403.551C94.1042 403.364 94.2842 403.068 94.4072 402.662C94.5303 402.252 94.5918 401.714 94.5918 401.049ZM102.686 394.985H102.891V396.332H102.774C102.187 396.332 101.678 396.423 101.25 396.605C100.826 396.788 100.478 397.038 100.204 397.357C99.9307 397.676 99.7256 398.05 99.5889 398.479C99.4567 398.902 99.3906 399.354 99.3906 399.832V401.397C99.3906 401.926 99.4658 402.37 99.6162 402.73C99.7712 403.09 99.9762 403.364 100.231 403.551C100.491 403.733 100.778 403.824 101.093 403.824C101.43 403.824 101.717 403.735 101.954 403.558C102.196 403.38 102.38 403.138 102.508 402.833C102.64 402.523 102.706 402.17 102.706 401.773C102.706 401.4 102.645 401.056 102.521 400.741C102.398 400.427 102.216 400.178 101.975 399.996C101.733 399.809 101.435 399.716 101.079 399.716C100.751 399.716 100.452 399.793 100.184 399.948C99.9193 400.103 99.7051 400.306 99.541 400.557C99.3815 400.803 99.2949 401.065 99.2812 401.343L98.6523 401.138C98.7025 400.573 98.8529 400.085 99.1035 399.675C99.3587 399.265 99.6914 398.95 100.102 398.731C100.512 398.513 100.979 398.403 101.503 398.403C102.146 398.403 102.676 398.561 103.096 398.875C103.515 399.189 103.827 399.6 104.032 400.105C104.242 400.611 104.347 401.154 104.347 401.732C104.347 402.37 104.217 402.947 103.957 403.462C103.702 403.972 103.333 404.38 102.85 404.686C102.367 404.986 101.788 405.137 101.113 405.137C100.58 405.137 100.104 405.034 99.6846 404.829C99.2699 404.624 98.9167 404.341 98.625 403.981C98.3379 403.621 98.1191 403.207 97.9688 402.737C97.8184 402.268 97.7432 401.771 97.7432 401.247V400.563C97.7432 399.807 97.8389 399.094 98.0303 398.424C98.2217 397.749 98.5156 397.155 98.9121 396.64C99.3132 396.125 99.8258 395.721 100.45 395.43C101.075 395.133 101.82 394.985 102.686 394.985ZM105.857 399.935C105.857 399.638 105.96 399.39 106.165 399.189C106.375 398.989 106.625 398.889 106.917 398.889C107.209 398.889 107.457 398.989 107.662 399.189C107.872 399.39 107.977 399.636 107.977 399.928C107.977 400.219 107.872 400.465 107.662 400.666C107.457 400.867 107.209 400.967 106.917 400.967C106.621 400.967 106.37 400.869 106.165 400.673C105.96 400.477 105.857 400.231 105.857 399.935ZM105.857 403.954C105.857 403.662 105.96 403.416 106.165 403.216C106.375 403.015 106.625 402.915 106.917 402.915C107.209 402.915 107.457 403.015 107.662 403.216C107.872 403.416 107.977 403.662 107.977 403.954C107.977 404.246 107.872 404.492 107.662 404.692C107.457 404.893 107.209 404.993 106.917 404.993C106.621 404.993 106.37 404.895 106.165 404.699C105.96 404.499 105.857 404.25 105.857 403.954ZM116.159 399.189V400.816C116.159 401.855 116.025 402.692 115.756 403.325C115.487 403.959 115.109 404.419 114.621 404.706C114.133 404.993 113.562 405.137 112.905 405.137C112.254 405.137 111.682 404.993 111.189 404.706C110.697 404.419 110.314 403.959 110.041 403.325C109.768 402.692 109.631 401.855 109.631 400.816V399.189C109.631 398.15 109.765 397.319 110.034 396.694C110.308 396.065 110.688 395.612 111.176 395.334C111.668 395.051 112.24 394.91 112.892 394.91C113.548 394.91 114.12 395.051 114.607 395.334C115.1 395.612 115.48 396.065 115.749 396.694C116.022 397.319 116.159 398.15 116.159 399.189ZM114.512 401.049V398.943C114.512 398.278 114.448 397.745 114.32 397.344C114.197 396.943 114.015 396.656 113.773 396.482C113.532 396.305 113.238 396.216 112.892 396.216C112.55 396.216 112.258 396.305 112.017 396.482C111.78 396.656 111.597 396.943 111.47 397.344C111.347 397.745 111.285 398.278 111.285 398.943V401.049C111.285 401.714 111.347 402.252 111.47 402.662C111.597 403.068 111.782 403.364 112.023 403.551C112.27 403.733 112.563 403.824 112.905 403.824C113.256 403.824 113.55 403.733 113.787 403.551C114.024 403.364 114.204 403.068 114.327 402.662C114.45 402.252 114.512 401.714 114.512 401.049ZM124.116 399.189V400.816C124.116 401.855 123.982 402.692 123.713 403.325C123.444 403.959 123.066 404.419 122.578 404.706C122.09 404.993 121.519 405.137 120.862 405.137C120.211 405.137 119.639 404.993 119.146 404.706C118.654 404.419 118.271 403.959 117.998 403.325C117.725 402.692 117.588 401.855 117.588 400.816V399.189C117.588 398.15 117.722 397.319 117.991 396.694C118.265 396.065 118.645 395.612 119.133 395.334C119.625 395.051 120.197 394.91 120.849 394.91C121.505 394.91 122.077 395.051 122.564 395.334C123.057 395.612 123.437 396.065 123.706 396.694C123.979 397.319 124.116 398.15 124.116 399.189ZM122.469 401.049V398.943C122.469 398.278 122.405 397.745 122.277 397.344C122.154 396.943 121.972 396.656 121.73 396.482C121.489 396.305 121.195 396.216 120.849 396.216C120.507 396.216 120.215 396.305 119.974 396.482C119.737 396.656 119.554 396.943 119.427 397.344C119.304 397.745 119.242 398.278 119.242 398.943V401.049C119.242 401.714 119.304 402.252 119.427 402.662C119.554 403.068 119.739 403.364 119.98 403.551C120.227 403.733 120.521 403.824 120.862 403.824C121.213 403.824 121.507 403.733 121.744 403.551C121.981 403.364 122.161 403.068 122.284 402.662C122.407 402.252 122.469 401.714 122.469 401.049Z" fill="#26282E" fill-opacity="0.85"/>
<rect x="148" y="384" width="80" height="36" rx="3" fill="white" fill-opacity="0.9"/>
<rect x="148.5" y="384.5" width="79" height="35" rx="2.5" stroke="#26282E" stroke-opacity="0.3"/>
<path d="M163.687 399.278H164.671C165.054 399.278 165.37 399.212 165.621 399.08C165.876 398.948 166.065 398.766 166.188 398.533C166.312 398.301 166.373 398.034 166.373 397.733C166.373 397.419 166.316 397.15 166.202 396.927C166.093 396.699 165.924 396.523 165.696 396.4C165.473 396.277 165.188 396.216 164.842 396.216C164.55 396.216 164.286 396.275 164.049 396.394C163.816 396.507 163.632 396.672 163.495 396.886C163.358 397.095 163.29 397.346 163.29 397.638H161.636C161.636 397.109 161.775 396.64 162.053 396.229C162.331 395.819 162.709 395.498 163.188 395.266C163.671 395.029 164.213 394.91 164.814 394.91C165.457 394.91 166.018 395.017 166.496 395.231C166.979 395.441 167.355 395.756 167.624 396.175C167.893 396.594 168.027 397.114 168.027 397.733C168.027 398.016 167.961 398.303 167.829 398.595C167.697 398.886 167.501 399.153 167.241 399.395C166.981 399.632 166.658 399.825 166.271 399.976C165.883 400.121 165.434 400.194 164.924 400.194H163.687V399.278ZM163.687 400.563V399.661H164.924C165.507 399.661 166.004 399.729 166.414 399.866C166.829 400.003 167.166 400.192 167.426 400.434C167.686 400.671 167.875 400.942 167.993 401.247C168.116 401.552 168.178 401.876 168.178 402.218C168.178 402.838 168.03 403.366 167.733 403.804C167.442 404.237 167.043 404.567 166.537 404.795C166.031 405.023 165.459 405.137 164.821 405.137C164.393 405.137 163.983 405.077 163.591 404.959C163.199 404.84 162.848 404.665 162.538 404.433C162.228 404.196 161.982 403.902 161.8 403.551C161.622 403.195 161.533 402.785 161.533 402.32H163.181C163.181 402.617 163.249 402.879 163.386 403.106C163.527 403.33 163.723 403.505 163.974 403.633C164.229 403.76 164.521 403.824 164.849 403.824C165.373 403.824 165.783 403.685 166.079 403.407C166.375 403.129 166.523 402.733 166.523 402.218C166.523 401.83 166.448 401.516 166.298 401.274C166.147 401.033 165.933 400.855 165.655 400.741C165.377 400.623 165.049 400.563 164.671 400.563H163.687ZM178.842 402.437C178.842 402.163 178.783 401.928 178.664 401.732C178.55 401.536 178.338 401.356 178.028 401.192C177.723 401.028 177.281 400.857 176.702 400.68C176.073 400.488 175.51 400.263 175.014 400.003C174.517 399.739 174.125 399.417 173.838 399.039C173.555 398.656 173.414 398.194 173.414 397.651C173.414 397.114 173.562 396.64 173.858 396.229C174.159 395.819 174.576 395.498 175.109 395.266C175.643 395.029 176.26 394.91 176.962 394.91C177.7 394.91 178.336 395.047 178.869 395.32C179.407 395.594 179.819 395.961 180.106 396.421C180.398 396.881 180.544 397.389 180.544 397.945H178.842C178.842 397.617 178.771 397.328 178.63 397.077C178.493 396.822 178.284 396.621 178.001 396.476C177.723 396.33 177.37 396.257 176.941 396.257C176.536 396.257 176.199 396.318 175.93 396.441C175.661 396.564 175.46 396.731 175.328 396.94C175.196 397.15 175.13 397.387 175.13 397.651C175.13 397.897 175.207 398.116 175.362 398.308C175.517 398.499 175.752 398.674 176.066 398.834C176.385 398.989 176.789 399.137 177.276 399.278C178.01 399.497 178.621 399.75 179.108 400.037C179.596 400.32 179.961 400.655 180.202 401.042C180.444 401.429 180.564 401.89 180.564 402.423C180.564 402.983 180.416 403.466 180.12 403.872C179.828 404.278 179.416 404.59 178.883 404.809C178.354 405.027 177.732 405.137 177.017 405.137C176.538 405.137 176.066 405.073 175.602 404.945C175.141 404.818 174.722 404.624 174.344 404.364C173.965 404.1 173.665 403.772 173.441 403.38C173.218 402.983 173.106 402.521 173.106 401.992H174.822C174.822 402.316 174.877 402.591 174.986 402.819C175.1 403.047 175.257 403.234 175.458 403.38C175.659 403.521 175.891 403.626 176.155 403.694C176.424 403.763 176.711 403.797 177.017 403.797C177.418 403.797 177.753 403.74 178.021 403.626C178.295 403.512 178.5 403.353 178.637 403.147C178.773 402.942 178.842 402.705 178.842 402.437ZM186.177 395.047V405H184.475V395.047H186.177ZM189.301 395.047V396.414H181.378V395.047H189.301ZM197.128 403.64V405H191.844V403.64H197.128ZM192.329 395.047V405H190.613V395.047H192.329ZM196.438 399.203V400.543H191.844V399.203H196.438ZM197.094 395.047V396.414H191.844V395.047H197.094ZM202.31 401.288H199.719V399.928H202.31C202.761 399.928 203.125 399.855 203.403 399.709C203.681 399.563 203.884 399.363 204.012 399.107C204.144 398.848 204.21 398.551 204.21 398.219C204.21 397.904 204.144 397.61 204.012 397.337C203.884 397.059 203.681 396.836 203.403 396.667C203.125 396.498 202.761 396.414 202.31 396.414H200.245V405H198.529V395.047H202.31C203.08 395.047 203.734 395.184 204.271 395.457C204.814 395.726 205.226 396.1 205.509 396.578C205.791 397.052 205.933 397.594 205.933 398.205C205.933 398.848 205.791 399.399 205.509 399.859C205.226 400.32 204.814 400.673 204.271 400.919C203.734 401.165 203.08 401.288 202.31 401.288ZM212.707 402.437C212.707 402.163 212.648 401.928 212.529 401.732C212.415 401.536 212.203 401.356 211.894 401.192C211.588 401.028 211.146 400.857 210.567 400.68C209.938 400.488 209.376 400.263 208.879 400.003C208.382 399.739 207.99 399.417 207.703 399.039C207.421 398.656 207.279 398.194 207.279 397.651C207.279 397.114 207.427 396.64 207.724 396.229C208.024 395.819 208.441 395.498 208.975 395.266C209.508 395.029 210.125 394.91 210.827 394.91C211.565 394.91 212.201 395.047 212.734 395.32C213.272 395.594 213.685 395.961 213.972 396.421C214.263 396.881 214.409 397.389 214.409 397.945H212.707C212.707 397.617 212.636 397.328 212.495 397.077C212.358 396.822 212.149 396.621 211.866 396.476C211.588 396.33 211.235 396.257 210.807 396.257C210.401 396.257 210.064 396.318 209.795 396.441C209.526 396.564 209.326 396.731 209.193 396.94C209.061 397.15 208.995 397.387 208.995 397.651C208.995 397.897 209.073 398.116 209.228 398.308C209.382 398.499 209.617 398.674 209.932 398.834C210.251 398.989 210.654 399.137 211.142 399.278C211.875 399.497 212.486 399.75 212.974 400.037C213.461 400.32 213.826 400.655 214.067 401.042C214.309 401.429 214.43 401.89 214.43 402.423C214.43 402.983 214.282 403.466 213.985 403.872C213.694 404.278 213.281 404.59 212.748 404.809C212.219 405.027 211.597 405.137 210.882 405.137C210.403 405.137 209.932 405.073 209.467 404.945C209.007 404.818 208.587 404.624 208.209 404.364C207.831 404.1 207.53 403.772 207.307 403.38C207.083 402.983 206.972 402.521 206.972 401.992H208.688C208.688 402.316 208.742 402.591 208.852 402.819C208.965 403.047 209.123 403.234 209.323 403.38C209.524 403.521 209.756 403.626 210.021 403.694C210.289 403.763 210.576 403.797 210.882 403.797C211.283 403.797 211.618 403.74 211.887 403.626C212.16 403.512 212.365 403.353 212.502 403.147C212.639 402.942 212.707 402.705 212.707 402.437Z" fill="#26282E" fill-opacity="0.85"/>
</g>
<rect x="802" y="58.917" width="100" height="100" rx="50" transform="rotate(-8 802 58.917)" fill="#9FAA7D"/>
<path d="M835.427 108.559C835.371 108.159 835.24 107.822 835.033 107.55C834.826 107.277 834.464 107.039 833.947 106.837C833.429 106.626 832.674 106.43 831.681 106.25C830.515 106.032 829.4 105.741 828.337 105.375C827.281 105 826.39 104.473 825.665 103.794C824.948 103.114 824.509 102.203 824.349 101.063C824.196 99.9753 824.381 98.9863 824.904 98.0963C825.427 97.2063 826.206 96.4666 827.241 95.8773C828.286 95.2868 829.508 94.8931 830.91 94.6961C832.302 94.5004 833.564 94.5716 834.694 94.9098C835.832 95.238 836.763 95.8038 837.489 96.6072C838.221 97.4006 838.672 98.3979 838.841 99.599L834.285 100.239C834.217 99.7606 834.058 99.3526 833.806 99.0152C833.564 98.6765 833.232 98.4303 832.811 98.2764C832.39 98.1226 831.883 98.0873 831.291 98.1704C830.717 98.2512 830.246 98.4061 829.879 98.6352C829.512 98.8643 829.249 99.1409 829.09 99.465C828.93 99.7803 828.875 100.112 828.924 100.46C828.977 100.834 829.163 101.15 829.483 101.407C829.803 101.664 830.241 101.877 830.798 102.047C831.354 102.218 832.01 102.37 832.766 102.503C834.175 102.74 835.389 103.075 836.408 103.509C837.437 103.941 838.254 104.514 838.86 105.228C839.474 105.931 839.856 106.819 840.006 107.889C840.166 109.029 840.011 110.041 839.541 110.923C839.069 111.797 838.336 112.517 837.341 113.083C836.354 113.639 835.151 114.016 833.733 114.216C832.758 114.353 831.779 114.366 830.796 114.256C829.821 114.135 828.914 113.872 828.076 113.467C827.237 113.052 826.529 112.472 825.954 111.728C825.387 110.973 825.024 110.035 824.866 108.912L829.462 108.266C829.54 108.823 829.68 109.283 829.882 109.645C830.084 110.007 830.345 110.285 830.665 110.48C830.984 110.666 831.36 110.782 831.792 110.827C832.223 110.864 832.709 110.845 833.248 110.769C833.832 110.687 834.29 110.539 834.624 110.323C834.956 110.099 835.185 109.836 835.311 109.534C835.436 109.224 835.475 108.899 835.427 108.559ZM857.778 100.492L857.886 101.262C858.159 103.203 858.041 104.924 857.533 106.424C857.024 107.916 856.196 109.128 855.049 110.062C853.911 110.994 852.532 111.574 850.914 111.801C849.286 112.03 847.792 111.854 846.433 111.273C845.073 110.692 843.938 109.755 843.029 108.463C842.127 107.161 841.54 105.539 841.267 103.598L841.159 102.828C840.886 100.887 841.004 99.1664 841.512 97.666C842.02 96.1657 842.843 94.9494 843.981 94.0173C845.128 93.084 846.515 92.5029 848.143 92.2742C849.761 92.0467 851.251 92.2234 852.61 92.8045C853.97 93.3856 855.101 94.3272 856.003 95.6294C856.914 96.9303 857.505 98.5513 857.778 100.492ZM853.239 101.916L853.127 101.119C852.951 99.8659 852.659 98.833 852.252 98.0204C851.844 97.1991 851.335 96.6094 850.725 96.2513C850.123 95.8833 849.43 95.7543 848.647 95.8644C847.838 95.9781 847.194 96.2949 846.717 96.8146C846.239 97.3256 845.925 98.0309 845.776 98.9305C845.626 99.8213 845.64 100.893 845.816 102.147L845.928 102.943C846.101 104.179 846.384 105.213 846.776 106.046C847.176 106.868 847.677 107.468 848.281 107.844C848.891 108.211 849.601 108.338 850.411 108.224C851.194 108.114 851.824 107.799 852.302 107.279C852.778 106.751 853.094 106.036 853.252 105.136C853.417 104.225 853.412 103.152 853.239 101.916ZM873.607 104.751L874.102 108.276L864.494 109.626L863.998 106.101L873.607 104.751ZM863.454 90.3886L866.125 109.397L861.543 110.041L858.872 91.0326L863.454 90.3886ZM889.868 95.9822L889.976 96.7525C890.249 98.6934 890.131 100.414 889.623 101.914C889.114 103.406 888.286 104.618 887.139 105.552C886.001 106.484 884.622 107.064 883.003 107.291C881.376 107.52 879.882 107.344 878.523 106.763C877.163 106.182 876.028 105.245 875.119 103.953C874.217 102.651 873.63 101.029 873.357 99.0882L873.249 98.3179C872.976 96.377 873.093 94.6564 873.601 93.1561C874.11 91.6557 874.933 90.4395 876.071 89.5074C877.218 88.574 878.605 87.993 880.233 87.7642C881.851 87.5367 883.341 87.7135 884.7 88.2946C886.06 88.8756 887.191 89.8173 888.093 91.1194C889.003 92.4204 889.595 94.0413 889.868 95.9822ZM885.329 97.4057L885.217 96.6093C885.04 95.356 884.749 94.323 884.342 93.5105C883.933 92.6892 883.425 92.0995 882.815 91.7414C882.213 91.3733 881.52 91.2444 880.737 91.3544C879.928 91.4682 879.284 91.7849 878.807 92.3047C878.329 92.8157 878.015 93.521 877.866 94.4205C877.716 95.3114 877.729 96.3835 877.906 97.6368L878.018 98.4332C878.191 99.6691 878.474 100.703 878.866 101.536C879.266 102.358 879.767 102.958 880.371 103.335C880.981 103.701 881.691 103.828 882.501 103.714C883.284 103.604 883.914 103.289 884.392 102.769C884.868 102.241 885.184 101.526 885.342 100.626C885.507 99.7149 885.502 98.6416 885.329 97.4057Z" fill="#26282E"/>
<path d="M908 32H928V52" stroke="#BC5A37" stroke-width="3" stroke-linecap="square"/>
<path d="M32 488V508H52" stroke="#BC5A37" stroke-width="3" stroke-linecap="square"/>
<path d="M751.542 424.701L730.129 413.263V382.867C730.129 370.141 719.729 359.756 707.05 359.756H640.852C628.144 359.756 617.773 370.17 617.773 382.867V406.563C617.773 419.289 628.173 429.675 640.852 429.675H719.787H724.023H750.316C753.062 429.675 753.967 425.988 751.542 424.701Z" fill="#F9F5EF"/>
<path d="M505.489 441.722L527.566 429.912V398.532C527.566 385.394 538.288 374.672 551.36 374.672H619.61C632.712 374.672 643.404 385.424 643.404 398.532V422.996C643.404 436.134 632.681 446.856 619.61 446.856H538.228H533.861H506.754C503.923 446.856 502.989 443.051 505.489 441.722Z" fill="#D7C0FB"/>
<path d="M621.124 402.794C619.082 402.794 617.426 401.138 617.426 399.096C617.426 397.053 619.082 395.397 621.124 395.397C623.167 395.397 624.823 397.053 624.823 399.096C624.823 401.138 623.167 402.794 621.124 402.794Z" fill="white" fill-opacity="0.9"/>
<path d="M597.127 395.398H611.098C613.141 395.398 614.796 397.054 614.796 399.097C614.796 401.139 613.141 402.795 611.098 402.795H597.127C595.084 402.795 593.428 401.139 593.428 399.097C593.428 397.054 595.084 395.398 597.127 395.398Z" fill="white" fill-opacity="0.9"/>
<path d="M571.485 406.739H622.604C623.829 406.739 624.823 407.733 624.823 408.958C624.823 410.184 623.829 411.177 622.604 411.177H571.485C570.259 411.177 569.266 410.184 569.266 408.958C569.266 407.733 570.259 406.739 571.485 406.739Z" fill="white" fill-opacity="0.9"/>
<path d="M586.442 413.149H622.604C623.829 413.149 624.823 414.143 624.823 415.368C624.823 416.594 623.829 417.587 622.604 417.587H586.442C585.217 417.587 584.223 416.594 584.223 415.368C584.223 414.143 585.217 413.149 586.442 413.149Z" fill="white" fill-opacity="0.9"/>
<path d="M748.746 480.637L727.332 469.198V438.803C727.332 426.077 716.933 415.691 704.253 415.691H638.055C625.347 415.691 614.976 426.107 614.976 438.803V462.499C614.976 475.225 625.376 485.61 638.055 485.61H716.99H721.226H747.519C750.265 485.61 751.17 481.924 748.746 480.637Z" fill="#FFE783"/>
<path d="M636.671 447.376C638.727 447.376 640.394 445.709 640.394 443.652C640.394 441.596 638.727 439.929 636.671 439.929C634.614 439.929 632.947 441.596 632.947 443.652C632.947 445.709 634.614 447.376 636.671 447.376Z" fill="white" fill-opacity="0.9"/>
<path d="M660.83 439.93H646.764C644.708 439.93 643.041 441.597 643.041 443.653C643.041 445.71 644.708 447.377 646.764 447.377H660.83C662.887 447.377 664.554 445.71 664.554 443.653C664.554 441.597 662.887 439.93 660.83 439.93Z" fill="white" fill-opacity="0.9"/>
<path d="M686.648 451.35H635.181C633.948 451.35 632.947 452.35 632.947 453.584C632.947 454.818 633.948 455.818 635.181 455.818H686.648C687.882 455.818 688.882 454.818 688.882 453.584C688.882 452.35 687.882 451.35 686.648 451.35Z" fill="white" fill-opacity="0.9"/>
<path d="M671.589 457.8H635.181C633.948 457.8 632.947 458.8 632.947 460.034C632.947 461.268 633.948 462.268 635.181 462.268H671.589C672.823 462.268 673.823 461.268 673.823 460.034C673.823 458.8 672.823 457.8 671.589 457.8Z" fill="white" fill-opacity="0.9"/>
<defs>
<clipPath id="clip0_16026_622">
<rect width="152" height="36" fill="white" transform="translate(76 384)"/>
</clipPath>
</defs>
</svg>
