<svg width="1920" height="1080" viewBox="0 0 1920 1080" fill="none" xmlns="http://www.w3.org/2000/svg">
<g clip-path="url(#clip0_15951_33865)">
<rect width="1920" height="1080" fill="#BC5A37"/>
<g clip-path="url(#clip1_15951_33865)">
<path d="M136.7 23.3999H23.4V136.7H136.7V23.3999Z" stroke="#F1EBDD" stroke-opacity="0.13" stroke-width="1.4"/>
<path d="M80 0L160 80L80 160L0 80L80 0Z" stroke="#F1EBDD" stroke-opacity="0.13" stroke-width="1.4"/>
<path d="M296.7 23.3999H183.4V136.7H296.7V23.3999Z" stroke="#F1EBDD" stroke-opacity="0.13" stroke-width="1.4"/>
<path d="M240 0L320 80L240 160L160 80L240 0Z" stroke="#F1EBDD" stroke-opacity="0.13" stroke-width="1.4"/>
<path d="M456.7 23.3999H343.4V136.7H456.7V23.3999Z" stroke="#F1EBDD" stroke-opacity="0.13" stroke-width="1.4"/>
<path d="M400 0L480 80L400 160L320 80L400 0Z" stroke="#F1EBDD" stroke-opacity="0.13" stroke-width="1.4"/>
<path d="M616.7 23.3999H503.4V136.7H616.7V23.3999Z" stroke="#F1EBDD" stroke-opacity="0.13" stroke-width="1.4"/>
<path d="M560 0L640 80L560 160L480 80L560 0Z" stroke="#F1EBDD" stroke-opacity="0.13" stroke-width="1.4"/>
<path d="M776.7 23.3999H663.4V136.7H776.7V23.3999Z" stroke="#F1EBDD" stroke-opacity="0.13" stroke-width="1.4"/>
<path d="M720 0L800 80L720 160L640 80L720 0Z" stroke="#F1EBDD" stroke-opacity="0.13" stroke-width="1.4"/>
<path d="M936.7 23.3999H823.4V136.7H936.7V23.3999Z" stroke="#F1EBDD" stroke-opacity="0.13" stroke-width="1.4"/>
<path d="M880 0L960 80L880 160L800 80L880 0Z" stroke="#F1EBDD" stroke-opacity="0.13" stroke-width="1.4"/>
<path d="M1096.7 23.3999H983.4V136.7H1096.7V23.3999Z" stroke="#F1EBDD" stroke-opacity="0.13" stroke-width="1.4"/>
<path d="M1040 0L1120 80L1040 160L960 80L1040 0Z" stroke="#F1EBDD" stroke-opacity="0.13" stroke-width="1.4"/>
<path d="M1256.7 23.3999H1143.4V136.7H1256.7V23.3999Z" stroke="#F1EBDD" stroke-opacity="0.13" stroke-width="1.4"/>
<path d="M1200 0L1280 80L1200 160L1120 80L1200 0Z" stroke="#F1EBDD" stroke-opacity="0.13" stroke-width="1.4"/>
<path d="M1416.7 23.3999H1303.4V136.7H1416.7V23.3999Z" stroke="#F1EBDD" stroke-opacity="0.13" stroke-width="1.4"/>
<path d="M1360 0L1440 80L1360 160L1280 80L1360 0Z" stroke="#F1EBDD" stroke-opacity="0.13" stroke-width="1.4"/>
<path d="M1576.7 23.3999H1463.4V136.7H1576.7V23.3999Z" stroke="#F1EBDD" stroke-opacity="0.13" stroke-width="1.4"/>
<path d="M1520 0L1600 80L1520 160L1440 80L1520 0Z" stroke="#F1EBDD" stroke-opacity="0.13" stroke-width="1.4"/>
<path d="M1736.7 23.3999H1623.4V136.7H1736.7V23.3999Z" stroke="#F1EBDD" stroke-opacity="0.13" stroke-width="1.4"/>
<path d="M1680 0L1760 80L1680 160L1600 80L1680 0Z" stroke="#F1EBDD" stroke-opacity="0.13" stroke-width="1.4"/>
<path d="M1896.7 23.3999H1783.4V136.7H1896.7V23.3999Z" stroke="#F1EBDD" stroke-opacity="0.13" stroke-width="1.4"/>
<path d="M1840 0L1920 80L1840 160L1760 80L1840 0Z" stroke="#F1EBDD" stroke-opacity="0.13" stroke-width="1.4"/>
<path d="M136.7 183.4H23.4V296.7H136.7V183.4Z" stroke="#F1EBDD" stroke-opacity="0.13" stroke-width="1.4"/>
<path d="M80 160L160 240L80 320L0 240L80 160Z" stroke="#F1EBDD" stroke-opacity="0.13" stroke-width="1.4"/>
<path d="M296.7 183.4H183.4V296.7H296.7V183.4Z" stroke="#F1EBDD" stroke-opacity="0.13" stroke-width="1.4"/>
<path d="M240 160L320 240L240 320L160 240L240 160Z" stroke="#F1EBDD" stroke-opacity="0.13" stroke-width="1.4"/>
<path d="M456.7 183.4H343.4V296.7H456.7V183.4Z" stroke="#F1EBDD" stroke-opacity="0.13" stroke-width="1.4"/>
<path d="M400 160L480 240L400 320L320 240L400 160Z" stroke="#F1EBDD" stroke-opacity="0.13" stroke-width="1.4"/>
<path d="M616.7 183.4H503.4V296.7H616.7V183.4Z" stroke="#F1EBDD" stroke-opacity="0.13" stroke-width="1.4"/>
<path d="M560 160L640 240L560 320L480 240L560 160Z" stroke="#F1EBDD" stroke-opacity="0.13" stroke-width="1.4"/>
<path d="M776.7 183.4H663.4V296.7H776.7V183.4Z" stroke="#F1EBDD" stroke-opacity="0.13" stroke-width="1.4"/>
<path d="M720 160L800 240L720 320L640 240L720 160Z" stroke="#F1EBDD" stroke-opacity="0.13" stroke-width="1.4"/>
<path d="M936.7 183.4H823.4V296.7H936.7V183.4Z" stroke="#F1EBDD" stroke-opacity="0.13" stroke-width="1.4"/>
<path d="M880 160L960 240L880 320L800 240L880 160Z" stroke="#F1EBDD" stroke-opacity="0.13" stroke-width="1.4"/>
<path d="M1096.7 183.4H983.4V296.7H1096.7V183.4Z" stroke="#F1EBDD" stroke-opacity="0.13" stroke-width="1.4"/>
<path d="M1040 160L1120 240L1040 320L960 240L1040 160Z" stroke="#F1EBDD" stroke-opacity="0.13" stroke-width="1.4"/>
<path d="M1256.7 183.4H1143.4V296.7H1256.7V183.4Z" stroke="#F1EBDD" stroke-opacity="0.13" stroke-width="1.4"/>
<path d="M1200 160L1280 240L1200 320L1120 240L1200 160Z" stroke="#F1EBDD" stroke-opacity="0.13" stroke-width="1.4"/>
<path d="M1416.7 183.4H1303.4V296.7H1416.7V183.4Z" stroke="#F1EBDD" stroke-opacity="0.13" stroke-width="1.4"/>
<path d="M1360 160L1440 240L1360 320L1280 240L1360 160Z" stroke="#F1EBDD" stroke-opacity="0.13" stroke-width="1.4"/>
<path d="M1576.7 183.4H1463.4V296.7H1576.7V183.4Z" stroke="#F1EBDD" stroke-opacity="0.13" stroke-width="1.4"/>
<path d="M1520 160L1600 240L1520 320L1440 240L1520 160Z" stroke="#F1EBDD" stroke-opacity="0.13" stroke-width="1.4"/>
<path d="M1736.7 183.4H1623.4V296.7H1736.7V183.4Z" stroke="#F1EBDD" stroke-opacity="0.13" stroke-width="1.4"/>
<path d="M1680 160L1760 240L1680 320L1600 240L1680 160Z" stroke="#F1EBDD" stroke-opacity="0.13" stroke-width="1.4"/>
<path d="M1896.7 183.4H1783.4V296.7H1896.7V183.4Z" stroke="#F1EBDD" stroke-opacity="0.13" stroke-width="1.4"/>
<path d="M1840 160L1920 240L1840 320L1760 240L1840 160Z" stroke="#F1EBDD" stroke-opacity="0.13" stroke-width="1.4"/>
<path d="M136.7 343.4H23.4V456.7H136.7V343.4Z" stroke="#F1EBDD" stroke-opacity="0.13" stroke-width="1.4"/>
<path d="M80 320L160 400L80 480L0 400L80 320Z" stroke="#F1EBDD" stroke-opacity="0.13" stroke-width="1.4"/>
<path d="M296.7 343.4H183.4V456.7H296.7V343.4Z" stroke="#F1EBDD" stroke-opacity="0.13" stroke-width="1.4"/>
<path d="M240 320L320 400L240 480L160 400L240 320Z" stroke="#F1EBDD" stroke-opacity="0.13" stroke-width="1.4"/>
<path d="M456.7 343.4H343.4V456.7H456.7V343.4Z" stroke="#F1EBDD" stroke-opacity="0.13" stroke-width="1.4"/>
<path d="M400 320L480 400L400 480L320 400L400 320Z" stroke="#F1EBDD" stroke-opacity="0.13" stroke-width="1.4"/>
<path d="M616.7 343.4H503.4V456.7H616.7V343.4Z" stroke="#F1EBDD" stroke-opacity="0.13" stroke-width="1.4"/>
<path d="M560 320L640 400L560 480L480 400L560 320Z" stroke="#F1EBDD" stroke-opacity="0.13" stroke-width="1.4"/>
<path d="M776.7 343.4H663.4V456.7H776.7V343.4Z" stroke="#F1EBDD" stroke-opacity="0.13" stroke-width="1.4"/>
<path d="M720 320L800 400L720 480L640 400L720 320Z" stroke="#F1EBDD" stroke-opacity="0.13" stroke-width="1.4"/>
<path d="M936.7 343.4H823.4V456.7H936.7V343.4Z" stroke="#F1EBDD" stroke-opacity="0.13" stroke-width="1.4"/>
<path d="M880 320L960 400L880 480L800 400L880 320Z" stroke="#F1EBDD" stroke-opacity="0.13" stroke-width="1.4"/>
<path d="M1096.7 343.4H983.4V456.7H1096.7V343.4Z" stroke="#F1EBDD" stroke-opacity="0.13" stroke-width="1.4"/>
<path d="M1040 320L1120 400L1040 480L960 400L1040 320Z" stroke="#F1EBDD" stroke-opacity="0.13" stroke-width="1.4"/>
<path d="M1256.7 343.4H1143.4V456.7H1256.7V343.4Z" stroke="#F1EBDD" stroke-opacity="0.13" stroke-width="1.4"/>
<path d="M1200 320L1280 400L1200 480L1120 400L1200 320Z" stroke="#F1EBDD" stroke-opacity="0.13" stroke-width="1.4"/>
<path d="M1416.7 343.4H1303.4V456.7H1416.7V343.4Z" stroke="#F1EBDD" stroke-opacity="0.13" stroke-width="1.4"/>
<path d="M1360 320L1440 400L1360 480L1280 400L1360 320Z" stroke="#F1EBDD" stroke-opacity="0.13" stroke-width="1.4"/>
<path d="M1576.7 343.4H1463.4V456.7H1576.7V343.4Z" stroke="#F1EBDD" stroke-opacity="0.13" stroke-width="1.4"/>
<path d="M1520 320L1600 400L1520 480L1440 400L1520 320Z" stroke="#F1EBDD" stroke-opacity="0.13" stroke-width="1.4"/>
<path d="M1736.7 343.4H1623.4V456.7H1736.7V343.4Z" stroke="#F1EBDD" stroke-opacity="0.13" stroke-width="1.4"/>
<path d="M1680 320L1760 400L1680 480L1600 400L1680 320Z" stroke="#F1EBDD" stroke-opacity="0.13" stroke-width="1.4"/>
<path d="M1896.7 343.4H1783.4V456.7H1896.7V343.4Z" stroke="#F1EBDD" stroke-opacity="0.13" stroke-width="1.4"/>
<path d="M1840 320L1920 400L1840 480L1760 400L1840 320Z" stroke="#F1EBDD" stroke-opacity="0.13" stroke-width="1.4"/>
<path d="M136.7 503.4H23.4V616.7H136.7V503.4Z" stroke="#F1EBDD" stroke-opacity="0.13" stroke-width="1.4"/>
<path d="M80 480L160 560L80 640L0 560L80 480Z" stroke="#F1EBDD" stroke-opacity="0.13" stroke-width="1.4"/>
<path d="M296.7 503.4H183.4V616.7H296.7V503.4Z" stroke="#F1EBDD" stroke-opacity="0.13" stroke-width="1.4"/>
<path d="M240 480L320 560L240 640L160 560L240 480Z" stroke="#F1EBDD" stroke-opacity="0.13" stroke-width="1.4"/>
<path d="M456.7 503.4H343.4V616.7H456.7V503.4Z" stroke="#F1EBDD" stroke-opacity="0.13" stroke-width="1.4"/>
<path d="M400 480L480 560L400 640L320 560L400 480Z" stroke="#F1EBDD" stroke-opacity="0.13" stroke-width="1.4"/>
<path d="M616.7 503.4H503.4V616.7H616.7V503.4Z" stroke="#F1EBDD" stroke-opacity="0.13" stroke-width="1.4"/>
<path d="M560 480L640 560L560 640L480 560L560 480Z" stroke="#F1EBDD" stroke-opacity="0.13" stroke-width="1.4"/>
<path d="M776.7 503.4H663.4V616.7H776.7V503.4Z" stroke="#F1EBDD" stroke-opacity="0.13" stroke-width="1.4"/>
<path d="M720 480L800 560L720 640L640 560L720 480Z" stroke="#F1EBDD" stroke-opacity="0.13" stroke-width="1.4"/>
<path d="M936.7 503.4H823.4V616.7H936.7V503.4Z" stroke="#F1EBDD" stroke-opacity="0.13" stroke-width="1.4"/>
<path d="M880 480L960 560L880 640L800 560L880 480Z" stroke="#F1EBDD" stroke-opacity="0.13" stroke-width="1.4"/>
<path d="M1096.7 503.4H983.4V616.7H1096.7V503.4Z" stroke="#F1EBDD" stroke-opacity="0.13" stroke-width="1.4"/>
<path d="M1040 480L1120 560L1040 640L960 560L1040 480Z" stroke="#F1EBDD" stroke-opacity="0.13" stroke-width="1.4"/>
<path d="M1256.7 503.4H1143.4V616.7H1256.7V503.4Z" stroke="#F1EBDD" stroke-opacity="0.13" stroke-width="1.4"/>
<path d="M1200 480L1280 560L1200 640L1120 560L1200 480Z" stroke="#F1EBDD" stroke-opacity="0.13" stroke-width="1.4"/>
<path d="M1416.7 503.4H1303.4V616.7H1416.7V503.4Z" stroke="#F1EBDD" stroke-opacity="0.13" stroke-width="1.4"/>
<path d="M1360 480L1440 560L1360 640L1280 560L1360 480Z" stroke="#F1EBDD" stroke-opacity="0.13" stroke-width="1.4"/>
<path d="M1576.7 503.4H1463.4V616.7H1576.7V503.4Z" stroke="#F1EBDD" stroke-opacity="0.13" stroke-width="1.4"/>
<path d="M1520 480L1600 560L1520 640L1440 560L1520 480Z" stroke="#F1EBDD" stroke-opacity="0.13" stroke-width="1.4"/>
<path d="M1736.7 503.4H1623.4V616.7H1736.7V503.4Z" stroke="#F1EBDD" stroke-opacity="0.13" stroke-width="1.4"/>
<path d="M1680 480L1760 560L1680 640L1600 560L1680 480Z" stroke="#F1EBDD" stroke-opacity="0.13" stroke-width="1.4"/>
<path d="M1896.7 503.4H1783.4V616.7H1896.7V503.4Z" stroke="#F1EBDD" stroke-opacity="0.13" stroke-width="1.4"/>
<path d="M1840 480L1920 560L1840 640L1760 560L1840 480Z" stroke="#F1EBDD" stroke-opacity="0.13" stroke-width="1.4"/>
<path d="M136.7 663.4H23.4V776.7H136.7V663.4Z" stroke="#F1EBDD" stroke-opacity="0.13" stroke-width="1.4"/>
<path d="M80 640L160 720L80 800L0 720L80 640Z" stroke="#F1EBDD" stroke-opacity="0.13" stroke-width="1.4"/>
<path d="M296.7 663.4H183.4V776.7H296.7V663.4Z" stroke="#F1EBDD" stroke-opacity="0.13" stroke-width="1.4"/>
<path d="M240 640L320 720L240 800L160 720L240 640Z" stroke="#F1EBDD" stroke-opacity="0.13" stroke-width="1.4"/>
<path d="M456.7 663.4H343.4V776.7H456.7V663.4Z" stroke="#F1EBDD" stroke-opacity="0.13" stroke-width="1.4"/>
<path d="M400 640L480 720L400 800L320 720L400 640Z" stroke="#F1EBDD" stroke-opacity="0.13" stroke-width="1.4"/>
<path d="M616.7 663.4H503.4V776.7H616.7V663.4Z" stroke="#F1EBDD" stroke-opacity="0.13" stroke-width="1.4"/>
<path d="M560 640L640 720L560 800L480 720L560 640Z" stroke="#F1EBDD" stroke-opacity="0.13" stroke-width="1.4"/>
<path d="M776.7 663.4H663.4V776.7H776.7V663.4Z" stroke="#F1EBDD" stroke-opacity="0.13" stroke-width="1.4"/>
<path d="M720 640L800 720L720 800L640 720L720 640Z" stroke="#F1EBDD" stroke-opacity="0.13" stroke-width="1.4"/>
<path d="M936.7 663.4H823.4V776.7H936.7V663.4Z" stroke="#F1EBDD" stroke-opacity="0.13" stroke-width="1.4"/>
<path d="M880 640L960 720L880 800L800 720L880 640Z" stroke="#F1EBDD" stroke-opacity="0.13" stroke-width="1.4"/>
<path d="M1096.7 663.4H983.4V776.7H1096.7V663.4Z" stroke="#F1EBDD" stroke-opacity="0.13" stroke-width="1.4"/>
<path d="M1040 640L1120 720L1040 800L960 720L1040 640Z" stroke="#F1EBDD" stroke-opacity="0.13" stroke-width="1.4"/>
<path d="M1256.7 663.4H1143.4V776.7H1256.7V663.4Z" stroke="#F1EBDD" stroke-opacity="0.13" stroke-width="1.4"/>
<path d="M1200 640L1280 720L1200 800L1120 720L1200 640Z" stroke="#F1EBDD" stroke-opacity="0.13" stroke-width="1.4"/>
<path d="M1416.7 663.4H1303.4V776.7H1416.7V663.4Z" stroke="#F1EBDD" stroke-opacity="0.13" stroke-width="1.4"/>
<path d="M1360 640L1440 720L1360 800L1280 720L1360 640Z" stroke="#F1EBDD" stroke-opacity="0.13" stroke-width="1.4"/>
<path d="M1576.7 663.4H1463.4V776.7H1576.7V663.4Z" stroke="#F1EBDD" stroke-opacity="0.13" stroke-width="1.4"/>
<path d="M1520 640L1600 720L1520 800L1440 720L1520 640Z" stroke="#F1EBDD" stroke-opacity="0.13" stroke-width="1.4"/>
<path d="M1736.7 663.4H1623.4V776.7H1736.7V663.4Z" stroke="#F1EBDD" stroke-opacity="0.13" stroke-width="1.4"/>
<path d="M1680 640L1760 720L1680 800L1600 720L1680 640Z" stroke="#F1EBDD" stroke-opacity="0.13" stroke-width="1.4"/>
<path d="M1896.7 663.4H1783.4V776.7H1896.7V663.4Z" stroke="#F1EBDD" stroke-opacity="0.13" stroke-width="1.4"/>
<path d="M1840 640L1920 720L1840 800L1760 720L1840 640Z" stroke="#F1EBDD" stroke-opacity="0.13" stroke-width="1.4"/>
<path d="M136.7 823.4H23.4V936.7H136.7V823.4Z" stroke="#F1EBDD" stroke-opacity="0.13" stroke-width="1.4"/>
<path d="M80 800L160 880L80 960L0 880L80 800Z" stroke="#F1EBDD" stroke-opacity="0.13" stroke-width="1.4"/>
<path d="M296.7 823.4H183.4V936.7H296.7V823.4Z" stroke="#F1EBDD" stroke-opacity="0.13" stroke-width="1.4"/>
<path d="M240 800L320 880L240 960L160 880L240 800Z" stroke="#F1EBDD" stroke-opacity="0.13" stroke-width="1.4"/>
<path d="M456.7 823.4H343.4V936.7H456.7V823.4Z" stroke="#F1EBDD" stroke-opacity="0.13" stroke-width="1.4"/>
<path d="M400 800L480 880L400 960L320 880L400 800Z" stroke="#F1EBDD" stroke-opacity="0.13" stroke-width="1.4"/>
<path d="M616.7 823.4H503.4V936.7H616.7V823.4Z" stroke="#F1EBDD" stroke-opacity="0.13" stroke-width="1.4"/>
<path d="M560 800L640 880L560 960L480 880L560 800Z" stroke="#F1EBDD" stroke-opacity="0.13" stroke-width="1.4"/>
<path d="M776.7 823.4H663.4V936.7H776.7V823.4Z" stroke="#F1EBDD" stroke-opacity="0.13" stroke-width="1.4"/>
<path d="M720 800L800 880L720 960L640 880L720 800Z" stroke="#F1EBDD" stroke-opacity="0.13" stroke-width="1.4"/>
<path d="M936.7 823.4H823.4V936.7H936.7V823.4Z" stroke="#F1EBDD" stroke-opacity="0.13" stroke-width="1.4"/>
<path d="M880 800L960 880L880 960L800 880L880 800Z" stroke="#F1EBDD" stroke-opacity="0.13" stroke-width="1.4"/>
<path d="M1096.7 823.4H983.4V936.7H1096.7V823.4Z" stroke="#F1EBDD" stroke-opacity="0.13" stroke-width="1.4"/>
<path d="M1040 800L1120 880L1040 960L960 880L1040 800Z" stroke="#F1EBDD" stroke-opacity="0.13" stroke-width="1.4"/>
<path d="M1256.7 823.4H1143.4V936.7H1256.7V823.4Z" stroke="#F1EBDD" stroke-opacity="0.13" stroke-width="1.4"/>
<path d="M1200 800L1280 880L1200 960L1120 880L1200 800Z" stroke="#F1EBDD" stroke-opacity="0.13" stroke-width="1.4"/>
<path d="M1416.7 823.4H1303.4V936.7H1416.7V823.4Z" stroke="#F1EBDD" stroke-opacity="0.13" stroke-width="1.4"/>
<path d="M1360 800L1440 880L1360 960L1280 880L1360 800Z" stroke="#F1EBDD" stroke-opacity="0.13" stroke-width="1.4"/>
<path d="M1576.7 823.4H1463.4V936.7H1576.7V823.4Z" stroke="#F1EBDD" stroke-opacity="0.13" stroke-width="1.4"/>
<path d="M1520 800L1600 880L1520 960L1440 880L1520 800Z" stroke="#F1EBDD" stroke-opacity="0.13" stroke-width="1.4"/>
<path d="M1736.7 823.4H1623.4V936.7H1736.7V823.4Z" stroke="#F1EBDD" stroke-opacity="0.13" stroke-width="1.4"/>
<path d="M1680 800L1760 880L1680 960L1600 880L1680 800Z" stroke="#F1EBDD" stroke-opacity="0.13" stroke-width="1.4"/>
<path d="M1896.7 823.4H1783.4V936.7H1896.7V823.4Z" stroke="#F1EBDD" stroke-opacity="0.13" stroke-width="1.4"/>
<path d="M1840 800L1920 880L1840 960L1760 880L1840 800Z" stroke="#F1EBDD" stroke-opacity="0.13" stroke-width="1.4"/>
<path d="M136.7 983.4H23.4V1096.7H136.7V983.4Z" stroke="#F1EBDD" stroke-opacity="0.13" stroke-width="1.4"/>
<path d="M80 960L160 1040L80 1120L0 1040L80 960Z" stroke="#F1EBDD" stroke-opacity="0.13" stroke-width="1.4"/>
<path d="M296.7 983.4H183.4V1096.7H296.7V983.4Z" stroke="#F1EBDD" stroke-opacity="0.13" stroke-width="1.4"/>
<path d="M240 960L320 1040L240 1120L160 1040L240 960Z" stroke="#F1EBDD" stroke-opacity="0.13" stroke-width="1.4"/>
<path d="M456.7 983.4H343.4V1096.7H456.7V983.4Z" stroke="#F1EBDD" stroke-opacity="0.13" stroke-width="1.4"/>
<path d="M400 960L480 1040L400 1120L320 1040L400 960Z" stroke="#F1EBDD" stroke-opacity="0.13" stroke-width="1.4"/>
<path d="M616.7 983.4H503.4V1096.7H616.7V983.4Z" stroke="#F1EBDD" stroke-opacity="0.13" stroke-width="1.4"/>
<path d="M560 960L640 1040L560 1120L480 1040L560 960Z" stroke="#F1EBDD" stroke-opacity="0.13" stroke-width="1.4"/>
<path d="M776.7 983.4H663.4V1096.7H776.7V983.4Z" stroke="#F1EBDD" stroke-opacity="0.13" stroke-width="1.4"/>
<path d="M720 960L800 1040L720 1120L640 1040L720 960Z" stroke="#F1EBDD" stroke-opacity="0.13" stroke-width="1.4"/>
<path d="M936.7 983.4H823.4V1096.7H936.7V983.4Z" stroke="#F1EBDD" stroke-opacity="0.13" stroke-width="1.4"/>
<path d="M880 960L960 1040L880 1120L800 1040L880 960Z" stroke="#F1EBDD" stroke-opacity="0.13" stroke-width="1.4"/>
<path d="M1096.7 983.4H983.4V1096.7H1096.7V983.4Z" stroke="#F1EBDD" stroke-opacity="0.13" stroke-width="1.4"/>
<path d="M1040 960L1120 1040L1040 1120L960 1040L1040 960Z" stroke="#F1EBDD" stroke-opacity="0.13" stroke-width="1.4"/>
<path d="M1256.7 983.4H1143.4V1096.7H1256.7V983.4Z" stroke="#F1EBDD" stroke-opacity="0.13" stroke-width="1.4"/>
<path d="M1200 960L1280 1040L1200 1120L1120 1040L1200 960Z" stroke="#F1EBDD" stroke-opacity="0.13" stroke-width="1.4"/>
<path d="M1416.7 983.4H1303.4V1096.7H1416.7V983.4Z" stroke="#F1EBDD" stroke-opacity="0.13" stroke-width="1.4"/>
<path d="M1360 960L1440 1040L1360 1120L1280 1040L1360 960Z" stroke="#F1EBDD" stroke-opacity="0.13" stroke-width="1.4"/>
<path d="M1576.7 983.4H1463.4V1096.7H1576.7V983.4Z" stroke="#F1EBDD" stroke-opacity="0.13" stroke-width="1.4"/>
<path d="M1520 960L1600 1040L1520 1120L1440 1040L1520 960Z" stroke="#F1EBDD" stroke-opacity="0.13" stroke-width="1.4"/>
<path d="M1736.7 983.4H1623.4V1096.7H1736.7V983.4Z" stroke="#F1EBDD" stroke-opacity="0.13" stroke-width="1.4"/>
<path d="M1680 960L1760 1040L1680 1120L1600 1040L1680 960Z" stroke="#F1EBDD" stroke-opacity="0.13" stroke-width="1.4"/>
<path d="M1896.7 983.4H1783.4V1096.7H1896.7V983.4Z" stroke="#F1EBDD" stroke-opacity="0.13" stroke-width="1.4"/>
<path d="M1840 960L1920 1040L1840 1120L1760 1040L1840 960Z" stroke="#F1EBDD" stroke-opacity="0.13" stroke-width="1.4"/>
</g>
<rect width="240" height="1080" fill="#96431F"/>
<path d="M121.168 334.387C122.574 334.387 124.117 333.781 125.797 332.57C127.477 331.359 128.863 329.855 129.957 328.059C129.02 325.324 128.297 322.961 127.789 320.969C127.242 318.938 126.773 317.004 126.383 315.168C125.992 313.293 125.602 311.203 125.211 308.898H139.391C140.641 314.523 142.535 320.754 145.074 327.59C147.574 334.387 150.777 341.496 154.684 348.918L140.621 351.262C139.762 349.66 138.961 348.039 138.219 346.398C137.477 344.719 136.715 342.98 135.934 341.184C133.941 343.098 131.734 344.543 129.312 345.52C126.891 346.496 124.312 346.984 121.578 346.984C117.867 346.984 114.449 346.125 111.324 344.406C108.199 342.688 105.699 340.324 103.824 337.316C101.949 334.309 101.012 330.891 101.012 327.062C101.012 323.312 101.52 320.207 102.535 317.746C103.551 315.285 104.977 312.785 106.812 310.246L118.238 314.758C117.301 316.672 116.5 318.566 115.836 320.441C115.172 322.316 114.84 324.27 114.84 326.301C114.84 328.254 115.465 330.09 116.715 331.809C117.926 333.527 119.41 334.387 121.168 334.387ZM67.1445 295.715V281.008H121.168C125.582 281.008 128.707 280.344 130.543 279.016C132.34 277.648 133.238 275.031 133.238 271.164V269.699H149V271.164C149 279.641 146.793 285.852 142.379 289.797C137.965 293.742 131.266 295.715 122.281 295.715H67.1445ZM133.238 272.102V267.414H149V272.102H133.238ZM156.852 250.773L166.461 241.105L176.188 250.773L166.461 260.441L156.852 250.773ZM156.852 270.578L166.461 260.793L176.188 270.578L166.461 280.129L156.852 270.578ZM109.801 252.062L108.16 238.352L124.332 237.18C126.363 237.062 128.043 236.652 129.371 235.949C130.699 235.207 131.676 234.133 132.301 232.727C132.926 231.32 133.238 229.523 133.238 227.336V226.105H149V227.453C149 230.109 148.668 232.492 148.004 234.602C147.34 236.711 146.422 238.566 145.25 240.168C144.078 241.77 142.711 243.156 141.148 244.328C143.648 246.633 145.582 249.445 146.949 252.766C148.316 256.047 149 259.543 149 263.254V268.879H133.238V263.254C133.238 258.84 132.438 255.773 130.836 254.055C129.234 252.336 126.402 251.477 122.34 251.477C120.152 251.477 118.023 251.535 115.953 251.652C113.844 251.73 111.793 251.867 109.801 252.062ZM149 225.812V228.391L133.238 228.332V226.105C133.238 224.035 132.496 222.219 131.012 220.656C129.527 219.094 127.613 217.59 125.27 216.145C122.887 214.699 120.387 213.215 117.77 211.691C115.113 210.129 112.594 208.391 110.211 206.477C107.828 204.562 105.895 202.316 104.41 199.738C102.926 197.16 102.184 194.094 102.184 190.539C102.184 186.164 103.102 182.395 104.938 179.23C106.734 176.027 109.195 173.43 112.32 171.438C115.406 169.406 118.863 168.059 122.691 167.395C125.27 166.926 127.34 166.262 128.902 165.402C130.465 164.543 131.578 163.547 132.242 162.414C132.906 161.242 133.238 160.031 133.238 158.781V157.258H149V158.84C149 161.34 148.434 163.801 147.301 166.223C146.168 168.645 144.742 170.578 143.023 172.023C145.523 173.938 147.379 176.105 148.59 178.527C149.762 180.91 150.348 183.82 150.348 187.258C150.348 189.953 149.957 192.512 149.176 194.934C148.395 197.355 147.301 199.719 145.895 202.023C144.488 204.289 142.867 206.574 141.031 208.879C142.555 210.324 143.922 211.789 145.133 213.273C146.305 214.758 147.242 216.477 147.945 218.43C148.648 220.383 149 222.844 149 225.812ZM117.184 190.07C117.184 191.75 117.75 193.273 118.883 194.641C120.016 195.969 121.402 197.16 123.043 198.215C124.645 199.23 126.207 200.09 127.73 200.793C128.863 199.582 129.859 198.41 130.719 197.277C131.578 196.145 132.281 195.07 132.828 194.055C133.57 192.688 134.098 191.438 134.41 190.305C134.723 189.133 134.879 188.098 134.879 187.199C134.879 184.973 134.137 183.371 132.652 182.395C131.168 181.379 129.371 180.871 127.262 180.871C124.488 180.871 122.125 181.691 120.172 183.332C118.18 184.973 117.184 187.219 117.184 190.07ZM133.238 159.719V155.031H149V159.719H133.238ZM156.852 138.391L166.461 128.723L176.188 138.391L166.461 148.059L156.852 138.391ZM156.852 158.195L166.461 148.41L176.188 158.195L166.461 167.746L156.852 158.195ZM109.801 139.68L108.16 125.969L124.332 124.797C126.363 124.68 128.043 124.27 129.371 123.566C130.699 122.824 131.676 121.75 132.301 120.344C132.926 118.938 133.238 117.141 133.238 114.953V113.723H149V115.07C149 117.727 148.668 120.109 148.004 122.219C147.34 124.328 146.422 126.184 145.25 127.785C144.078 129.387 142.711 130.773 141.148 131.945C143.648 134.25 145.582 137.062 146.949 140.383C148.316 143.664 149 147.16 149 150.871V156.496H133.238V150.871C133.238 146.457 132.438 143.391 130.836 141.672C129.234 139.953 126.402 139.094 122.34 139.094C120.152 139.094 118.023 139.152 115.953 139.27C113.844 139.348 111.793 139.484 109.801 139.68ZM94.332 96.1445C96.2461 93.0977 98.1211 90.1875 99.957 87.4141C101.793 84.6406 103.688 82.1016 105.641 79.7969C107.555 77.4922 109.566 75.4805 111.676 73.7617C113.785 72.043 116.031 70.7148 118.414 69.7773C120.797 68.8398 123.355 68.3711 126.09 68.3711C131.988 68.3711 136.617 69.7188 139.977 72.4141C143.297 75.1094 145.641 78.957 147.008 83.957C148.336 88.918 149 94.8359 149 101.711V116.008H133.238V101.77C133.238 97.4336 133.043 93.8594 132.652 91.0469C132.223 88.1953 131.48 86.0664 130.426 84.6602C129.371 83.2539 127.848 82.5508 125.855 82.5508C124.645 82.5508 123.316 83.1758 121.871 84.4258C120.426 85.6758 118.922 87.3164 117.359 89.3477C115.797 91.3789 114.234 93.6055 112.672 96.0273C111.109 98.4102 109.566 100.793 108.043 103.176C106.52 105.52 105.074 107.629 103.707 109.504C102.535 111.027 101.031 112.199 99.1953 113.02C97.3594 113.84 95.5039 114.25 93.6289 114.25C91.5586 114.25 89.6055 113.762 87.7695 112.785C85.9336 111.77 84.6055 110.227 83.7852 108.156L65.5625 63.5078H81.0898L94.332 96.1445Z" fill="#DDBA62"/>
<path d="M1758.43 1043C1753.63 1043 1749.74 1046.89 1749.74 1051.69C1749.74 1056.49 1753.63 1060.38 1758.43 1060.38C1763.23 1060.38 1767.13 1056.49 1767.13 1051.69C1767.13 1046.89 1763.23 1043 1758.43 1043ZM1758.43 1057.5C1755.23 1057.5 1752.63 1054.89 1752.63 1051.69C1752.63 1048.49 1755.23 1045.89 1758.43 1045.89C1761.63 1045.89 1764.24 1048.49 1764.24 1051.69C1764.24 1054.89 1761.63 1057.5 1758.43 1057.5Z" fill="#F1EBDD"/>
<path d="M1737.55 1043C1732.75 1043 1728.85 1046.89 1728.85 1051.69C1728.85 1056.49 1732.75 1060.38 1737.55 1060.38C1742.35 1060.38 1746.25 1056.49 1746.25 1051.69C1746.25 1046.89 1742.35 1043 1737.55 1043ZM1737.55 1057.5C1734.35 1057.5 1731.74 1054.89 1731.74 1051.69C1731.74 1048.49 1734.35 1045.89 1737.55 1045.89C1740.75 1045.89 1743.36 1048.49 1743.36 1051.69C1743.36 1054.89 1740.75 1057.5 1737.55 1057.5Z" fill="#F1EBDD"/>
<path d="M1716.7 1043C1711.9 1043 1708 1046.89 1708 1051.69V1059.34C1708 1059.72 1708.31 1060.04 1708.7 1060.04H1710.19C1710.57 1060.04 1710.89 1059.72 1710.89 1059.34V1051.69C1710.89 1048.49 1713.5 1045.89 1716.7 1045.89C1719.9 1045.89 1722.5 1048.49 1722.5 1051.69V1059.34C1722.5 1059.72 1722.82 1060.04 1723.2 1060.04H1724.7C1725.08 1060.04 1725.39 1059.72 1725.39 1059.34V1051.69C1725.39 1046.89 1721.5 1043 1716.7 1043Z" fill="#F1EBDD"/>
<path d="M1779.3 1043C1774.5 1043 1770.61 1046.89 1770.61 1051.69V1059.34C1770.61 1059.72 1770.92 1060.04 1771.3 1060.04H1772.8C1773.18 1060.04 1773.5 1059.72 1773.5 1059.34V1051.69C1773.5 1048.49 1776.1 1045.89 1779.3 1045.89C1782.5 1045.89 1785.11 1048.49 1785.11 1051.69V1059.34C1785.11 1059.72 1785.43 1060.04 1785.81 1060.04H1787.3C1787.69 1060.04 1788 1059.72 1788 1059.34V1051.69C1788 1046.89 1784.1 1043 1779.3 1043Z" fill="#F1EBDD"/>
<path d="M1801.52 1048.62V1060H1800.04V1048.62H1801.52ZM1805.18 1048.62V1049.86H1796.39V1048.62H1805.18ZM1807.5 1052.88V1060H1806.05V1051.55H1807.46L1807.5 1052.88ZM1810.14 1051.5L1810.13 1052.84C1810.01 1052.82 1809.9 1052.8 1809.79 1052.8C1809.68 1052.79 1809.57 1052.78 1809.43 1052.78C1808.98 1052.78 1808.61 1052.87 1808.3 1053.05C1808 1053.24 1807.77 1053.49 1807.59 1053.8C1807.43 1054.12 1807.32 1054.48 1807.28 1054.89L1806.88 1055.12C1806.88 1054.45 1806.97 1053.83 1807.15 1053.27C1807.33 1052.7 1807.61 1052.24 1808 1051.91C1808.39 1051.56 1808.89 1051.39 1809.5 1051.39C1809.6 1051.39 1809.72 1051.4 1809.86 1051.43C1809.99 1051.45 1810.09 1051.47 1810.14 1051.5ZM1816.15 1058.55V1054.2C1816.15 1053.7 1816 1053.3 1815.7 1053.01C1815.4 1052.71 1814.96 1052.55 1814.37 1052.55C1814 1052.55 1813.68 1052.62 1813.41 1052.74C1813.14 1052.87 1812.92 1053.03 1812.77 1053.23C1812.61 1053.44 1812.54 1053.66 1812.54 1053.89H1811.09C1811.09 1053.48 1811.23 1053.09 1811.51 1052.71C1811.78 1052.33 1812.17 1052.01 1812.67 1051.77C1813.18 1051.52 1813.77 1051.39 1814.45 1051.39C1815.07 1051.39 1815.61 1051.49 1816.08 1051.7C1816.55 1051.91 1816.92 1052.23 1817.19 1052.65C1817.46 1053.07 1817.59 1053.59 1817.59 1054.22V1058.16C1817.59 1058.44 1817.62 1058.74 1817.66 1059.05C1817.72 1059.37 1817.79 1059.65 1817.89 1059.88V1060H1816.38C1816.31 1059.83 1816.25 1059.61 1816.21 1059.34C1816.17 1059.05 1816.15 1058.79 1816.15 1058.55ZM1816.4 1054.88L1816.41 1055.89H1814.95C1814.12 1055.89 1813.49 1056.02 1813.04 1056.28C1812.59 1056.54 1812.37 1056.93 1812.37 1057.45C1812.37 1057.85 1812.5 1058.2 1812.77 1058.48C1813.04 1058.75 1813.45 1058.89 1813.98 1058.89C1814.43 1058.89 1814.82 1058.8 1815.16 1058.61C1815.49 1058.42 1815.76 1058.19 1815.96 1057.92C1816.16 1057.65 1816.27 1057.39 1816.29 1057.13L1816.91 1057.83C1816.87 1058.05 1816.77 1058.29 1816.61 1058.55C1816.45 1058.82 1816.23 1059.08 1815.96 1059.32C1815.7 1059.56 1815.38 1059.76 1815.01 1059.92C1814.64 1060.08 1814.23 1060.16 1813.77 1060.16C1813.2 1060.16 1812.7 1060.04 1812.27 1059.82C1811.84 1059.6 1811.51 1059.3 1811.27 1058.92C1811.03 1058.54 1810.91 1058.12 1810.91 1057.65C1810.91 1056.74 1811.26 1056.05 1811.95 1055.59C1812.63 1055.11 1813.56 1054.88 1814.72 1054.88H1816.4ZM1823.25 1058.97C1823.59 1058.97 1823.91 1058.9 1824.2 1058.76C1824.49 1058.62 1824.73 1058.42 1824.92 1058.18C1825.11 1057.93 1825.22 1057.65 1825.24 1057.33H1826.62C1826.59 1057.83 1826.42 1058.29 1826.11 1058.73C1825.8 1059.15 1825.4 1059.5 1824.9 1059.77C1824.4 1060.03 1823.85 1060.16 1823.25 1060.16C1822.4 1060.16 1821.7 1059.96 1821.14 1059.58C1820.59 1059.19 1820.17 1058.67 1819.9 1058.03C1819.63 1057.39 1819.49 1056.69 1819.49 1055.94V1055.61C1819.49 1054.85 1819.63 1054.16 1819.9 1053.52C1820.17 1052.88 1820.59 1052.36 1821.15 1051.98C1821.71 1051.59 1822.41 1051.39 1823.25 1051.39C1823.91 1051.39 1824.49 1051.53 1824.98 1051.8C1825.48 1052.06 1825.87 1052.43 1826.15 1052.89C1826.43 1053.35 1826.59 1053.87 1826.62 1054.45H1825.24C1825.22 1054.1 1825.12 1053.79 1824.95 1053.51C1824.78 1053.23 1824.55 1053 1824.26 1052.84C1823.97 1052.66 1823.64 1052.58 1823.25 1052.58C1822.66 1052.58 1822.19 1052.73 1821.85 1053.03C1821.52 1053.33 1821.28 1053.72 1821.14 1054.18C1821.01 1054.64 1820.94 1055.12 1820.94 1055.61V1055.94C1820.94 1056.43 1821.01 1056.91 1821.14 1057.38C1821.28 1057.84 1821.51 1058.22 1821.84 1058.52C1822.18 1058.82 1822.65 1058.97 1823.25 1058.97ZM1829.7 1048V1060H1828.24V1048H1829.7ZM1834.86 1051.55L1831.17 1055.49L1829.11 1057.63L1828.99 1056.09L1830.47 1054.33L1833.09 1051.55H1834.86ZM1833.54 1060L1830.52 1055.97L1831.27 1054.68L1835.24 1060H1833.54ZM1841.27 1057.76C1841.27 1057.55 1841.23 1057.36 1841.13 1057.18C1841.04 1057 1840.86 1056.83 1840.58 1056.69C1840.3 1056.54 1839.89 1056.41 1839.33 1056.3C1838.7 1056.17 1838.16 1056 1837.7 1055.8C1837.25 1055.59 1836.9 1055.34 1836.65 1055.02C1836.4 1054.71 1836.28 1054.32 1836.28 1053.86C1836.28 1053.41 1836.41 1053 1836.66 1052.63C1836.92 1052.26 1837.29 1051.96 1837.76 1051.73C1838.23 1051.51 1838.78 1051.39 1839.41 1051.39C1840.09 1051.39 1840.67 1051.51 1841.15 1051.75C1841.63 1051.99 1841.99 1052.31 1842.25 1052.71C1842.51 1053.11 1842.63 1053.55 1842.63 1054.03H1841.19C1841.19 1053.68 1841.03 1053.35 1840.73 1053.05C1840.42 1052.73 1839.99 1052.58 1839.41 1052.58C1839.01 1052.58 1838.69 1052.64 1838.44 1052.77C1838.19 1052.89 1838.01 1053.04 1837.9 1053.23C1837.79 1053.41 1837.73 1053.61 1837.73 1053.82C1837.73 1054.03 1837.79 1054.21 1837.89 1054.36C1837.99 1054.51 1838.18 1054.65 1838.46 1054.77C1838.74 1054.89 1839.15 1055.01 1839.68 1055.12C1840.37 1055.28 1840.94 1055.47 1841.39 1055.69C1841.84 1055.91 1842.17 1056.17 1842.39 1056.49C1842.61 1056.81 1842.72 1057.2 1842.72 1057.65C1842.72 1058.14 1842.58 1058.58 1842.31 1058.96C1842.04 1059.34 1841.66 1059.63 1841.17 1059.84C1840.68 1060.05 1840.11 1060.16 1839.45 1060.16C1838.71 1060.16 1838.08 1060.02 1837.56 1059.76C1837.05 1059.49 1836.66 1059.15 1836.39 1058.73C1836.12 1058.3 1835.99 1057.86 1835.99 1057.39H1837.45C1837.47 1057.79 1837.58 1058.1 1837.79 1058.34C1838 1058.57 1838.25 1058.73 1838.55 1058.83C1838.86 1058.92 1839.16 1058.97 1839.45 1058.97C1839.85 1058.97 1840.18 1058.92 1840.45 1058.81C1840.72 1058.71 1840.92 1058.57 1841.06 1058.38C1841.2 1058.2 1841.27 1057.99 1841.27 1057.76Z" fill="#F1EBDD" fill-opacity="0.55"/>
<path d="M240 711.5L303.333 748.167V821.5L240 858.167L176.667 821.5V748.167L240 711.5Z" fill="#DDBA62"/>
<path d="M405.833 776.5L457.5 806.5V866.5L405.833 896.5L354.167 866.5V806.5L405.833 776.5Z" fill="#DDBA62"/>
<path d="M364.167 589L415.833 619V679L364.167 709L312.5 679V619L364.167 589Z" fill="#DDBA62"/>
<path d="M93.3334 839L145 869V929L93.3334 959L41.6667 929V869L93.3334 839Z" fill="#DDBA62"/>
<path d="M270 743.167L331.667 679" stroke="#F1EBDD" stroke-width="11"/>
<path d="M293.333 807.333L356.667 825.666" stroke="#F1EBDD" stroke-width="11"/>
<path d="M197.5 825.667L138.333 869" stroke="#F1EBDD" stroke-width="11"/>
<path d="M911.813 449.254L921.95 459.391L911.813 469.527L901.677 459.391L911.813 449.254ZM912.516 513.59C918.298 513.59 922.848 512.652 926.169 510.777C929.489 508.902 931.833 506.383 933.2 503.219C934.606 500.055 935.309 496.52 935.309 492.613C935.309 488.316 934.645 483.941 933.317 479.488C931.989 474.996 930.544 470.816 928.981 466.949L943.512 461.441L948.2 475.621C948.903 477.73 949.958 479.527 951.364 481.012C952.809 482.496 954.88 483.238 957.575 483.238H959.919V499H957.809C955.973 499 954.391 498.844 953.063 498.531C951.774 498.18 950.563 497.594 949.43 496.773C948.766 503.336 946.93 509.039 943.923 513.883C940.954 518.727 936.852 522.477 931.618 525.133C926.384 527.789 920.016 529.117 912.516 529.117C904.079 529.117 897.165 527.516 891.774 524.312C886.423 521.148 882.458 516.832 879.88 511.363C877.341 505.934 876.071 499.801 876.071 492.965C876.071 488.395 876.559 483.688 877.536 478.844C878.552 473.961 879.977 469.137 881.813 464.371L895.114 469.527C893.747 473.551 892.594 477.535 891.657 481.48C890.719 485.387 890.251 489.059 890.251 492.496C890.251 496.324 890.915 499.84 892.243 503.043C893.61 506.246 895.915 508.805 899.157 510.719C902.399 512.633 906.852 513.59 912.516 513.59ZM993.495 467.184C991.816 467.184 990.292 467.75 988.925 468.883C987.597 470.016 986.405 471.402 985.351 473.043C984.335 474.645 983.476 476.207 982.773 477.73C983.905 478.824 984.999 479.781 986.054 480.602C987.148 481.383 988.163 482.047 989.101 482.594C990.546 483.414 991.874 484 993.085 484.352C994.335 484.703 995.429 484.879 996.366 484.879C998.593 484.879 1000.19 484.137 1001.17 482.652C1002.19 481.168 1002.69 479.371 1002.69 477.262C1002.69 474.488 1001.87 472.125 1000.23 470.172C998.593 468.18 996.347 467.184 993.495 467.184ZM996.308 500.348C993.612 500.348 991.054 499.957 988.632 499.176C986.21 498.395 983.847 497.301 981.542 495.895C979.277 494.488 976.991 492.867 974.687 491.031C973.241 492.555 971.777 493.922 970.292 495.133C968.808 496.305 967.089 497.242 965.136 497.945C963.183 498.648 960.722 499 957.753 499H955.175V483.238H957.46C959.53 483.238 961.347 482.496 962.909 481.012C964.472 479.527 965.976 477.613 967.421 475.27C968.866 472.887 970.351 470.387 971.874 467.77C973.437 465.113 975.175 462.594 977.089 460.211C979.003 457.828 981.249 455.895 983.827 454.41C986.405 452.926 989.472 452.184 993.027 452.184C997.831 452.184 1001.99 453.336 1005.51 455.641C1009.06 457.906 1011.8 460.914 1013.71 464.664C1015.62 468.414 1016.58 472.516 1016.58 476.969C1016.58 481.5 1015.82 485.523 1014.3 489.039C1012.77 492.555 1010.51 495.328 1007.5 497.359C1004.53 499.352 1000.8 500.348 996.308 500.348ZM1054.61 454.586C1054.61 451.773 1055.61 449.43 1057.6 447.555C1059.63 445.68 1062.05 444.742 1064.87 444.742C1067.68 444.742 1070.06 445.68 1072.02 447.555C1074.01 449.43 1075 451.773 1075 454.586C1075 457.359 1074.01 459.703 1072.02 461.617C1070.06 463.492 1067.68 464.43 1064.87 464.43C1061.98 464.43 1059.54 463.492 1057.54 461.617C1055.59 459.742 1054.61 457.398 1054.61 454.586ZM1054.61 489.098C1054.61 486.324 1055.61 484 1057.6 482.125C1059.63 480.25 1062.05 479.312 1064.87 479.312C1067.68 479.312 1070.06 480.25 1072.02 482.125C1074.01 484 1075 486.324 1075 489.098C1075 491.91 1074.01 494.254 1072.02 496.129C1070.06 498.004 1067.68 498.941 1064.87 498.941C1061.98 498.941 1059.54 498.004 1057.54 496.129C1055.59 494.254 1054.61 491.91 1054.61 489.098ZM1145.26 499H1131.67C1124.79 499 1118.52 498.57 1112.86 497.711C1107.19 496.852 1102.31 495.367 1098.21 493.258C1094.11 491.148 1090.94 488.238 1088.72 484.527C1086.49 480.777 1085.38 476.031 1085.38 470.289C1085.38 466.93 1085.75 463.668 1086.49 460.504C1087.27 457.301 1088.23 454.312 1089.36 451.539L1102.49 456.461C1101.82 458.297 1101.18 460.387 1100.55 462.73C1099.93 465.035 1099.62 467.262 1099.62 469.41C1099.62 472.418 1100.42 474.84 1102.02 476.676C1103.66 478.512 1105.92 479.898 1108.81 480.836C1111.74 481.773 1115.14 482.418 1119.01 482.77C1122.92 483.082 1127.14 483.238 1131.67 483.238H1145.38C1148.81 483.238 1151.96 483.121 1154.81 482.887C1157.66 482.613 1160.12 482.125 1162.19 481.422C1164.3 480.719 1165.92 479.703 1167.06 478.375C1168.23 477.008 1168.81 475.25 1168.81 473.102C1168.81 470.602 1168.52 467.73 1167.94 464.488C1167.35 461.246 1166.71 458.141 1166 455.172L1180.36 451.598C1181.14 455.152 1181.74 458.707 1182.17 462.262C1182.6 465.777 1182.82 469.078 1182.82 472.164C1182.82 477.906 1181.84 482.555 1179.89 486.109C1177.97 489.664 1175.3 492.379 1171.86 494.254C1168.42 496.09 1164.44 497.34 1159.91 498.004C1155.38 498.668 1150.49 499 1145.26 499ZM1144.38 436.07L1154.05 445.68L1144.38 455.406L1134.71 445.68L1144.38 436.07ZM1124.58 436.07L1134.36 445.68L1124.58 455.406L1115.03 445.68L1124.58 436.07ZM1222.43 481.012C1224.89 480.035 1226.94 478.609 1228.58 476.734C1230.22 474.859 1231.45 472.418 1232.27 469.41C1233.13 466.402 1233.56 462.75 1233.56 458.453V417.145H1248.15V461.559C1248.15 465.348 1248.39 468.902 1248.86 472.223C1249.32 475.504 1250.24 478.16 1251.61 480.191C1253.02 482.223 1255.11 483.238 1257.88 483.238H1260.05V499H1257.7C1254.46 499 1251.61 498.473 1249.15 497.418C1246.69 496.363 1244.6 494.898 1242.88 493.023C1241.16 491.148 1239.77 488.961 1238.72 486.461C1236.22 489.195 1233.15 491.5 1229.52 493.375C1225.93 495.25 1221.88 496.656 1217.39 497.594C1212.9 498.531 1208.06 499 1202.86 499C1200.87 499 1198.88 498.941 1196.88 498.824C1194.93 498.668 1192.92 498.512 1190.85 498.355V483.238C1193.27 483.395 1195.63 483.551 1197.94 483.707C1200.24 483.824 1202.27 483.883 1204.03 483.883C1204.93 483.883 1205.73 483.883 1206.43 483.883C1207.14 483.883 1207.78 483.863 1208.37 483.824C1208.37 483.824 1208.11 482.613 1207.61 480.191C1207.14 477.77 1206.41 474.488 1205.44 470.348C1204.5 466.207 1203.31 461.578 1201.86 456.461C1200.46 451.305 1198.84 445.992 1197 440.523C1195.16 435.055 1193.09 429.801 1190.79 424.762L1204.21 418.902C1206.47 424.215 1208.54 429.762 1210.42 435.543C1212.33 441.285 1214.03 446.852 1215.52 452.242C1217 457.633 1218.25 462.496 1219.27 466.832C1220.32 471.168 1221.1 474.625 1221.61 477.203C1222.16 479.742 1222.43 481.012 1222.43 481.012ZM1268.96 483.238C1268.17 481.91 1267.47 480.387 1266.85 478.668C1266.26 476.949 1265.79 475.191 1265.44 473.395C1265.09 471.559 1264.91 469.859 1264.91 468.297C1264.91 463.727 1266.07 459.527 1268.37 455.699C1270.67 451.871 1273.74 448.824 1277.57 446.559C1281.4 444.254 1285.64 443.102 1290.28 443.102C1294.42 443.102 1298.27 443.863 1301.83 445.387C1305.42 446.871 1309.11 448.902 1312.9 451.48L1307.22 464.371C1304.56 462.809 1301.96 461.5 1299.42 460.445C1296.92 459.391 1294.23 458.863 1291.34 458.863C1289.39 458.863 1287.47 459.273 1285.6 460.094C1283.72 460.875 1282.18 462.008 1280.97 463.492C1279.76 464.938 1279.15 466.676 1279.15 468.707C1279.15 470.621 1279.56 472.418 1280.38 474.098C1281.24 475.777 1282.24 477.203 1283.37 478.375C1284.54 479.508 1285.52 480.289 1286.3 480.719C1286.42 480.719 1286.57 480.699 1286.77 480.66C1287 480.621 1287.22 480.582 1287.41 480.543L1315.25 473.863V489.625C1310.32 491.148 1305.54 492.496 1300.89 493.668C1296.24 494.801 1291.67 495.777 1287.18 496.598C1282.73 497.379 1278.33 497.984 1274 498.414C1269.7 498.805 1265.44 499 1261.22 499H1255.25V483.238H1268.96ZM1325.91 417.145H1340.62V471.168C1340.62 475.582 1341.28 478.707 1342.61 480.543C1343.98 482.34 1346.6 483.238 1350.46 483.238H1351.93V499H1350.46C1341.99 499 1335.77 496.793 1331.83 492.379C1327.88 487.965 1325.91 481.266 1325.91 472.281V417.145ZM1379.59 417.965L1389.72 428.102L1379.59 438.238L1369.45 428.102L1379.59 417.965ZM1380.05 460.504C1378.88 460.504 1377.63 460.953 1376.3 461.852C1375.02 462.75 1373.9 463.863 1372.96 465.191C1372.07 466.52 1371.62 467.828 1371.62 469.117C1371.62 470.641 1372.07 472.164 1372.96 473.688C1373.9 475.172 1375.04 476.52 1376.36 477.73C1377.73 478.941 1379 479.859 1380.17 480.484C1381.54 479.781 1382.89 478.844 1384.21 477.672C1385.54 476.461 1386.64 475.113 1387.5 473.629C1388.39 472.105 1388.84 470.562 1388.84 469C1388.84 467.711 1388.36 466.422 1387.38 465.133C1386.44 463.844 1385.29 462.75 1383.92 461.852C1382.59 460.953 1381.3 460.504 1380.05 460.504ZM1402.85 469C1402.85 470.758 1402.67 472.438 1402.32 474.039C1401.97 475.602 1401.44 477.145 1400.74 478.668C1400.04 480.152 1399.12 481.656 1397.98 483.18C1398.77 483.219 1399.49 483.238 1400.15 483.238C1400.82 483.238 1401.44 483.238 1402.03 483.238C1402.61 483.238 1403.16 483.238 1403.67 483.238H1409.29V499H1401.79C1399.76 499 1397.52 498.805 1395.05 498.414C1392.59 497.984 1390.07 497.438 1387.5 496.773C1384.92 496.07 1382.42 495.309 1380 494.488C1377.54 495.348 1374.98 496.129 1372.32 496.832C1369.66 497.496 1367.05 498.023 1364.47 498.414C1361.93 498.805 1359.59 499 1357.44 499H1347.24V483.238H1355.86C1356.56 483.238 1357.22 483.238 1357.85 483.238C1358.51 483.238 1359.2 483.238 1359.9 483.238C1360.64 483.199 1361.46 483.16 1362.36 483.121C1361.27 481.598 1360.37 480.074 1359.66 478.551C1358.96 477.027 1358.43 475.465 1358.08 473.863C1357.77 472.262 1357.61 470.602 1357.61 468.883C1357.61 465.914 1358.24 463.043 1359.49 460.27C1360.74 457.457 1362.42 454.938 1364.53 452.711C1366.64 450.445 1369.02 448.668 1371.68 447.379C1374.37 446.051 1377.14 445.387 1380 445.387C1382.93 445.387 1385.76 446.051 1388.49 447.379C1391.23 448.668 1393.67 450.445 1395.82 452.711C1397.96 454.938 1399.66 457.457 1400.91 460.27C1402.2 463.043 1402.85 465.953 1402.85 469ZM1404.61 483.238H1408.77V499H1404.61V483.238ZM1430.56 429.742L1440.23 439.352L1430.56 449.078L1420.9 439.352L1430.56 429.742ZM1410.76 429.742L1420.55 439.352L1410.76 449.078L1401.21 439.352L1410.76 429.742ZM1424 459.801L1437.71 458.16L1438.89 474.332C1439 476.363 1439.41 478.043 1440.12 479.371C1440.86 480.699 1441.93 481.676 1443.34 482.301C1444.74 482.926 1446.54 483.238 1448.73 483.238H1449.96V499H1448.61C1445.96 499 1443.57 498.668 1441.46 498.004C1439.35 497.34 1437.5 496.422 1435.9 495.25C1434.3 494.078 1432.91 492.711 1431.74 491.148C1429.43 493.648 1426.62 495.582 1423.3 496.949C1420.02 498.316 1416.52 499 1412.81 499H1407.19V483.238H1412.81C1417.22 483.238 1420.29 482.438 1422.01 480.836C1423.73 479.234 1424.59 476.402 1424.59 472.34C1424.59 470.152 1424.53 468.023 1424.41 465.953C1424.33 463.844 1424.2 461.793 1424 459.801ZM1445.22 483.238H1449.73C1453.95 483.238 1456.66 482.223 1457.87 480.191C1459.08 478.121 1459.69 475.133 1459.69 471.227V417.145H1474.4V472.34C1474.4 481.129 1472.44 487.77 1468.54 492.262C1464.67 496.754 1458.38 499 1449.67 499H1445.22V483.238ZM1503.05 417.145V498.941H1488.4V417.145H1503.05ZM1557.96 471.168C1557.96 472.574 1558.56 474.117 1559.77 475.797C1560.98 477.477 1562.49 478.863 1564.29 479.957C1567.02 479.02 1569.38 478.297 1571.38 477.789C1573.41 477.242 1575.34 476.773 1577.18 476.383C1579.05 475.992 1581.14 475.602 1583.45 475.211V489.391C1577.82 490.641 1571.59 492.535 1564.75 495.074C1557.96 497.574 1550.85 500.777 1543.43 504.684L1541.08 490.621C1542.68 489.762 1544.3 488.961 1545.95 488.219C1547.62 487.477 1549.36 486.715 1551.16 485.934C1549.25 483.941 1547.8 481.734 1546.82 479.312C1545.85 476.891 1545.36 474.312 1545.36 471.578C1545.36 467.867 1546.22 464.449 1547.94 461.324C1549.66 458.199 1552.02 455.699 1555.03 453.824C1558.04 451.949 1561.45 451.012 1565.28 451.012C1569.03 451.012 1572.14 451.52 1574.6 452.535C1577.06 453.551 1579.56 454.977 1582.1 456.812L1577.59 468.238C1575.67 467.301 1573.78 466.5 1571.9 465.836C1570.03 465.172 1568.07 464.84 1566.04 464.84C1564.09 464.84 1562.25 465.465 1560.54 466.715C1558.82 467.926 1557.96 469.41 1557.96 471.168ZM1594.23 417.145H1608.94V471.168C1608.94 475.582 1609.6 478.707 1610.93 480.543C1612.3 482.34 1614.91 483.238 1618.78 483.238H1620.24V499H1618.78C1610.3 499 1604.09 496.793 1600.15 492.379C1596.2 487.965 1594.23 481.266 1594.23 472.281V417.145ZM1615.44 483.238H1620.13V499H1615.44V483.238ZM1636.77 506.852L1646.44 516.461L1636.77 526.188L1627.1 516.461L1636.77 506.852ZM1616.97 506.852L1626.75 516.461L1616.97 526.188L1607.41 516.461L1616.97 506.852ZM1635.48 459.801L1649.19 458.16L1650.36 474.332C1650.48 476.363 1650.89 478.043 1651.59 479.371C1652.34 480.699 1653.41 481.676 1654.82 482.301C1656.22 482.926 1658.02 483.238 1660.21 483.238H1661.44V499H1660.09C1657.43 499 1655.05 498.668 1652.94 498.004C1650.83 497.34 1648.98 496.422 1647.38 495.25C1645.77 494.078 1644.39 492.711 1643.22 491.148C1640.91 493.648 1638.1 495.582 1634.78 496.949C1631.5 498.316 1628 499 1624.29 499H1618.66V483.238H1624.29C1628.7 483.238 1631.77 482.438 1633.49 480.836C1635.21 479.234 1636.07 476.402 1636.07 472.34C1636.07 470.152 1636.01 468.023 1635.89 465.953C1635.81 463.844 1635.68 461.793 1635.48 459.801ZM1659.33 499H1656.75L1656.81 483.238H1659.04C1661.11 483.238 1662.92 482.496 1664.49 481.012C1666.05 479.527 1667.55 477.613 1669 475.27C1670.44 472.887 1671.93 470.387 1673.45 467.77C1675.01 465.113 1676.75 462.594 1678.67 460.211C1680.58 457.828 1682.83 455.895 1685.41 454.41C1687.98 452.926 1691.05 452.184 1694.6 452.184C1698.98 452.184 1702.75 453.102 1705.91 454.938C1709.12 456.734 1711.71 459.195 1713.71 462.32C1715.74 465.406 1717.09 468.863 1717.75 472.691C1718.22 475.27 1718.88 477.34 1719.74 478.902C1720.6 480.465 1721.6 481.578 1722.73 482.242C1723.9 482.906 1725.11 483.238 1726.36 483.238H1727.89V499H1726.3C1723.8 499 1721.34 498.434 1718.92 497.301C1716.5 496.168 1714.57 494.742 1713.12 493.023C1711.21 495.523 1709.04 497.379 1706.62 498.59C1704.23 499.762 1701.32 500.348 1697.89 500.348C1695.19 500.348 1692.63 499.957 1690.21 499.176C1687.79 498.395 1685.42 497.301 1683.12 495.895C1680.85 494.488 1678.57 492.867 1676.26 491.031C1674.82 492.555 1673.35 493.922 1671.87 495.133C1670.39 496.305 1668.67 497.242 1666.71 497.945C1664.76 498.648 1662.3 499 1659.33 499ZM1695.07 467.184C1693.39 467.184 1691.87 467.75 1690.5 468.883C1689.17 470.016 1687.98 471.402 1686.93 473.043C1685.91 474.645 1685.05 476.207 1684.35 477.73C1685.56 478.863 1686.73 479.859 1687.87 480.719C1689 481.578 1690.07 482.281 1691.09 482.828C1692.46 483.57 1693.71 484.098 1694.84 484.41C1696.01 484.723 1697.05 484.879 1697.94 484.879C1700.17 484.879 1701.77 484.137 1702.75 482.652C1703.76 481.168 1704.27 479.371 1704.27 477.262C1704.27 474.488 1703.45 472.125 1701.81 470.172C1700.17 468.18 1697.92 467.184 1695.07 467.184ZM1723.03 483.238H1727.71V499H1723.03V483.238ZM1744.35 506.852L1754.02 516.461L1744.35 526.188L1734.69 516.461L1744.35 506.852ZM1724.55 506.852L1734.33 516.461L1724.55 526.188L1715 516.461L1724.55 506.852ZM1743.06 459.801L1756.78 458.16L1757.95 474.332C1758.06 476.363 1758.47 478.043 1759.18 479.371C1759.92 480.699 1760.99 481.676 1762.4 482.301C1763.81 482.926 1765.6 483.238 1767.79 483.238H1769.02V499H1767.67C1765.02 499 1762.63 498.668 1760.53 498.004C1758.42 497.34 1756.56 496.422 1754.96 495.25C1753.36 494.078 1751.97 492.711 1750.8 491.148C1748.49 493.648 1745.68 495.582 1742.36 496.949C1739.08 498.316 1735.58 499 1731.87 499H1726.25V483.238H1731.87C1736.29 483.238 1739.35 482.438 1741.07 480.836C1742.79 479.234 1743.65 476.402 1743.65 472.34C1743.65 470.152 1743.59 468.023 1743.47 465.953C1743.4 463.844 1743.26 461.793 1743.06 459.801ZM1784.2 444.332C1787.25 446.246 1790.16 448.121 1792.93 449.957C1795.7 451.793 1798.24 453.688 1800.55 455.641C1802.85 457.555 1804.86 459.566 1806.58 461.676C1808.3 463.785 1809.63 466.031 1810.57 468.414C1811.5 470.797 1811.97 473.355 1811.97 476.09C1811.97 481.988 1810.62 486.617 1807.93 489.977C1805.23 493.297 1801.39 495.641 1796.39 497.008C1791.43 498.336 1785.51 499 1778.63 499H1764.34V483.238H1778.57C1782.91 483.238 1786.48 483.043 1789.3 482.652C1792.15 482.223 1794.28 481.48 1795.68 480.426C1797.09 479.371 1797.79 477.848 1797.79 475.855C1797.79 474.645 1797.17 473.316 1795.92 471.871C1794.67 470.426 1793.03 468.922 1791 467.359C1788.96 465.797 1786.74 464.234 1784.32 462.672C1781.93 461.109 1779.55 459.566 1777.17 458.043C1774.82 456.52 1772.71 455.074 1770.84 453.707C1769.32 452.535 1768.14 451.031 1767.32 449.195C1766.5 447.359 1766.09 445.504 1766.09 443.629C1766.09 441.559 1766.58 439.605 1767.56 437.77C1768.57 435.934 1770.12 434.605 1772.19 433.785L1816.84 415.562V431.09L1784.2 444.332ZM1006.27 619H992.673C985.798 619 979.528 618.57 973.864 617.711C968.2 616.852 963.317 615.367 959.216 613.258C955.114 611.148 951.95 608.238 949.723 604.527C947.497 600.777 946.384 596.031 946.384 590.289C946.384 586.93 946.755 583.668 947.497 580.504C948.278 577.301 949.235 574.312 950.368 571.539L963.493 576.461C962.829 578.297 962.184 580.387 961.559 582.73C960.934 585.035 960.622 587.262 960.622 589.41C960.622 592.418 961.423 594.84 963.024 596.676C964.665 598.512 966.93 599.898 969.821 600.836C972.751 601.773 976.149 602.418 980.016 602.77C983.923 603.082 988.141 603.238 992.673 603.238H1006.38C1009.82 603.238 1012.97 603.121 1015.82 602.887C1018.67 602.613 1021.13 602.125 1023.2 601.422C1025.31 600.719 1026.93 599.703 1028.06 598.375C1029.24 597.008 1029.82 595.25 1029.82 593.102C1029.82 590.602 1029.53 587.73 1028.94 584.488C1028.36 581.246 1027.71 578.141 1027.01 575.172L1041.36 571.598C1042.15 575.152 1042.75 578.707 1043.18 582.262C1043.61 585.777 1043.83 589.078 1043.83 592.164C1043.83 597.906 1042.85 602.555 1040.9 606.109C1038.98 609.664 1036.31 612.379 1032.87 614.254C1029.43 616.09 1025.45 617.34 1020.91 618.004C1016.38 618.668 1011.5 619 1006.27 619ZM1005.39 556.07L1015.06 565.68L1005.39 575.406L995.72 565.68L1005.39 556.07ZM985.583 556.07L995.368 565.68L985.583 575.406L976.032 565.68L985.583 556.07ZM1054.49 537.145H1069.2V591.168C1069.2 595.582 1069.86 598.707 1071.19 600.543C1072.56 602.34 1075.18 603.238 1079.04 603.238H1080.51V619H1079.04C1070.57 619 1064.35 616.793 1060.41 612.379C1056.46 607.965 1054.49 601.266 1054.49 592.281V537.145ZM1075.76 603.238H1078.58V619H1075.76V603.238ZM1087.83 626.324L1097.97 636.461L1087.83 646.598L1077.7 636.461L1087.83 626.324ZM1093.81 579.801L1107.52 578.16L1108.69 594.332C1108.81 596.363 1109.22 598.043 1109.92 599.371C1110.67 600.699 1111.74 601.676 1113.15 602.301C1114.55 602.926 1116.35 603.238 1118.54 603.238H1119.77V619H1118.42C1115.76 619 1113.38 618.668 1111.27 618.004C1109.16 617.34 1107.31 616.422 1105.7 615.25C1104.1 614.078 1102.72 612.711 1101.54 611.148C1099.24 613.648 1096.43 615.582 1093.11 616.949C1089.83 618.316 1086.33 619 1082.62 619H1076.99V603.238H1082.62C1087.03 603.238 1090.1 602.438 1091.82 600.836C1093.54 599.234 1094.4 596.402 1094.4 592.34C1094.4 590.152 1094.34 588.023 1094.22 585.953C1094.14 583.844 1094.01 581.793 1093.81 579.801ZM1134.89 564.332C1137.93 566.246 1140.84 568.121 1143.62 569.957C1146.39 571.793 1148.93 573.688 1151.23 575.641C1153.54 577.555 1155.55 579.566 1157.27 581.676C1158.99 583.785 1160.32 586.031 1161.25 588.414C1162.19 590.797 1162.66 593.355 1162.66 596.09C1162.66 601.988 1161.31 606.617 1158.62 609.977C1155.92 613.297 1152.07 615.641 1147.07 617.008C1142.11 618.336 1136.2 619 1129.32 619H1115.02V603.238H1129.26C1133.6 603.238 1137.17 603.043 1139.98 602.652C1142.84 602.223 1144.96 601.48 1146.37 600.426C1147.78 599.371 1148.48 597.848 1148.48 595.855C1148.48 594.645 1147.86 593.316 1146.61 591.871C1145.36 590.426 1143.71 588.922 1141.68 587.359C1139.65 585.797 1137.43 584.234 1135 582.672C1132.62 581.109 1130.24 579.566 1127.86 578.043C1125.51 576.52 1123.4 575.074 1121.53 573.707C1120 572.535 1118.83 571.031 1118.01 569.195C1117.19 567.359 1116.78 565.504 1116.78 563.629C1116.78 561.559 1117.27 559.605 1118.25 557.77C1119.26 555.934 1120.8 554.605 1122.88 553.785L1167.52 535.562V551.09L1134.89 564.332ZM1204.26 619C1202.39 619 1200.65 618.785 1199.05 618.355C1197.45 617.926 1196.12 617.379 1195.06 616.715C1194.13 622.535 1192.19 627.77 1189.26 632.418C1186.33 637.066 1182.41 640.953 1177.49 644.078C1172.6 647.242 1166.73 649.508 1159.85 650.875L1154.46 636.461C1160.24 635.172 1165.14 633.453 1169.17 631.305C1173.23 629.195 1176.31 626.402 1178.42 622.926C1180.53 619.449 1181.59 615.113 1181.59 609.918C1181.59 606.402 1181.06 602.496 1180.01 598.199C1178.99 593.902 1177.84 589.859 1176.55 586.07L1191.08 581.266L1194.48 594.332C1195.18 597.027 1196.22 599.195 1197.58 600.836C1198.99 602.438 1201 603.238 1203.62 603.238H1205.9V619H1204.26ZM1203.74 619H1201.16L1201.22 603.238H1203.45C1205.52 603.238 1207.33 602.496 1208.9 601.012C1210.46 599.527 1211.96 597.613 1213.41 595.27C1214.85 592.887 1216.34 590.387 1217.86 587.77C1219.42 585.113 1221.16 582.594 1223.08 580.211C1224.99 577.828 1227.24 575.895 1229.81 574.41C1232.39 572.926 1235.46 572.184 1239.01 572.184C1243.39 572.184 1247.16 573.102 1250.32 574.938C1253.52 576.734 1256.12 579.195 1258.11 582.32C1260.15 585.406 1261.49 588.863 1262.16 592.691C1262.63 595.27 1263.29 597.34 1264.15 598.902C1265.01 600.465 1266 601.578 1267.14 602.242C1268.31 602.906 1269.52 603.238 1270.77 603.238H1272.29V619H1270.71C1268.21 619 1265.75 618.434 1263.33 617.301C1260.91 616.168 1258.97 614.742 1257.53 613.023C1255.61 615.523 1253.45 617.379 1251.02 618.59C1248.64 619.762 1245.73 620.348 1242.29 620.348C1239.6 620.348 1237.04 619.957 1234.62 619.176C1232.2 618.395 1229.83 617.301 1227.53 615.895C1225.26 614.488 1222.98 612.867 1220.67 611.031C1219.23 612.555 1217.76 613.922 1216.28 615.133C1214.79 616.305 1213.08 617.242 1211.12 617.945C1209.17 618.648 1206.71 619 1203.74 619ZM1239.48 587.184C1237.8 587.184 1236.28 587.75 1234.91 588.883C1233.58 590.016 1232.39 591.402 1231.34 593.043C1230.32 594.645 1229.46 596.207 1228.76 597.73C1229.97 598.863 1231.14 599.859 1232.27 600.719C1233.41 601.578 1234.48 602.281 1235.5 602.828C1236.86 603.57 1238.11 604.098 1239.25 604.41C1240.42 604.723 1241.45 604.879 1242.35 604.879C1244.58 604.879 1246.18 604.137 1247.16 602.652C1248.17 601.168 1248.68 599.371 1248.68 597.262C1248.68 594.488 1247.86 592.125 1246.22 590.172C1244.58 588.18 1242.33 587.184 1239.48 587.184ZM1267.55 603.238H1272.06C1276.28 603.238 1279 602.223 1280.21 600.191C1281.42 598.121 1282.02 595.133 1282.02 591.227V537.145H1296.73V592.34C1296.73 601.129 1294.78 607.77 1290.87 612.262C1287 616.754 1280.71 619 1272 619H1267.55V603.238ZM1325.38 537.145V618.941H1310.74V537.145H1325.38ZM1400.56 649.117C1391.97 649.117 1385 647.477 1379.65 644.195C1374.3 640.953 1370.37 636.578 1367.87 631.07C1365.37 625.602 1364.12 619.527 1364.12 612.848C1364.12 609.215 1364.47 605.367 1365.17 601.305C1365.88 597.203 1367.05 592.965 1368.69 588.59L1381.99 593.395C1380.78 596.91 1379.86 600.328 1379.24 603.648C1378.61 606.93 1378.3 609.957 1378.3 612.73C1378.3 616.559 1378.98 620.055 1380.35 623.219C1381.76 626.383 1384.08 628.902 1387.32 630.777C1390.56 632.652 1394.98 633.59 1400.56 633.59C1406.7 633.59 1411.68 632.926 1415.51 631.598C1419.37 630.27 1422.21 628.766 1424 627.086C1425.8 625.406 1426.7 624.039 1426.7 622.984C1426.7 621.539 1425.99 620.504 1424.59 619.879C1423.22 619.293 1421.03 619 1418.03 619H1408.94C1407.46 619 1406.5 618.609 1406.07 617.828C1405.68 617.047 1405.29 615.992 1404.9 614.664L1402.62 606.227C1402.38 605.367 1402.32 604.664 1402.44 604.117C1402.56 603.57 1403.24 603.297 1404.49 603.297H1439.3V619H1439.18C1439.49 619.859 1439.69 620.562 1439.76 621.109C1439.84 621.656 1439.88 622.262 1439.88 622.926C1439.88 626.324 1439.02 629.586 1437.3 632.711C1435.58 635.875 1433.05 638.688 1429.69 641.148C1426.33 643.609 1422.21 645.543 1417.32 646.949C1412.44 648.395 1406.85 649.117 1400.56 649.117ZM1434.55 603.238H1439.06C1443.28 603.238 1446 602.223 1447.21 600.191C1448.42 598.121 1449.02 595.133 1449.02 591.227V537.145H1463.73V592.34C1463.73 601.129 1461.78 607.77 1457.87 612.262C1454 616.754 1447.72 619 1439 619H1434.55V603.238ZM1478.21 645.543C1476.88 644.449 1475.84 643.258 1475.1 641.969C1474.36 640.68 1473.99 638.98 1473.99 636.871C1473.99 633.395 1475.18 630.543 1477.56 628.316C1479.98 626.09 1482.74 624.977 1485.82 624.977C1487.42 624.977 1488.77 625.152 1489.87 625.504C1491 625.855 1492.15 626.363 1493.32 627.027L1493.38 633.766C1492.17 633.141 1491.02 632.691 1489.92 632.418C1488.87 632.184 1487.78 632.066 1486.64 632.066C1485.08 632.066 1483.62 632.535 1482.25 633.473C1480.92 634.41 1480.26 635.797 1480.26 637.633C1480.3 638.727 1480.82 639.742 1481.84 640.68C1482.85 641.617 1484.4 641.949 1486.47 641.676C1486.55 641.676 1486.62 641.656 1486.7 641.617C1486.78 641.617 1486.86 641.598 1486.94 641.559L1495.26 638.512L1496.19 645.133L1473.05 654.273L1472.05 647.887L1478.21 645.543ZM1492.44 537.145V618.941H1477.8V537.145H1492.44ZM1590.89 619H1577.29C1570.42 619 1564.15 618.57 1558.48 617.711C1552.82 616.852 1547.94 615.367 1543.84 613.258C1539.73 611.148 1536.57 608.238 1534.34 604.527C1532.12 600.777 1531 596.031 1531 590.289C1531 586.93 1531.38 583.668 1532.12 580.504C1532.9 577.301 1533.86 574.312 1534.99 571.539L1548.11 576.461C1547.45 578.297 1546.8 580.387 1546.18 582.73C1545.55 585.035 1545.24 587.262 1545.24 589.41C1545.24 592.418 1546.04 594.84 1547.64 596.676C1549.29 598.512 1551.55 599.898 1554.44 600.836C1557.37 601.773 1560.77 602.418 1564.64 602.77C1568.54 603.082 1572.76 603.238 1577.29 603.238H1591C1594.44 603.238 1597.59 603.121 1600.44 602.887C1603.29 602.613 1605.75 602.125 1607.82 601.422C1609.93 600.719 1611.55 599.703 1612.68 598.375C1613.86 597.008 1614.44 595.25 1614.44 593.102C1614.44 590.602 1614.15 587.73 1613.56 584.488C1612.98 581.246 1612.33 578.141 1611.63 575.172L1625.98 571.598C1626.77 575.152 1627.37 578.707 1627.8 582.262C1628.23 585.777 1628.45 589.078 1628.45 592.164C1628.45 597.906 1627.47 602.555 1625.52 606.109C1623.6 609.664 1620.93 612.379 1617.49 614.254C1614.05 616.09 1610.07 617.34 1605.54 618.004C1601 618.668 1596.12 619 1590.89 619ZM1590.01 556.07L1599.68 565.68L1590.01 575.406L1580.34 565.68L1590.01 556.07ZM1570.2 556.07L1579.99 565.68L1570.2 575.406L1560.65 565.68L1570.2 556.07ZM1653.82 537.145V618.941H1639.17V537.145H1653.82ZM1654.23 650.875L1648.72 636.461C1654.5 635.172 1659.41 633.453 1663.43 631.305C1667.49 629.195 1670.58 626.402 1672.69 622.926C1674.8 619.449 1675.85 615.113 1675.85 609.918C1675.85 606.402 1675.33 602.496 1674.27 598.199C1673.25 593.902 1672.1 589.859 1670.81 586.07L1685.4 581.266C1686.93 585.484 1688.08 589.957 1688.86 594.684C1689.64 599.41 1690.03 603.941 1690.03 608.277C1690.03 616.168 1688.59 623.023 1685.7 628.844C1682.81 634.703 1678.68 639.469 1673.33 643.141C1667.98 646.812 1661.61 649.391 1654.23 650.875ZM1723.26 528.941L1733.39 539.078L1723.26 549.215L1713.12 539.078L1723.26 528.941ZM1730.99 594.449C1730.99 593.473 1730.76 592.184 1730.29 590.582C1729.86 588.98 1729.39 587.633 1728.88 586.539L1717.57 561.285L1730.58 555.016L1744.88 588.18C1746.17 591.188 1747.32 593.824 1748.34 596.09C1749.35 598.355 1750.46 600.113 1751.68 601.363C1752.89 602.613 1754.41 603.238 1756.25 603.238H1758.71V619H1756.25C1753.28 619 1750.74 618.629 1748.63 617.887C1746.56 617.105 1744.72 616.031 1743.12 614.664C1741.56 613.297 1740.09 611.695 1738.73 609.859C1736.81 611.812 1734.6 613.473 1732.1 614.84C1729.64 616.207 1726.85 617.242 1723.73 617.945C1720.6 618.609 1717.07 618.941 1713.12 618.941C1709.84 618.941 1707.01 618.824 1704.62 618.59C1702.28 618.355 1699.9 617.945 1697.48 617.359V601.656C1699.9 602.203 1702.4 602.633 1704.98 602.945C1707.55 603.258 1709.98 603.414 1712.24 603.414C1715.48 603.414 1718.53 603.141 1721.38 602.594C1724.23 602.008 1726.54 601.07 1728.3 599.781C1730.09 598.453 1730.99 596.676 1730.99 594.449ZM1753.96 603.238H1758.47C1762.69 603.238 1765.41 602.223 1766.62 600.191C1767.83 598.121 1768.44 595.133 1768.44 591.227V537.145H1783.14V592.34C1783.14 601.129 1781.19 607.77 1777.28 612.262C1773.42 616.754 1767.13 619 1758.42 619H1753.96V603.238ZM1811.8 537.145V618.941H1797.15V537.145H1811.8Z" fill="#F1EBDD"/>
<rect x="1580" y="690" width="240" height="5" fill="#F1EBDD"/>
</g>
<defs>
<clipPath id="clip0_15951_33865">
<rect width="1920" height="1080" fill="white"/>
</clipPath>
<clipPath id="clip1_15951_33865">
<rect width="1920" height="1080" fill="white"/>
</clipPath>
</defs>
</svg>
