<svg width="240" height="240" viewBox="0 0 240 240" fill="none" xmlns="http://www.w3.org/2000/svg">
<circle cx="106.5" cy="134" r="86.5" fill="#FF8D65"/>
<circle cx="107" cy="132" r="85" fill="url(#paint0_linear_36732_4597)"/>
<ellipse cx="107" cy="132.5" rx="80" ry="80.5" fill="#141414"/>
<path d="M121.691 75.4245C111.638 80.9324 90.4377 92.9122 86.0513 96.7677L92.0366 86.4404C79.0225 96.7677 55.5907 109.161 48.0514 125.684C38.3261 147 40.7866 163.655 53.9994 178C71.4994 197 99.1071 197.595 119.999 186.5C136.11 177.944 146 158 156 149.5L138.825 155.289L171.037 121.553L148.42 131.881L212.845 54.7698L203.935 58.9008L219.699 41L116.208 86.4404L121.691 75.4245Z" fill="#FF703E"/>
<path d="M79.3558 187.498C79.3558 187.498 70.697 184.011 68.8265 182.611C66.956 181.211 60.5249 173.025 60.5249 173.025C60.5249 173.025 59.0824 160.143 57.2119 158.743C57.2119 158.743 53.0974 155.795 52.2036 149.187C51.3099 142.579 56.7156 136.083 56.7156 136.083C56.7156 136.083 58.6682 125.673 61.516 121.869C64.3638 118.065 69.0835 115.66 72.3786 115.157C75.6737 114.655 84.5809 118.357 84.5809 118.357C84.5809 118.357 89.2992 115.953 94.4668 116.853C107.116 123.354 113.176 130.859 113.176 130.859L114.069 137.464C114.069 137.464 125.74 149.171 127.61 150.571C129.481 151.972 129.397 163.784 127.973 165.687C126.548 167.59 122.276 173.296 116.133 177.603C108.118 180.507 104.824 181.008 104.824 181.008C104.824 181.008 104.872 185.865 100.153 188.271C93.5639 189.274 84.1494 185.28 84.1494 185.28L79.3558 187.498Z" fill="#FFCC4D"/>
<path d="M97.2305 184.656C96.0296 184.236 87.2119 182.091 85.8939 180.906C84.576 179.722 81.1279 171.812 83.3938 171.73C85.6597 171.649 92.7664 178.352 95.0016 180.025C97.2369 181.698 99.7051 185.522 97.2305 184.656ZM113.398 172.875C111.95 173.557 103.667 167.959 103.667 167.959C103.667 167.959 96.4331 156.028 96.9063 155.396C97.3796 154.763 110.017 157.511 111.054 158.093C112.09 158.674 114.532 172.342 113.398 172.875ZM95.9839 147.797C95.421 148.937 86.6775 151.884 85.4748 151.773C84.2722 151.661 71.0277 146.288 69.1452 144.878C67.2627 143.469 64.5727 134.547 65.1169 133.572C65.6631 132.599 75.6224 130.58 77.4136 131.133C79.2062 131.683 97.0509 145.637 95.9839 147.797ZM69.9505 178.642C69.1224 177.692 63.7427 171.23 63.8649 169.349C63.9871 167.468 71.6312 167.071 73.0221 167.914C74.411 168.756 79.1687 180.806 79.6367 182.143C80.1047 183.48 71.4332 180.346 69.9505 178.642Z" fill="#FF8D65"/>
<defs>
<linearGradient id="paint0_linear_36732_4597" x1="107" y1="47" x2="107" y2="217" gradientUnits="userSpaceOnUse">
<stop stop-color="#DB5224"/>
<stop offset="1" stop-color="#FFCC4D"/>
</linearGradient>
</defs>
</svg>
