<svg width="240" height="240" viewBox="0 0 240 240" fill="none" xmlns="http://www.w3.org/2000/svg">
<path d="M120 58.4286L220 205H20L120 58.4286Z" fill="#A479F6"/>
<path d="M120 58.4286L218.551 202.876H21.4493L120 58.4286Z" fill="#F5EFFF"/>
<path d="M120 72.236L202.979 195.441H37.0213L120 72.236Z" fill="#A479F6"/>
<path d="M78.5106 76.5279C90.1853 114.514 113.535 191.477 113.535 195.441H133.725L137.021 49.6899L111.142 34L78.5106 76.5279Z" fill="#C4A8F2"/>
<path d="M78.5106 76.5279C90.2452 114.514 113.535 191.477 113.535 195.441H123.519L111.142 34L78.5106 76.5279Z" fill="#F5EFFF"/>
<path d="M103.25 131.312L109.362 195.441H77.5826L51.9149 145.696L69.6378 111.534L103.25 131.312Z" fill="#C4A8F2"/>
<path d="M69.6889 111.534L93.592 195.441H77.6566L51.9149 145.696L69.6889 111.534Z" fill="#F5EFFF"/>
<path d="M127.774 129.474L125.319 195.441H160.917L189.149 139.669L160.653 107.286L127.774 129.474Z" fill="#C4A8F2"/>
<path d="M127.756 129.474L125.319 195.441H143.596L160.653 107.286L127.756 129.474Z" fill="#F5EFFF"/>
<path d="M161.489 50.9938L163.821 59.2867L172.128 61.6149L163.821 63.9431L161.489 72.236L159.157 63.9431L150.851 61.6149L159.157 59.2867L161.489 50.9938Z" fill="#B08AF9"/>
<path d="M39.1489 120.031L41.0145 126.665L47.6596 128.528L41.0145 130.391L39.1489 137.025L37.2834 130.391L30.6383 128.528L37.2834 126.665L39.1489 120.031Z" fill="#B08AF9"/>
</svg>
