<svg width="240" height="240" viewBox="0 0 240 240" fill="none" xmlns="http://www.w3.org/2000/svg">
<path d="M86.8909 213.473L20 118.787L120.483 97.6763L220 78.2077L86.8909 213.473Z" fill="url(#paint0_linear_36272_6136)"/>
<path d="M87.5398 208.643L23.8647 118.014L215.169 79.1739L87.5398 208.643Z" fill="url(#paint1_linear_36272_6136)"/>
<path d="M87.8797 197.048L36.4251 124.005L191.014 92.7005L87.8797 197.048Z" fill="#040204"/>
<path d="M87.8797 197.048L36.4251 124.241L191.014 93.0382L87.8797 197.048Z" fill="#141414"/>
<path d="M164.701 103.162C164.701 94.8784 163.408 86.9359 161.036 79.5881C159.415 101.238 149.291 112.358 138.711 107.18C128.802 102.327 135.48 83.4086 135.973 74.3815C136.805 59.0791 135.931 41.5632 111.548 27C121.68 49.0958 111.266 67.166 96.0702 81.0657C87.4402 88.9597 85.9066 91.323 75.8983 92.4478C65.8899 93.5727 60.3289 80.2309 65.4564 58.9707C56.5828 70.8823 51.2262 86.3092 51.2262 103.162C51.2262 109.664 51.8347 115.954 53.0114 121.912C56.7595 140.888 66.2726 156.493 80.248 164.848C87.3377 169.086 95.5757 171.459 104.792 171.459C108.256 171.459 110.828 171.277 114.131 170.634L139.211 145.456L162.441 121.93C163.873 116.055 164.701 109.522 164.701 103.162Z" fill="#FF703E"/>
<path d="M135.356 136.553C135.787 145.523 127.898 149.039 123.651 147.341C117.518 144.889 119.164 140.677 117.585 131.952C116.007 123.226 109.941 117.168 100.962 114.501C107.515 132.92 97.3305 139.709 91.9923 140.922C86.5406 142.161 81.0626 140.919 80.4365 129.267C74.0761 135.59 70.1388 144.339 70.1388 154.007C70.1388 155.078 70.2057 156.131 70.2989 157.178C79.2396 166.002 91.5205 171.459 105.086 171.459C108.32 171.459 111.07 171.226 114.131 170.634L139.211 145.456C139.211 145.456 137.013 139.412 135.356 136.553Z" fill="#FFCC4D"/>
<path d="M112.048 27C136.367 41.5056 137.238 58.9524 136.409 74.1943C135.985 81.9386 130.986 96.9912 135.922 104.107L53.5083 120.72C52.4381 115.029 51.8841 109.042 51.8841 102.862C51.8841 86.0755 57.2266 70.709 66.077 58.8443C60.9629 80.0205 66.5092 93.3102 76.4912 92.1901C86.4733 91.0697 88.0035 88.7153 96.6108 80.8524C111.766 67.0076 122.153 49.0086 112.048 27Z" fill="#FF703E"/>
<path d="M161.407 79.3806C163.329 85.3279 164.541 91.6663 164.928 98.2604L155.76 100.108C158.685 95.1935 160.749 88.1556 161.407 79.3806Z" fill="#FF703E"/>
<defs>
<linearGradient id="paint0_linear_36272_6136" x1="231.702" y1="-21.5824" x2="-35.8499" y2="25.4113" gradientUnits="userSpaceOnUse">
<stop stop-color="#DB5224"/>
<stop offset="1" stop-color="#F4BF3B"/>
</linearGradient>
<linearGradient id="paint1_linear_36272_6136" x1="230.684" y1="-19.9153" x2="-35.5447" y2="26.9535" gradientUnits="userSpaceOnUse">
<stop stop-color="#E9673C"/>
<stop offset="1" stop-color="#FFCC4D"/>
</linearGradient>
</defs>
</svg>
