<svg width="240" height="240" viewBox="0 0 240 240" fill="none" xmlns="http://www.w3.org/2000/svg">
<path d="M47.0458 67.7462L126.023 39.8895L205 67.7255V134.32C198.295 154.484 190.58 165.439 175.158 180.012C159.737 194.584 126.023 208.95 126.023 208.95C126.023 208.95 92.4455 195.576 76.3728 180.012C61.0953 165.218 53.6423 154.407 47.0458 134.32V67.7462Z" fill="url(#paint0_linear_36272_6138)"/>
<path d="M49.2549 66.9464L126.023 39.8895L202.791 66.9464V133.085C196.273 152.986 188.774 163.798 173.784 178.18C158.794 192.562 126.023 206.74 126.023 206.74C126.023 206.74 93.3847 193.541 77.7616 178.18C62.9114 163.58 55.6669 152.91 49.2549 133.085V66.9464Z" fill="url(#paint1_linear_36272_6138)"/>
<path d="M60.3007 75.1591L126.023 52.0442L191.745 75.1591V131.662C186.165 148.663 179.745 157.9 166.912 170.187C154.079 182.473 126.023 194.586 126.023 194.586C126.023 194.586 98.0809 183.309 84.7057 170.187C71.9922 157.713 65.7901 148.598 60.3007 131.662V75.1591Z" fill="#6C5928"/>
<path d="M69.1373 137.127L152.683 20L141.004 100.739L184.013 95.1381L100.467 212.265L112.147 131.526L69.1373 137.127Z" fill="#FFB64C"/>
<path d="M69.1373 137.127L152.683 20L141.004 100.739L184.013 95.1381L100.467 212.265L112.147 131.526L69.1373 137.127Z" fill="#FFB64C"/>
<path d="M55.8824 144.862L144.951 27.7348L133.272 108.474L170.758 102.873L87.2121 220L98.8919 139.261L55.8824 144.862Z" fill="#FFDF8E"/>
<path d="M36 66.8153L55.2799 39.8895L52.5845 58.4502L62.5098 57.1626L43.2299 84.0884L45.9253 65.5277L36 66.8153Z" fill="#FFB64C"/>
<path d="M176.281 193.887L195.561 166.961L192.866 185.522L202.791 184.234L183.511 211.16L186.206 192.6L176.281 193.887Z" fill="#FFB64C"/>
<defs>
<linearGradient id="paint0_linear_36272_6138" x1="214.028" y1="-30.3185" x2="-13.5298" y2="1.24354" gradientUnits="userSpaceOnUse">
<stop stop-color="#EEA133"/>
<stop offset="1" stop-color="#E6C36A"/>
</linearGradient>
<linearGradient id="paint1_linear_36272_6138" x1="214.028" y1="-30.3185" x2="-13.5298" y2="1.24354" gradientUnits="userSpaceOnUse">
<stop stop-color="#FFB64C"/>
<stop offset="1" stop-color="#FFDF8E"/>
</linearGradient>
</defs>
</svg>
