<svg width="240" height="240" viewBox="0 0 240 240" fill="none" xmlns="http://www.w3.org/2000/svg">
<path d="M62.4054 189.246H80.9667L67.5613 206.194H49L62.4054 189.246Z" fill="#80A2C4"/>
<path d="M109.639 151.999H128.2L114.795 168.947H96.2333L109.639 151.999Z" fill="url(#paint0_linear_36272_6158)"/>
<path d="M117.78 184.025H136.342L122.936 200.973H104.375L117.78 184.025Z" fill="#80A2C4"/>
<path d="M169.297 179.804H187.858L174.453 196.752H155.892L169.297 179.804Z" fill="#80A2C4"/>
<path d="M164.439 148.389H183L169.595 165.337H151.033L164.439 148.389Z" fill="url(#paint1_linear_36272_6158)"/>
<path d="M186.068 63.9629C182.339 59.1992 176.619 56.0857 170.126 56.0857C161.292 56.0857 153.842 61.7745 151.024 69.6917C150.184 69.5449 149.343 69.4293 148.468 69.4293C144.84 69.4293 141.545 70.737 138.904 72.8408C135.989 70.7147 132.436 69.4293 128.561 69.4293C127 69.4293 125.513 69.6962 124.071 70.0787C124.08 69.8607 124.138 69.6517 124.138 69.4293C124.138 59.604 116.215 51.6379 106.443 51.6379C101.069 51.6379 96.3087 54.102 93.0662 57.9049C90.3811 56.744 87.4305 56.0857 84.3251 56.0857C83.5289 56.0857 82.7769 56.237 82.0028 56.3215C77.3757 44.9883 66.3034 37 53.3599 37C42.0752 37 33.8601 40.3537 26.8182 52.1583C19.7763 63.9629 27.9546 80.1818 27.9546 80.1818C18.8636 90.9773 19.4267 103.092 26.8182 112.4C45.0001 135.295 146.136 127.909 170.126 116.545C180.968 111.409 183.742 106.318 189.318 95.5227C194.895 84.7273 189.797 68.7265 186.068 63.9629Z" fill="#80A2C4"/>
<path d="M112.276 75.7379C121.348 74.8103 129.538 80.3266 132.5 88.5675C135.332 86.6676 138.727 85.5524 142.389 85.5524C152.241 85.5526 160.23 93.5779 160.23 103.477C158.068 129.196 139.312 132.766 107.494 132.766C75.6766 132.766 48.9718 138.694 34.7672 130.493C26.0544 125.463 20.0002 110.9 20 104.322C20 94.5454 26.9403 88.2524 29.7201 86.3037C32.5 84.355 35.6595 84.2565 36.7958 84.355C37.7032 84.4337 38.5543 84.6084 39.3026 84.8233C42.0236 80.968 46.2715 78.228 51.3166 77.7099C52.4085 77.5982 53.4872 77.5938 54.5415 77.6877C62.6019 78.2135 69.3452 84.4778 70.1909 92.7656C70.2087 92.9697 70.1775 93.1742 70.1909 93.3827C71.516 92.8813 72.8994 92.487 74.3801 92.3362C78.0145 91.9675 81.4698 92.8111 84.4154 94.4924C85.8525 93.1368 87.5506 92.048 89.4491 91.3419C90.6387 90.874 91.9094 90.5549 93.2466 90.4186C93.9976 90.3424 94.7306 90.3618 95.4583 90.4053C97.4067 82.6703 103.918 76.5943 112.276 75.7379Z" fill="#D5E8F8"/>
<path d="M183.636 65.1818C179.886 65.1818 176.273 65.7429 172.868 66.7843C168.836 55.4056 157.9 47.2273 145 47.2273C131.164 47.2273 119.582 56.6355 116.368 69.3159C112.941 66.7573 108.723 65.1818 104.091 65.1818C92.7955 65.1818 83.6364 74.2264 83.6364 85.3807C83.6364 88.0918 84.1955 90.6683 85.1773 93.0293C83.2273 92.4952 81.2136 92.1136 79.0909 92.1136C66.5364 92.1136 56.3636 102.159 56.3636 114.557C56.3636 126.954 66.5364 137 79.0909 137H183.636C203.718 137 220 120.926 220 101.091C220 81.2601 203.718 65.1818 183.636 65.1818Z" fill="url(#paint2_linear_36272_6158)"/>
<path d="M76.9148 131.737C76.7152 131.194 76.2041 130.833 75.6328 130.833H59.1304L68.6492 112.025C68.9485 111.433 68.7941 110.71 68.2789 110.299C68.0301 110.099 67.7308 110 67.4329 110C67.1145 110 66.796 110.114 66.5405 110.337L56.4996 119.15L36.474 136.726C36.0421 137.106 35.8863 137.718 36.0859 138.261C36.2854 138.804 36.7952 139.167 37.3664 139.167H53.8688L44.3501 157.975C44.0508 158.567 44.2052 159.29 44.7204 159.701C44.9691 159.901 45.2684 160 45.5664 160C45.8848 160 46.2032 159.886 46.4588 159.662L56.4996 150.85L76.5253 133.274C76.9585 132.894 77.1129 132.282 76.9148 131.737Z" fill="#FFAC33"/>
<defs>
<linearGradient id="paint0_linear_36272_6158" x1="163.669" y1="148.078" x2="163.669" y2="168.665" gradientUnits="userSpaceOnUse">
<stop stop-color="#141414"/>
<stop offset="1" stop-color="#55ACEE"/>
</linearGradient>
<linearGradient id="paint1_linear_36272_6158" x1="163.669" y1="148.078" x2="163.669" y2="168.665" gradientUnits="userSpaceOnUse">
<stop stop-color="#141414"/>
<stop offset="1" stop-color="#55ACEE"/>
</linearGradient>
<linearGradient id="paint2_linear_36272_6158" x1="138.182" y1="47.2273" x2="138.182" y2="137" gradientUnits="userSpaceOnUse">
<stop stop-color="#55ACEE"/>
<stop offset="1" stop-color="#141414"/>
</linearGradient>
</defs>
</svg>
