<svg width="240" height="240" viewBox="0 0 240 240" fill="none" xmlns="http://www.w3.org/2000/svg">
<path d="M177.61 165.559L153.896 171.723C155.67 176.955 156.99 180.229 155.753 192.481C154.199 207.873 145.296 220 145.296 220C145.296 220 166.785 214.679 174.556 190.801C177.584 181.495 179.504 170.095 177.61 165.559Z" fill="#6D666A"/>
<path d="M200.348 146.882C202.516 152.796 188.771 163.185 169.647 170.087C150.523 176.988 133.263 177.789 131.094 171.875C128.926 165.96 142.671 155.571 161.795 148.669C180.919 141.768 198.18 140.967 200.348 146.882Z" fill="#898387"/>
<path d="M210.398 129.651C212.567 137.357 191.374 149.961 163.063 157.804C134.752 165.647 110.044 165.758 107.875 158.052C105.707 150.347 126.899 137.742 155.21 129.899C183.521 122.056 208.23 121.945 210.398 129.651Z" fill="#D9D9D9"/>
<path d="M211 109.301C209.502 118.575 183.875 131.586 150.427 139.563C114.193 148.205 82.5049 147.668 79.6481 138.362C77.8664 132.557 87.7282 124.71 104.197 117.53C95.8591 122.421 91.3959 127.265 92.5778 131.117C95.1948 139.641 124.474 140.073 157.976 132.083C183.128 126.084 203.51 117.043 211 109.301Z" fill="#898387"/>
<path d="M201.923 99.9896C203.356 110.515 175.003 123.002 138.595 127.882C102.187 132.761 71.511 128.184 70.0781 117.659C68.6452 107.134 96.998 94.6465 133.406 89.7672C169.814 84.8878 200.49 89.4646 201.923 99.9896Z" fill="#D9D9D9"/>
<path d="M194.87 94.0866C194.733 105.477 159.431 114.292 116.021 113.776C72.6106 113.26 37.5314 103.608 37.6689 92.2186C37.8064 80.8287 73.1085 72.0136 116.518 72.5294C159.928 73.0453 195.008 82.6968 194.87 94.0866Z" fill="#6D666A"/>
<path d="M208.174 83.2849C206.129 94.8953 163.93 97.2767 113.922 88.604C63.9134 79.9313 25.0317 63.4885 27.0771 51.8782C29.1226 40.2678 71.3207 37.8864 121.329 46.5591C171.338 55.2318 210.22 71.6745 208.174 83.2849Z" fill="#D9D9D9"/>
<path d="M80.5004 29.6762C130.725 28.5535 189.292 47.111 210.484 67.0359C210.649 67.1914 210.788 67.2685 210.948 67.4147C203.028 55.2079 184.902 42.6206 150.126 33.2449C80.0309 14.3469 45.1296 20.2124 33.0481 31.4917C32.3519 32.1367 30.5925 33.4133 30.2592 35.3544C30.1608 35.9272 30.2641 36.2995 30.4215 36.8336C31.6146 40.8826 40.7907 55.2125 108.436 69.6036C142.952 76.9505 169.332 75.8624 170.257 70.41C171.099 65.498 157.107 58.6249 128.646 52.0222C162.098 60.9776 159.191 69.314 140.549 67.0162C58.9499 56.9679 38.6103 30.6033 80.5004 29.6762Z" fill="#898387"/>
</svg>
