<svg width="240" height="240" viewBox="0 0 240 240" fill="none" xmlns="http://www.w3.org/2000/svg">
<path d="M120 216L220 68.9198H20L120 216Z" fill="url(#paint0_linear_36272_6142)"/>
<path d="M120 212.936L217.959 68.9198H22.0408L120 212.936Z" fill="url(#paint1_linear_36272_6142)"/>
<path d="M120 198.636L202.653 76.0695H37.3469L120 198.636Z" fill="#141414"/>
<path d="M175.14 98.721C148.562 115.992 104.628 97.1693 110.557 70.1592C115.755 46.4794 143.662 53.285 150.01 56.4806C156.358 59.6762 152.516 42.7028 137.796 37.6083C117.857 30.707 93.4508 32.1701 85.736 66.8361C80.4639 90.5266 90.7902 123.74 130.44 124.183C170.09 124.626 175.14 98.721 175.14 98.721Z" fill="#226699"/>
<path d="M184.286 103.647C184.286 96.0443 174.564 95.8195 170.185 100.124C159.661 110.465 144.169 114.338 123.446 110.26C87.4195 103.174 87.0997 60.6115 111.731 48.4704C125.055 41.9022 140.865 49.6785 146.875 54.3337C152.105 58.3831 162.108 63.7575 161.584 56.9979C160.466 42.6072 132.486 11.7886 94.9938 31.2739C57.5056 50.7591 57.7551 94.7354 57.7551 102.707V106.711L93.7677 160.119C102.698 164.653 111.204 166.973 123.446 166.973C132.614 166.973 137.523 166.358 143.98 163.398L184.286 103.647Z" fill="#55ACEE"/>
<defs>
<linearGradient id="paint0_linear_36272_6142" x1="120" y1="25" x2="120" y2="216" gradientUnits="userSpaceOnUse">
<stop stop-color="#3995DC"/>
<stop offset="1" stop-color="#1E5177"/>
</linearGradient>
<linearGradient id="paint1_linear_36272_6142" x1="120" y1="25" x2="120" y2="216" gradientUnits="userSpaceOnUse">
<stop stop-color="#55ACEE"/>
<stop offset="1" stop-color="#226699"/>
</linearGradient>
</defs>
</svg>
