<svg width="240" height="240" viewBox="0 0 240 240" fill="none" xmlns="http://www.w3.org/2000/svg">
<path d="M124.52 207.312L20 207.312L102.092 98.3125L124.52 105.617L145.007 98.3125L220 207.312L124.52 207.312Z" fill="#292F33"/>
<path d="M220 207.312L125 207.312V105.617L145.385 98.3125L220 207.312Z" fill="#4B545D"/>
<path d="M120.892 97.6703C120.892 97.6703 101.422 92.1862 88.1824 103.936C82.15 109.285 82.8034 114.223 80.3722 126.023C77.9409 137.824 70.9461 141.493 69.9281 146.18C67.9223 155.369 60.5476 162.372 57.6859 166.753C56.0246 169.3 53.8466 173.451 52.4284 175.787C49.4603 180.689 47.2925 184.835 47.0291 187.011C46.3959 192.234 56.3133 180.955 56.3133 180.955L72.9316 160.728C72.3897 172.263 68.2515 184.479 72.7746 183.356C76.5734 182.414 79.6782 177.662 77.9207 172.548C75.6212 165.851 76.2087 160.101 77.4446 155.224C77.6978 154.778 88.851 135.137 91.5608 119.547C94.3061 103.776 118.816 99.6154 118.816 99.6154L130.182 103.936L132.294 98.5927L120.892 97.6703Z" fill="#E95F28"/>
<path d="M147.786 142.154C144.563 138.488 142.83 132.927 142.655 126.14C143.377 118.036 133.983 99.952 133.983 99.952L115.194 103.744C115.194 103.744 132.363 111.916 134.851 125.392C136.091 132.105 134.405 141.293 133.983 145.372C133.415 150.812 136.743 153.967 137.636 159.139C138.1 161.813 137.665 167.374 137.052 173.13C136.739 176.057 135.599 178.842 135.29 181.521C134.488 188.443 134.789 193.538 136.246 190.33C138.008 186.46 138.972 180.986 141.519 172.8C142.743 168.862 142.818 164.326 142.517 159.134C142.388 156.893 142.981 154.229 142.772 151.74C142.559 149.173 141.544 146.782 141.381 143.943C141.335 143.136 141.507 140.355 141.766 136.923C142.075 136.981 142.375 137.185 142.667 137.759C146.584 145.352 145.857 152.465 147.995 150.306C149.707 148.575 150.053 144.735 147.786 142.154Z" fill="#E95F28"/>
<path d="M170.366 118.193C163.639 109.421 159.052 100.641 154.25 99.1219C150.082 97.8035 143.574 99.0846 139.696 102.772C128.047 113.848 161.102 108.483 168.385 136.054C171.86 149.213 182.39 154.657 185.323 162.843C195.139 190.259 206.424 195.242 200.229 186.64C194.035 178.037 177.092 126.966 170.366 118.193Z" fill="#E95F28"/>
<path d="M153.932 99.2336C153.932 99.2336 156.94 105.029 145.65 104.923C142.692 104.898 141.289 107.49 137.42 107.811C134.198 108.076 129.776 106.593 126.13 106.593C122.483 106.593 118.279 109.054 115.058 108.788C111.178 108.467 106.655 104.607 103.757 103.981C98.3784 102.818 94.6809 102.532 94.6809 100.742C94.6809 98.9529 100.794 96.7873 106.184 95.6243C109.076 94.9977 111.542 97.053 115.412 96.7321C118.633 96.4665 121.951 96.2258 125.598 96.2258C129.245 96.2258 132.765 94.0653 135.986 94.336C139.866 94.6568 143.092 96.5015 146.01 97.0179C149.469 97.6345 151.521 98.241 152.665 98.6671C153.602 99.013 153.932 99.2336 153.932 99.2336Z" fill="#E95F28"/>
<path d="M137.739 33C141.702 33 148.112 33.2807 154.486 40.0049C156.06 41.6649 157.284 43.4623 158.193 45.3955C160.474 46.9252 162.92 49.649 162.92 54.2939C162.923 56.3828 171.445 56.4444 173.859 62.4814C176.127 68.1509 178.922 78.8983 164.368 78.8984C157.221 78.8985 150.376 79.2413 143.951 79.6211C139.926 89.087 137.691 99.5383 137.41 100.889C138.23 101.161 138.694 101.348 138.709 101.354C138.709 101.354 138.503 102.388 137.234 102.891C136.899 103.024 136.102 102.655 135.563 102.891C134.922 103.171 133.772 103.88 133.2 103.969C132.588 104.067 131.187 103.506 130.493 103.585C129.225 103.723 128.579 104.368 127.093 104.432C126.087 104.471 125.614 103.949 124.538 103.949C124.136 103.949 123.28 103.472 122.602 103.512C121.484 103.571 120.452 104.151 119.836 104.127C118.166 104.058 117.826 103.063 116.436 102.896C115.09 102.738 114.131 103.589 113.15 103.358C111.299 102.92 110.362 101.359 110.362 101.359C110.362 101.114 110.549 100.877 110.897 100.652C110.88 98.7691 110.502 90.1871 105.292 80.5605C92.9511 80.6842 80.8706 80.6481 78.8145 80.0693C75.6569 79.1806 71.8097 78.5978 71.8096 70.2637C71.8098 63.45 78.6582 60.9581 78.7588 60.9219C78.7588 52.6575 85.0614 45.9227 92.9443 45.6162C94.6875 43.0666 96.8118 41.3005 98.2188 40.2061C100.974 38.0625 104.438 38.3675 106.654 39.0547C108.957 35.8147 112.596 33.5057 116.926 33.0732C120.522 32.7155 123.942 33.6922 126.675 35.5889C130.027 33.9309 133.777 33.0001 137.739 33Z" fill="url(#paint0_linear_36272_6148)"/>
<path d="M53.3344 134.312L220 207.312L20 207.312L53.3344 134.312Z" fill="url(#paint1_linear_36272_6148)"/>
<path d="M20 207.312L53.3344 134.312L44.8593 182.889L69.1531 182.889V207.312L20 207.312Z" fill="#292F33"/>
<defs>
<linearGradient id="paint0_linear_36272_6148" x1="116.031" y1="33" x2="116.031" y2="80.6226" gradientUnits="userSpaceOnUse">
<stop stop-color="#F44336"/>
<stop offset="1" stop-color="#FFAC33"/>
</linearGradient>
<linearGradient id="paint1_linear_36272_6148" x1="120" y1="134.312" x2="120" y2="207.312" gradientUnits="userSpaceOnUse">
<stop stop-color="#4B545D"/>
<stop offset="1" stop-color="#292F33"/>
</linearGradient>
</defs>
</svg>
